<?xml version="1.0" encoding="UTF-8" standalone="no"?>
<!-- Created with Inkscape (http://www.inkscape.org/) -->

<svg
   xmlns:dc="http://purl.org/dc/elements/1.1/"
   xmlns:cc="http://creativecommons.org/ns#"
   xmlns:rdf="http://www.w3.org/1999/02/22-rdf-syntax-ns#"
   xmlns:svg="http://www.w3.org/2000/svg"
   xmlns="http://www.w3.org/2000/svg"
   xmlns:sodipodi="http://sodipodi.sourceforge.net/DTD/sodipodi-0.dtd"
   xmlns:inkscape="http://www.inkscape.org/namespaces/inkscape"
   width="141.11111mm"
   height="141.11111mm"
   viewBox="0 0 500.00001 500.00001"
   id="svg3441"
   version="1.1"
   inkscape:version="0.91 r13725"
   sodipodi:docname="bottle.svg">
  <defs
     id="defs3443" />
  <sodipodi:namedview
     id="base"
     pagecolor="#ffffff"
     bordercolor="#666666"
     borderopacity="1.0"
     inkscape:pageopacity="0.0"
     inkscape:pageshadow="2"
     inkscape:zoom="1.0211111"
     inkscape:cx="102.72035"
     inkscape:cy="323.81889"
     inkscape:document-units="px"
     inkscape:current-layer="layer1"
     showgrid="false"
     fit-margin-top="0"
     fit-margin-left="0"
     fit-margin-right="0"
     fit-margin-bottom="0"
     inkscape:window-width="1855"
     inkscape:window-height="1056"
     inkscape:window-x="1985"
     inkscape:window-y="24"
     inkscape:window-maximized="1" />
  <metadata
     id="metadata3446">
    <rdf:RDF>
      <cc:Work
         rdf:about="">
        <dc:format>image/svg+xml</dc:format>
        <dc:type
           rdf:resource="http://purl.org/dc/dcmitype/StillImage" />
        <dc:title></dc:title>
      </cc:Work>
    </rdf:RDF>
  </metadata>
  <g
     inkscape:label="Layer 1"
     inkscape:groupmode="layer"
     id="layer1"
     transform="translate(-122.04724,-276.18109)">
    <path
       inkscape:connector-curvature="0"
       id="path3462"
       d="m 157.28468,769.0899 c 0.26967,-0.85012 -0.82374,-1.96254 -2.42982,-2.47202 -1.60606,-0.50947 -4.12823,-2.8152 -5.60482,-5.12383 -3.24859,-5.07918 -1.39822,-4.97088 2.78372,0.1629 1.65469,2.03129 4.15989,3.62499 5.56712,3.54154 1.40726,-0.0835 2.78554,0.75083 3.063,1.85367 0.32809,1.30451 1.28568,1.27253 2.73991,-0.0916 1.22956,-1.1533 2.70592,-1.54974 3.28079,-0.88098 0.57487,0.66878 2.50313,-0.73156 4.28504,-3.11184 3.92234,-5.23954 4.10334,-5.71072 1.98928,-5.17903 -0.9088,0.22857 -1.03593,-1.18064 -0.28252,-3.13157 0.75344,-1.9509 2.23708,-3.1977 3.29701,-2.77062 1.05992,0.42713 8.70972,-5.87576 16.99954,-14.0063 20.8002,-20.4006 55.41756,-51.52548 72.66703,-65.33581 9.42182,-7.54333 14.94237,-13.13347 15.99112,-16.19262 1.35574,-3.95456 1.64744,-4.13506 1.89978,-1.17508 0.26624,3.12313 0.75785,2.9666 4.59789,-1.46396 2.36488,-2.72855 4.70365,-6.19718 5.19726,-7.70807 0.68294,-2.09034 1.0534,-2.15581 1.54964,-0.27383 0.4657,1.7662 3.56594,-0.035 10.84433,-6.3003 5.6057,-4.82548 11.19484,-8.83303 12.4203,-8.9057 2.82057,-0.16726 2.55885,0.701 -0.75948,2.51962 -3.43585,1.88303 -9.37041,8.65247 -7.90939,9.02208 0.63104,0.15973 5.01811,-2.85061 9.74901,-6.68945 8.89899,-7.22101 18.94597,-14.14032 15.57052,-10.72336 -1.05562,1.06864 -4.10352,3.54677 -6.77308,5.50696 -8.95674,6.57668 -12.96308,10.34827 -11.48908,10.81585 0.8047,0.25526 4.81828,-2.29745 8.91899,-5.67273 8.38662,-6.90295 39.25279,-18.97001 46.80122,-18.29682 2.65234,0.23655 17.1882,-2.99378 20.06516,-4.45909 3.62219,-1.84491 14.12338,-9.66759 14.66803,-10.92671 1.54679,-3.57597 5.18517,-6.69765 6.29775,-5.40337 0.88445,1.02892 1.30229,0.54074 1.18792,-1.38804 -0.0988,-1.66673 0.33228,-2.38346 0.98025,-1.62966 0.63617,0.74007 5.70049,-2.78114 11.25407,-7.82491 5.55356,-5.04377 10.74991,-9.21866 11.54742,-9.27756 0.79751,-0.059 1.84918,-1.25642 2.33707,-2.6611 0.48792,-1.40469 3.48537,-5.13348 6.6611,-8.28619 5.1395,-5.10224 5.77409,-5.3324 5.77457,-2.09427 3.8e-4,2.49626 -1.98326,5.3084 -6.32107,8.9611 -3.47689,2.92777 -10.27222,9.42887 -15.10074,14.4469 -17.06947,17.73942 -38.40752,32.48541 -50.70999,35.04394 -9.55377,1.98686 -16.63254,2.95251 -24.37737,3.32543 -7.4486,0.35868 -50.18218,23.75463 -68.30632,37.39665 -7.63099,5.74383 -23.94243,19.11565 -36.24763,29.71515 -12.30519,10.5995 -25.14765,21.45387 -28.53879,24.12081 -3.39114,2.66696 -8.4586,7.18388 -11.26103,10.0376 -2.8024,2.85371 -11.65957,10.43441 -19.68259,16.84597 -13.85791,11.07448 -14.56253,11.91429 -14.09176,16.79513 0.69697,7.22615 -0.62508,10.68373 -4.09916,10.72066 -1.64297,0.0175 -5.48638,0.30533 -8.54088,0.63969 -6.56415,0.7186 -9.13345,0.10656 -8.46034,-2.01531 z m 18.91809,-6.00778 c 0.25375,-0.79996 -0.23418,-1.6751 -1.08431,-1.94479 -0.85013,-0.26967 -1.88968,0.59407 -2.31012,1.91943 -0.42043,1.32536 0.0675,2.20053 1.08431,1.94479 1.0168,-0.25574 2.05635,-1.11947 2.31012,-1.91943 z m 63.0075,-62.63243 c 6.12298,-6.54429 4.89069,-7.37408 -1.74351,-1.17404 -2.98155,2.78641 -4.80976,5.26012 -4.0627,5.49711 0.74708,0.23698 3.35987,-1.7084 5.80621,-4.32307 z m -81.75363,60.33082 c -0.23436,-0.93179 -3.10233,-2.2898 -6.37329,-3.0178 -4.46269,-0.99322 -8.54202,-3.8458 -16.34232,-11.42778 -5.71731,-5.55727 -10.63675,-11.06493 -10.9321,-12.23924 -0.29533,-1.1743 0.16734,-5.94322 1.02816,-10.59758 1.82311,-9.85743 4.68359,-12.55118 11.14986,-10.49994 3.90527,1.23885 5.82572,-0.10706 21.3058,-14.93198 18.32334,-17.54783 54.50223,-54.34774 75.90759,-77.21064 7.28744,-7.78367 20.36617,-23.39132 29.0638,-34.68365 14.11264,-18.32276 16.26049,-21.88935 19.96511,-33.15311 2.28327,-6.94183 4.85774,-16.56924 5.72128,-21.39414 1.40291,-7.83868 1.75926,-8.47795 3.3475,-6.00494 0.9776,1.52219 2.50901,6.56255 3.40312,11.20078 l 1.62568,8.43316 -2.50113,-5.8971 -2.50115,-5.89711 -2.13633,10.38029 c -2.42995,11.8069 -2.23963,11.0436 -3.65918,14.67601 -0.58845,1.50597 -1.62923,2.08757 -2.31269,1.29249 -0.73146,-0.85092 -1.92113,0.65492 -2.89197,3.66057 -3.62916,11.23572 -13.52295,25.80896 -27.03037,39.81515 -13.89698,14.41013 -16.27259,17.5749 -13.78486,18.36406 1.63999,0.52024 7.10814,-5.45795 8.23156,-8.99934 0.46673,-1.47133 2.61757,-3.42494 4.77964,-4.34139 4.58989,-1.94554 4.47578,-0.6839 -0.3392,3.75074 -1.88913,1.73992 -4.05847,5.04397 -4.8207,7.34236 -0.84764,2.55585 -2.78213,4.43902 -4.98078,4.84869 -1.97718,0.36841 -4.65836,2.41564 -5.95817,4.5494 -1.29983,2.13377 -2.91105,4.08861 -3.5805,4.34409 -0.66944,0.25547 -4.57744,3.29334 -8.68447,6.7508 -7.31813,6.1607 -11.1508,12.10982 -7.15404,11.10461 1.73844,-0.43724 -1.78125,3.89724 -8.29468,10.21479 -1.09041,1.05762 -6.57182,6.36892 -12.18089,11.80289 -11.26249,10.91091 -12.42492,12.54786 -7.55564,10.64014 1.8112,-0.7096 -0.0114,1.29859 -4.05024,4.46266 -4.03884,3.16406 -9.04253,7.70121 -11.11932,10.08253 l -3.77597,4.32969 1.35405,-4.47826 1.35407,-4.47827 -4.05137,2.77201 c -5.00599,3.42506 -14.77834,13.68257 -15.6483,16.42502 -0.35386,1.11552 -1.37074,1.60609 -2.25972,1.09018 -3.27665,-1.90163 -3.93072,2.31019 -1.3335,8.58704 1.76762,4.27197 1.95847,6.46873 0.56373,6.48905 -3.88993,0.0567 -2.88894,2.33502 1.65986,3.778 4.45588,1.41351 4.49083,1.37775 3.27719,-3.35525 l -1.2267,-4.78397 2.76335,4.42407 c 1.51986,2.43324 4.99403,6.44207 7.72041,8.9085 4.50227,4.07302 6.2013,6.72965 3.41153,5.3343 -3.42183,-1.7115 -6.74537,-1.70306 -6.31301,0.016 0.27316,1.08612 1.56309,1.91152 2.86652,1.83425 1.30341,-0.0772 2.56996,0.65498 2.81451,1.62744 1.24591,4.95382 -14.54371,-5.03034 -18.76509,-11.86561 -2.5499,-4.12881 -2.60838,-5.23605 -0.35309,-6.68447 2.24599,-1.44242 2.24981,-2.32894 0.0226,-5.24291 -1.47423,-1.92883 -3.59872,-3.19001 -4.72104,-2.8026 -1.12234,0.38739 -4.44222,0.0982 -7.3775,-0.64257 -2.9353,-0.74083 -6.00412,-1.17914 -6.81963,-0.97403 -1.92093,0.48313 -1.65814,10.44944 0.29183,11.06801 0.81715,0.25922 1.27647,-0.36064 1.02073,-1.37743 -1.03626,-4.12024 0.81349,-1.09987 2.69318,4.39758 l 2.01133,5.88252 -3.21081,-3.94163 c -1.76596,-2.16789 -3.8557,-3.60734 -4.64387,-3.1988 -1.72072,0.89195 3.7467,9.03246 5.73125,8.53333 0.76229,-0.19171 2.79622,1.38262 4.51983,3.49851 1.7236,2.11592 3.69637,3.55555 4.38389,3.19915 0.68754,-0.35639 -0.20452,-1.84288 -1.98237,-3.30329 -1.77783,-1.46044 -2.2638,-2.39661 -1.07998,-2.08038 1.74291,0.46559 1.92436,0.0129 0.95366,-2.37878 -0.65932,-1.62456 2.01837,0.94736 5.95046,5.71538 3.93208,4.76801 7.77066,8.67486 8.53016,8.68188 0.75951,0.008 1.13666,0.78271 0.83813,1.72381 -0.31183,0.98299 0.72581,1.63582 2.43859,1.53427 1.63976,-0.0973 2.33638,0.15752 1.54807,0.56613 -0.7883,0.40863 -0.51753,2.04174 0.60183,3.62917 1.13234,1.60591 1.2116,2.649 0.17866,2.35143 -1.02108,-0.2941 -2.04822,-1.29718 -2.28258,-2.229 z m -13.12256,-42.43113 c 1.89569,-1.21744 2.15249,-2.01318 1.05992,-3.28419 -1.33673,-1.55508 -4.9827,0.22887 -5.88318,2.87861 -0.64324,1.89263 2.14299,2.12693 4.82326,0.40558 z m 5.17319,-7.86717 c 0.79509,-0.68345 0.70902,-1.47631 -0.19128,-1.76191 -0.90031,-0.28559 -1.85757,0.17629 -2.12725,1.02642 -0.26968,0.85013 -0.18359,1.643 0.19129,1.76192 0.3749,0.11886 1.33215,-0.34298 2.12724,-1.02643 z m 31.86987,-23.06413 c 0.27331,-0.849 -0.9536,-0.5177 -2.72521,0.73657 -1.77164,1.25426 -3.54046,3.37259 -3.93074,4.70739 -0.7725,2.64199 5.78012,-2.71743 6.65595,-5.44396 z m 12.47335,-15.86325 c 3.41552,-3.26784 8.96335,-8.26301 12.32849,-11.10041 3.3651,-2.83738 6.2582,-6.39777 6.42906,-7.91198 0.31386,-2.78139 -21.41842,16.13785 -27.67695,24.09442 -2.80685,3.56841 -2.83865,3.88075 -0.25173,2.47199 1.62857,-0.88689 5.7556,-4.28621 9.17113,-7.55402 z m 40.02906,-43.61182 c 3.44275,-3.81075 4.07902,-5.0579 2.85222,-5.59049 -0.54421,-0.23626 -2.5637,1.41976 -4.48772,3.68007 -3.98738,4.68424 -2.47086,6.4557 1.6355,1.91042 z m -70.63626,127.72603 c -1.10751,-1.34222 -1.10544,-2.0102 0.005,-1.67354 1.01639,0.30885 2.05763,1.39224 2.31335,2.40904 0.57726,2.29524 0.0422,2.12549 -2.31852,-0.7355 z m 17.0033,-11.97039 c -0.0631,-1.22997 1.38991,-5.20399 3.22894,-8.83114 1.83902,-3.62718 3.03158,-5.30895 2.65013,-3.7373 -0.43695,1.80057 0.14915,2.68076 1.58461,2.37963 1.8225,-0.38234 1.75965,-0.1842 -0.31429,0.99077 -1.42584,0.80774 -2.92145,2.50583 -3.32357,3.77347 -0.55298,1.74317 0.084,1.75868 2.614,0.0637 2.72497,-1.82566 2.54682,-1.3905 -0.96093,2.34717 -5.38204,5.73483 -5.34046,5.71195 -5.47889,3.01373 z m -46.90168,-17.87217 c -1.47658,-2.30861 -1.91571,-3.97901 -0.97583,-3.712 0.93987,0.26702 2.52651,2.27597 3.52586,4.46433 2.32491,5.09109 0.9228,4.67743 -2.55005,-0.75224 z m 31.55451,-18.11707 c 0.26968,-0.85013 1.49553,-2.37515 2.72415,-3.38891 1.22861,-1.01378 2.01318,-1.14767 1.74351,-0.29755 -0.26969,0.85013 -1.49555,2.37516 -2.72416,3.38891 -1.22862,1.01378 -2.01318,1.14767 -1.7435,0.29755 z m 27.35679,-27.04763 c 0.2733,-0.84898 2.93436,-3.06705 5.91365,-4.92898 2.9793,-1.86192 4.26924,-2.21828 2.86652,-0.7919 -3.81157,3.87591 -9.34714,7.48269 -8.78017,5.72088 z m 27.33613,-32.90807 c 0.25376,-0.79995 1.2838,-1.66132 2.28895,-1.9141 1.04797,-0.26357 1.11025,0.43909 0.14609,1.64715 -1.87701,2.35182 -3.14034,2.49031 -2.43504,0.26695 z m 66.60266,-0.37972 c 0.64545,-1.77709 1.12783,-2.02719 1.23009,-0.63761 0.0926,1.25742 -0.38526,2.57317 -1.06174,2.92388 -0.67657,0.35068 -0.75228,-0.67813 -0.16827,-2.28624 z m -18.84742,-48.26735 c 0.3886,-1.22502 1.4609,-2.41702 2.38286,-2.6489 0.92199,-0.23189 0.87069,0.85498 -0.11404,2.41528 -2.08871,3.30976 -3.28373,3.43282 -2.26889,0.23362 z m 14.77383,-29.43838 c 0.8406,-2.54038 1.45858,-3.28672 1.3734,-1.6585 -0.0852,1.62822 -0.77289,3.70674 -1.5283,4.61888 -0.75537,0.91216 -0.68567,-0.42001 0.15485,-2.9604 z m 64.67152,23.12798 c -0.24657,-0.98035 3.11868,-2.68143 7.47834,-3.78012 4.35966,-1.09872 11.5097,-3.64269 15.88896,-5.6533 l 7.96233,-3.65566 -7.28831,4.2124 c -4.00856,2.31681 -11.00299,5.06683 -15.54315,6.11116 l -8.25485,1.89881 4.31993,2.46118 c 4.28302,2.44017 4.28388,2.45149 0.10249,1.32462 -2.3196,-0.62509 -4.41918,-1.93871 -4.66574,-2.91909 z m 22.16707,5.16248 c 7.12411,-1.22659 15.94643,-5.40409 23.53142,-11.14247 3.03183,-2.29369 2.72138,-1.67903 -1.32439,2.62209 -3.71102,3.94524 -8.28104,6.42133 -15.34802,8.3158 -5.53491,1.48376 -10.95605,2.4146 -12.04695,2.06854 -1.09091,-0.34606 1.24366,-1.18484 5.18794,-1.86396 z m 42.11433,-9.14783 c 1.06401,-1.34027 2.20044,-1.92394 2.52537,-1.29709 0.32494,0.62687 -0.54563,1.72343 -1.93458,2.43684 -2.0072,1.03092 -2.12842,0.79707 -0.59079,-1.13975 z m 5.27405,1.96268 c 0.41767,-1.58012 11.05507,-13.29634 11.84464,-13.04586 0.39672,0.12584 -1.06333,2.3349 -3.24456,4.909 -4.56993,5.39316 -8.97697,9.56282 -8.60008,8.13686 z m -26.4135,-14.43571 c 1.25742,-0.0926 2.57316,0.38526 2.92388,1.06175 0.35069,0.67655 -0.67813,0.75226 -2.28624,0.16828 -1.77711,-0.64545 -2.02719,-1.12783 -0.63763,-1.2301 z m 25.14723,7.53855 c 0.25377,-0.79995 1.28381,-1.66131 2.28896,-1.9141 1.04796,-0.26357 1.11024,0.4391 0.14607,1.64716 -1.877,2.35182 -3.14033,2.4903 -2.43503,0.26694 z m 10.30617,-10.34213 c 1.66523,-2.22446 4.35152,-4.58174 5.96953,-5.23841 1.94118,-0.78786 1.09378,0.64572 -2.49135,4.2146 -6.35173,6.32298 -7.75424,6.73581 -3.47818,1.02381 z m -20.37967,-18.33586 c 0.14327,-2.7843 0.53584,-3.32396 1.31899,-1.8131 0.61328,1.18313 0.5215,2.96705 -0.20395,3.96424 -0.75311,1.03524 -1.23149,0.11239 -1.11504,-2.15114 z m 15.70131,0.59135 c 0.26967,-0.85011 2.03597,-2.96924 3.92512,-4.70915 1.88914,-1.73992 3.21415,-2.46793 2.94448,-1.6178 -0.26968,0.85014 -2.03599,2.96925 -3.92514,4.70917 -1.88913,1.73991 -3.21415,2.46791 -2.94446,1.61778 z m 38.83618,-2.03435 c -2.8e-4,-1.8129 1.11325,-4.33049 2.47453,-5.59462 1.36125,-1.26413 6.77713,-7.05814 12.03526,-12.87554 5.25814,-5.81741 9.60357,-9.53283 9.65652,-8.2565 0.11086,2.6728 7.13329,-3.49025 33.24032,-29.17254 3.59611,-3.53761 7.05418,-6.65118 7.68461,-6.91903 0.63039,-0.26786 3.23615,-2.43047 5.79052,-4.80582 2.55442,-2.37535 6.71685,-5.42206 9.24986,-6.77049 2.53302,-1.34841 5.05681,-3.87442 5.60844,-5.61331 0.55161,-1.73889 1.69848,-2.94098 2.54862,-2.67131 0.85012,0.26969 1.78742,-0.27174 2.0829,-1.20318 0.29547,-0.93142 2.61653,-3.25734 5.15792,-5.16869 5.6154,-4.22331 4.89279,-4.59858 -4.24898,-2.20659 -12.34713,3.23064 -35.23113,1.98459 -36.22639,-1.97258 -0.25808,-1.02618 0.75057,-1.9381 2.24141,-2.02652 4.66384,-0.27654 3.65879,-2.33741 -2.15872,-4.42647 -5.77152,-2.07253 -11.16387,-0.0485 -10.91798,4.09832 0.0688,1.15882 -1.51198,2.41197 -3.51263,2.78474 -5.22911,0.97432 -11.21292,-1.30211 -11.39271,-4.33416 -0.18755,-3.16289 -7.88663,-5.88991 -11.50198,-4.07398 -2.10506,1.05735 -1.99302,0.0492 0.59357,-5.3407 3.14727,-6.55816 3.11121,-6.78549 -2.78864,-17.58242 -4.69917,-8.59965 -5.65684,-11.94801 -4.47916,-15.6605 l 1.49795,-4.72213 -9.58503,-2.29461 c -12.29029,-2.94224 -12.61243,-4.36989 -5.5005,-24.37531 5.07203,-14.26726 5.59626,-18.52288 1.67681,-13.61195 -0.94261,1.18102 -2.13706,3.48156 -2.65436,5.11228 -0.51729,1.63071 -1.59341,2.56647 -2.39132,2.07943 -0.79793,-0.48704 -3.88263,1.39381 -6.85487,4.17965 -2.97226,2.78586 -6.16977,5.5993 -7.1056,6.2521 -0.93582,0.6528 -10.11543,8.34063 -20.39913,17.08406 -16.15471,13.73508 -18.53455,16.33504 -17.49854,19.1169 1.05842,2.84192 0.9738,2.89056 -0.72115,0.41427 -1.05615,-1.543 -1.80511,-4.68272 -1.66432,-6.97714 0.15444,-2.51755 -0.56889,-3.96423 -1.82425,-3.6485 -1.26946,0.31927 -1.42972,-0.0359 -0.41119,-0.91148 0.91793,-0.78906 1.06119,-1.62745 0.31836,-1.8631 -0.74285,-0.23564 -3.38346,1.74426 -5.86804,4.39977 -4.30853,4.60501 -4.35942,4.76583 -1.0996,3.47896 2.64009,-1.04295 2.06449,-0.0388 -2.53275,4.4186 -3.2721,3.17256 -7.70336,7.0376 -9.84722,8.58897 -4.25216,3.077 -6.32358,7.85673 -5.22195,12.04942 0.52451,1.99612 3.08746,0.11721 10.09848,-7.40329 5.16755,-5.54308 10.21642,-10.2848 11.21971,-10.53713 1.00328,-0.25232 -3.34816,4.84755 -9.66988,11.33301 -6.32241,6.48529 -11.8301,12.84883 -12.24002,14.14101 -0.4099,1.29219 -1.27104,2.18263 -1.91364,1.97878 -0.6426,-0.20385 -2.72767,1.39331 -4.63349,3.54923 -2.62536,2.96991 -3.31998,4.91404 -2.86626,8.02221 0.54508,3.73388 0.47736,3.79085 -0.7541,0.63419 -1.241,-3.18117 -2.56268,-2.37537 -15.9707,9.73694 -8.03974,7.26278 -15.59915,13.45192 -16.79866,13.7536 -1.19951,0.3017 -0.10986,-1.03801 2.42133,-2.97711 2.53126,-1.93909 9.34378,-8.14591 15.13895,-13.79297 5.79515,-5.64705 11.35126,-10.73624 12.34686,-11.3093 0.99561,-0.57307 2.20735,-2.29394 2.69277,-3.82417 0.48542,-1.53024 1.52288,-2.57913 2.30545,-2.33087 2.13223,0.67638 6.3372,-7.46897 6.86983,-13.3073 l 0.46808,-5.13074 -7.70118,5.80072 c -12.04394,9.07183 -59.19362,56.01046 -60.54662,60.27565 -0.41045,1.2939 -1.63128,2.57512 -2.71292,2.84716 -2.0864,0.52475 2.91162,-10.27126 5.17756,-11.18383 0.64982,-0.2617 6.55884,-6.04276 13.13116,-12.8468 18.61927,-19.27573 41.84978,-41.79936 60.15411,-58.3237 15.60279,-14.08551 36.123,-33.47941 57.95047,-54.76967 5.06704,-4.94235 13.15004,-12.09703 17.96221,-15.8993 4.81215,-3.80227 8.97274,-7.61732 9.24572,-8.47786 1.12101,-3.53383 25.63954,-15.2566 45.79791,-21.89683 34.23367,-11.27665 93.63996,-34.92409 98.25477,-39.11156 1.05631,-0.95847 4.37512,-0.95153 7.42363,0.0155 5.21687,1.6549 5.38916,1.96107 3.20447,5.69491 -3.79284,6.48228 -9.60369,21.24378 -6.39994,16.258 1.59356,-2.47995 0.0586,3.08253 -3.69844,13.40218 l -6.42268,17.64173 3.35679,4.91491 c 3.21806,4.71181 3.2928,7.51947 0.62351,23.42329 -0.30571,1.82161 -0.3262,4.22529 -0.0454,5.34149 0.53273,2.11817 -30.78427,37.51023 -37.98011,42.92218 -4.0321,3.03251 -4.07424,3.17563 -1.74163,5.91499 1.31472,1.544 2.15862,3.53799 1.87531,4.43108 -0.28331,0.89309 -1.01365,1.04387 -1.62297,0.33501 -1.0443,-1.21487 -6.61762,8.88753 -5.87053,10.64114 0.66556,1.56226 2.38161,-0.24911 4.02408,-4.24766 0.90771,-2.20984 2.27166,-3.82079 3.03097,-3.57993 0.75933,0.24088 0.10148,2.82088 -1.4618,5.73336 l -2.84241,5.29538 10.34148,2.38957 c 5.68781,1.31426 10.562,2.81503 10.83155,3.33499 0.80171,1.54667 -4.9772,7.47762 -18.78081,19.27499 -14.99724,12.81752 -25.89663,22.76918 -53.19069,48.56559 -10.74765,10.1579 -25.10367,23.59435 -31.90227,29.85877 -6.79862,6.26442 -13.91537,13.00207 -15.81498,14.97258 -4.06792,4.21974 -5.81433,4.08089 -5.81502,-0.46232 z m 43.05641,-103.29401 c -0.0671,-1.13236 0.81599,-2.13521 1.96271,-2.2285 1.49747,-0.1219 1.5933,-0.88656 0.34016,-2.71435 -1.44752,-2.1113 -1.27959,-2.18398 0.986,-0.42674 5.78142,4.48417 10.4137,5.94156 20.88636,6.57118 5.96574,0.35866 12.20476,1.09478 13.8645,1.63582 5.53267,1.80338 15.06317,-1.71807 16.65492,-6.15401 1.28222,-3.57333 1.46022,-3.63869 1.44414,-0.53033 -0.0175,3.38854 0.21344,3.39462 5.22087,0.13755 l 5.2392,-3.40785 -7.46695,-1.19221 c -6.40725,-1.02302 -7.4261,-1.61359 -7.17901,-4.16115 0.15839,-1.63291 1.90333,-4.91998 3.87765,-7.30457 4.26161,-5.14718 6.70051,-11.96418 4.52709,-12.65364 -5.75445,-1.82545 15.64394,-33.51368 27.45173,-40.65247 4.49513,-2.7177 10.17666,-13.57003 9.60015,-18.33736 -0.38823,-3.21036 0.339,-4.81255 3.26705,-7.19769 4.96654,-4.04575 4.9801,-3.95021 -1.01619,-7.1688 -7.36563,-3.95366 -7.67484,-10.52425 -1.31639,-27.97424 2.70582,-7.42581 6.40259,-15.13954 8.21505,-17.14166 5.91037,-6.52885 2.15147,-6.45294 -11.79258,0.23811 -29.20117,14.01227 -48.4973,21.89861 -51.35949,20.99066 -0.62499,-0.19827 -11.54057,3.24913 -24.2568,7.66089 -12.71626,4.41176 -25.09986,8.26076 -27.51914,8.55331 -4.9905,0.60351 -7.7318,4.23719 -17.93105,23.76807 -6.1633,11.8023 -7.82106,17.07937 -9.8139,31.2395 -0.86195,6.12484 0.19388,7.55471 6.11317,8.27888 3.81412,0.46662 5.41891,1.26953 5.02423,2.51373 -0.31896,1.00546 0.13246,3.20242 1.00313,4.88214 0.87065,1.67971 1.17187,4.35015 0.66933,5.93435 -0.50254,1.58419 -0.72774,5.09445 -0.50045,7.80057 0.22728,2.70611 -0.005,5.74461 -0.51531,6.75219 -0.81769,1.61329 1.97445,3.60327 5.80965,4.14055 2.74692,0.38485 4.29987,6.2688 2.8559,10.82074 -1.01179,3.1895 -0.74515,4.98883 0.81253,5.48295 1.82312,0.57834 2.99952,-1.41129 5.50563,-9.31147 2.6868,-8.46978 2.77141,-10.20981 0.53904,-11.08434 -2.48448,-0.9733 -2.46911,-1.02826 0.24865,-0.88998 2.47075,0.12571 2.4076,-1.3038 -0.4293,-9.72091 -4.23332,-12.56025 -5.04047,-16.8386 -1.85992,-9.85871 1.36177,2.98847 3.11889,5.10029 3.90473,4.69296 0.78584,-0.40734 0.68059,0.19688 -0.23389,1.34269 -0.96447,1.20843 -0.58002,4.38166 0.91547,7.55642 1.418,3.01023 2.3689,6.13287 2.11312,6.93918 -0.25578,0.80633 0.74545,1.87333 2.22498,2.37113 2.56192,0.86207 2.53746,0.93917 -0.51468,1.6225 -2.43184,0.54438 -3.84928,2.74922 -5.87718,9.14188 -2.89419,9.12358 -2.82983,9.30162 3.00304,8.31537 3.23656,-0.54723 3.47309,-0.41242 1.346,0.76723 -4.00349,2.22029 -3.78831,4.03684 0.35236,2.97485 2.04917,-0.52556 3.67082,-1.88205 3.60367,-3.01442 z m -2.09906,-6.30827 c 0.67418,-2.12532 1.30084,-2.88346 1.39254,-1.68479 0.0917,1.19869 -0.45992,2.93758 -1.22582,3.86421 -0.76589,0.92665 -0.84092,-0.054 -0.16672,-2.17942 z m 26.36445,-1.82524 c 1.22091,-3.04411 0.59278,-4.43485 -3.31268,-7.33443 -2.65059,-1.96792 -3.80441,-3.29932 -2.56404,-2.95867 1.66212,0.45647 1.67066,-0.2756 0.0325,-2.78389 -1.22249,-1.8718 0.0535,-0.92547 2.83552,2.10295 2.78201,3.02842 5.11518,6.13106 5.1848,6.89475 0.0697,0.76371 1.112,1.70113 2.31632,2.08318 3.46124,1.09797 7.19692,-12.30798 4.09763,-14.70484 -3.59374,-2.77927 -15.15304,-15.93642 -13.61159,-15.49311 1.73447,0.49884 17.00955,15.93229 17.63429,17.81719 0.262,0.7904 -0.96012,4.63146 -2.71571,8.53577 -2.4929,5.54373 -3.72688,6.82624 -5.63344,5.85494 -1.34273,-0.68407 -3.19031,-0.12178 -4.1057,1.24943 -1.00175,1.50055 -1.06457,0.99763 -0.15782,-1.26326 z m -22.93105,-9.84482 c 0.40451,-1.2752 1.31511,-2.13466 2.02355,-1.90993 0.70844,0.22474 0.95711,1.45194 0.55258,2.72714 -0.40451,1.27519 -1.31512,2.13466 -2.02357,1.90992 -0.70842,-0.22473 -0.95709,-1.45194 -0.55256,-2.72713 z m 9.77085,3.83696 c -0.8097,-3.21944 1.26581,-3.18845 2.57547,0.0384 0.75316,1.85574 0.58909,2.77985 -0.43585,2.45471 -0.90405,-0.28679 -1.86687,-1.4087 -2.13962,-2.49315 z m 27.4885,7.84075 c 0.64544,-1.77709 1.12782,-2.02717 1.23008,-0.63761 0.0926,1.25742 -0.38525,2.57316 -1.06174,2.92388 -0.67654,0.35068 -0.75227,-0.67813 -0.16828,-2.28624 z m 8.09459,-3.24475 c 0.94388,-2.97544 1.64811,-4.09177 1.56497,-2.48071 -0.0832,1.61105 -0.85543,4.0455 -1.71614,5.4099 -0.86074,1.36439 -0.7927,0.0463 0.15117,-2.92919 z m -64.77407,-18.27198 c 1.19867,-0.0917 2.93757,0.45993 3.86422,1.22581 0.92663,0.7659 -0.0542,0.84093 -2.17943,0.16673 -2.12532,-0.6742 -2.88348,-1.30085 -1.68479,-1.39254 z m 59.306,16.96269 c -0.0904,-0.73045 1.27022,-4.31797 3.02367,-7.97227 l 3.18822,-6.64415 -2.34205,8.1885 c -2.1636,7.56449 -3.46188,9.72102 -3.86984,6.42792 z m -36.81253,-13.46019 c -0.98782,-3.9276 3.0421,-3.56947 7.2388,0.64329 4.15351,4.16939 1.62987,3.33271 -4.48566,-1.48723 -1.2233,-0.9641 -1.72628,-0.72869 -1.38051,0.64615 0.29919,1.18961 0.1962,2.05257 -0.22887,1.91773 -0.42505,-0.13484 -0.93975,-0.90882 -1.14375,-1.71998 z m -6.33906,-4.39696 c 0.39144,-1.46678 -0.28066,-3.76196 -1.4935,-5.10043 -3.25822,-3.59566 -0.86444,-2.4734 4.2729,2.00323 2.46657,2.14933 3.31675,3.56737 1.8893,3.15117 -1.42741,-0.41621 -3.22197,0.001 -3.98784,0.92809 -0.85327,1.03235 -1.11695,0.65205 -0.68086,-0.98206 z m 13.90407,1.36846 c -0.26358,-1.04796 0.4391,-1.11025 1.64716,-0.14608 2.35181,1.877 2.49029,3.14033 0.26694,2.43504 -0.79996,-0.25377 -1.66131,-1.28381 -1.9141,-2.28896 z m -6.26279,-7.10985 c -2.01458,-2.49809 -2.97077,-4.31045 -2.12486,-4.02746 1.54207,0.51593 8.03521,9.20574 6.56825,8.79041 -0.42947,-0.12089 -2.42881,-2.26485 -4.44339,-4.76295 z m 40.68446,6.39747 c -0.21118,-0.83965 -8.58893,-8.25197 -18.61725,-16.47183 -10.02831,-8.21985 -17.88279,-15.12686 -17.45439,-15.34891 1.28578,-0.66651 35.23342,27.89152 36.92012,31.05857 0.85862,1.61227 1.10538,2.78681 0.54832,2.61009 -0.55706,-0.1767 -1.18562,-1.00827 -1.3968,-1.84792 z m -61.53008,-24.49343 c -1.14494,-3.06145 -1.07293,-3.0988 0.76872,-0.39848 1.93418,2.836 2.35032,4.36506 1.07816,3.9615 -0.32095,-0.10187 -1.15205,-1.70518 -1.84688,-3.56302 z m -17.12799,-5.31959 c 1.25743,-0.0926 2.57319,0.38526 2.92388,1.06174 0.35069,0.67655 -0.67813,0.75227 -2.28623,0.16827 -1.77711,-0.64544 -2.02718,-1.12781 -0.63762,-1.23007 z m 45.27011,13.82153 c -1.01377,-1.22862 -1.14766,-2.01317 -0.29754,-1.74349 0.85012,0.26968 2.37514,1.49553 3.38891,2.72415 1.01378,1.22861 1.14767,2.01318 0.29754,1.7435 -0.85014,-0.26968 -2.37515,-1.49554 -3.38891,-2.72416 z m 15.45686,4.90326 c -1.01376,-1.22862 -1.14766,-2.01318 -0.29753,-1.7435 0.85013,0.26968 2.37514,1.49552 3.38891,2.72415 1.01377,1.22861 1.14766,2.01318 0.29752,1.7435 -0.85011,-0.26968 -2.37512,-1.49554 -3.3889,-2.72415 z m -6.74778,-5.543 c -1.01377,-1.22861 -1.14767,-2.01318 -0.29754,-1.7435 0.85013,0.26967 2.37515,1.49554 3.38891,2.72414 1.01377,1.22861 1.14767,2.01319 0.29755,1.74351 -0.85013,-0.26968 -2.37516,-1.49554 -3.38892,-2.72415 z m -10.8945,-8.55967 c -1.01378,-1.22861 -1.14768,-2.01318 -0.29756,-1.74349 0.85013,0.26967 2.37515,1.49553 3.38892,2.72414 1.01376,1.22862 1.14767,2.01319 0.29754,1.74352 -0.85013,-0.26968 -2.37515,-1.49554 -3.3889,-2.72417 z m 38.07538,6.12405 c -0.62059,-2.53606 -1.62781,-6.65641 -2.23831,-9.15633 -0.61048,-2.49993 -0.77691,-5.59527 -0.36982,-6.87855 0.83109,-2.61991 -3.48474,-7.32145 -15.66774,-17.06797 -4.55809,-3.64651 -7.39341,-6.38384 -6.30067,-6.08292 1.09275,0.30086 5.75602,3.67792 10.36288,7.50447 5.39569,4.48181 8.76893,6.4174 9.4801,5.43981 0.62029,-0.85268 1.59486,0.048 2.22429,2.05535 0.61614,1.96512 3.74248,5.36029 6.94745,7.54482 3.20494,2.18453 5.40695,4.1897 4.89332,4.45592 -0.51361,0.26625 -2.63267,-0.86322 -4.70904,-2.50993 -2.07635,-1.6467 -4.1278,-2.81121 -4.55876,-2.58784 -1.79601,0.93097 -0.24632,6.11821 2.38186,7.97281 1.9883,1.40306 2.15799,2.17117 0.56805,2.57105 -1.74582,0.43907 -2.04469,1.86672 -1.29939,6.20673 1.15275,6.71266 -0.10617,7.1038 -1.71422,0.53258 z m -37.65242,-20.12374 c -10.40431,-8.08868 -18.18669,-14.71735 -17.29418,-14.73035 1.98385,-0.0289 22.03005,14.99451 31.98965,23.9743 11.27776,10.16828 6.0195,6.86064 -14.69547,-9.24395 z m 20.38243,-3.32052 c -5.61706,-4.41489 -9.43846,-7.82943 -8.49196,-7.58787 2.19584,0.56046 16.53612,11.1803 19.47538,14.42276 3.67939,4.05896 -0.17439,1.66078 -10.98342,-6.83489 z m -43.26376,-14.78338 c 1.25743,-0.0926 2.57317,0.38527 2.92388,1.06175 0.35068,0.67655 -0.67813,0.75226 -2.28624,0.16827 -1.77709,-0.64544 -2.02719,-1.12782 -0.63762,-1.23007 z m -5.69242,-3.50699 c 1.25742,-0.0926 2.57317,0.38526 2.92389,1.06175 0.35068,0.67656 -0.67813,0.75226 -2.28625,0.16827 -1.77709,-0.64545 -2.02718,-1.12782 -0.63763,-1.23008 z m 35.89169,-0.52297 c 1.25742,-0.0926 2.57318,0.38526 2.92389,1.06174 0.35067,0.67656 -0.67815,0.75228 -2.28625,0.16827 -1.77708,-0.64544 -2.02718,-1.1278 -0.63762,-1.23007 z m 24.3724,7.07916 c -0.27274,-1.08444 -0.0592,-2.19806 0.47447,-2.47471 0.53369,-0.27663 1.04174,0.70102 1.129,2.17256 0.18116,3.05522 -0.86157,3.25175 -1.60347,0.30215 z m -30.06483,-10.58615 c 1.25743,-0.0926 2.57318,0.38526 2.92389,1.06174 0.35068,0.67657 -0.67813,0.75228 -2.28624,0.16827 -1.7771,-0.64544 -2.02718,-1.1278 -0.63762,-1.23007 z m 48.85181,13.25652 c -1.10753,-1.34222 -1.10545,-2.01021 0.005,-1.67354 1.01641,0.30885 2.05764,1.39222 2.31337,2.40902 0.57726,2.29524 0.0421,2.1255 -2.31853,-0.73548 z M 542.06681,355.1865 c -1.32975,-1.68296 -0.65897,-1.62799 2.48722,0.20376 5.2801,3.07417 6.23318,4.35022 2.28866,3.06416 -1.62549,-0.52921 -3.77443,-2.00046 -4.77588,-3.26792 z m -5.66969,-4.58417 c 1.25742,-0.0926 2.57318,0.38526 2.92383,1.06189 0.3507,0.67655 -0.67813,0.75228 -2.28624,0.16828 -1.77708,-0.64545 -2.02718,-1.12781 -0.63761,-1.23011 z m 46.04644,11.37425 c -2.14139,-2.26646 -2.35789,-3.11613 -0.66111,-2.59475 1.38753,0.42658 3.05784,2.09326 3.71162,3.70417 1.39441,3.43569 1.16491,3.35224 -3.05051,-1.10941 z m -28.91857,-10.7331 c -2.61196,-2.08969 -3.70569,-3.4685 -2.4305,-3.06398 1.27521,0.40451 4.45559,2.44526 7.06756,4.53496 2.61197,2.08971 3.70569,3.46851 2.43049,3.06399 -1.27518,-0.40452 -4.45558,-2.44525 -7.06755,-4.53497 z m 16.13068,1.35309 c -3.62309,-2.63615 -6.17412,-5.00725 -5.66894,-5.26912 1.02442,-0.53099 15.04458,9.31707 14.72016,10.33978 -0.32008,1.00903 -1.95173,0.095 -9.05122,-5.07066 z m 23.49214,7.81367 c -1.73992,-1.88914 -2.41916,-3.22581 -1.50943,-2.97037 0.90973,0.25544 2.68027,1.91394 3.93455,3.68557 2.90061,4.09708 1.67379,3.73528 -2.42511,-0.71526 z M 545.0315,344.83519 c 1.25742,-0.0926 2.57318,0.38526 2.92383,1.0619 0.35068,0.67655 -0.67813,0.75227 -2.28624,0.16829 -1.77711,-0.64546 -2.02718,-1.12784 -0.63761,-1.23011 z m 35.36926,6.06629 c -3.6231,-2.63617 -6.21581,-4.98566 -5.76157,-5.22111 0.92951,-0.48181 15.0896,9.41916 14.79576,10.34543 -0.30214,0.95246 -2.02707,-0.0259 -9.03419,-5.12432 z m -24.95183,-8.40443 c -1.68292,-1.45544 -1.81284,-2.03716 -0.35144,-1.57357 1.27519,0.40451 3.52003,1.77456 4.98851,3.04454 1.68294,1.45544 1.81286,2.03717 0.35145,1.57357 -1.27519,-0.40452 -3.52003,-1.77455 -4.98852,-3.04454 z m 12.69929,-10.53686 c -5.75139,-3.99151 -9.29959,-6.93694 -7.88493,-6.54541 3.05925,0.84683 21.09037,13.18305 20.76552,14.20713 -0.31303,0.98677 -1.05488,0.54549 -12.88059,-7.66172 z m 3.4394,-8.1608 c -1.76051,-1.52252 -1.87105,-2.08749 -0.3245,-1.65853 1.29,0.35784 3.17493,1.65573 4.18871,2.88434 2.24623,2.72225 -0.19422,1.94809 -3.86421,-1.22581 z m -45.91263,135.46143 c 0.7348,-1.01008 0.13774,-1.57969 -1.55087,-1.47956 -1.5101,0.0896 -2.96106,0.84191 -3.22436,1.67193 -0.64448,2.03164 3.27208,1.87385 4.77523,-0.19237 z m 7.92552,0.37662 c 0.37836,-1.1927 -0.50721,-2.67162 -1.96793,-3.28649 -2.01089,-0.84644 -2.12289,-0.74982 -0.46119,0.39785 1.83031,1.26412 1.73172,1.81495 -0.59377,3.31759 -2.33634,1.50969 -2.37311,1.79677 -0.22673,1.77072 1.40896,-0.0171 2.87126,-1.00695 3.24962,-2.19967 z m 11.50128,1.28407 c 7.78505,-0.8976 13.72792,-3.05376 14.41869,-5.23133 0.24625,-0.77626 -2.32398,-0.51718 -5.71161,0.5757 -3.38764,1.09291 -6.52595,1.93615 -6.97403,1.87386 -3.53274,-0.49106 -10.53656,1.03772 -10.96673,2.3938 -0.29228,0.92134 0.0765,1.56878 0.81951,1.43875 0.74299,-0.13001 4.52937,-0.60287 8.41417,-1.05078 z M 409.11844,407.9336 c 1.22016,-2.18606 2.78023,-3.79644 3.46679,-3.57864 0.68658,0.21779 2.13113,-0.85507 3.21014,-2.38413 1.079,-1.52907 2.91141,-2.4789 4.07203,-2.11073 2.19474,0.69622 6.49778,-4.02251 6.91885,-7.58724 0.13317,-1.12736 1.16597,-1.75666 2.29515,-1.39848 2.7225,0.86364 10.62588,-6.30649 9.94323,-9.02072 -0.31164,-1.23911 0.008,-1.49841 0.76288,-0.61972 2.58404,3.00607 8.14213,-3.74433 9.73805,-11.82702 l 1.52073,-7.70201 -10.08867,8.48865 c -13.60215,11.44489 -27.27798,25.03959 -28.24009,28.07252 -0.43251,1.36343 -1.46406,2.26396 -2.29237,2.0012 -2.78038,-0.88199 -9.50823,7.33596 -9.79198,11.96071 -0.26461,4.31296 -0.20044,4.35671 2.9982,2.04376 1.79773,-1.29992 4.2669,-4.15211 5.48706,-6.33815 z m 75.96662,33.02971 c 0.79509,-0.68346 0.709,-1.47633 -0.19129,-1.76192 -0.9003,-0.28559 -1.85757,0.1763 -2.12724,1.02642 -0.26968,0.85013 -0.1836,1.643 0.19128,1.76192 0.37491,0.11886 1.33216,-0.34297 2.12725,-1.02642 z m 87.52275,5.64813 c 0.26969,-0.85012 0.18362,-1.64298 -0.19127,-1.7619 -0.3749,-0.11886 -1.33215,0.34297 -2.12725,1.02642 -0.79508,0.68346 -0.70901,1.47632 0.1913,1.76191 0.90029,0.28559 1.85755,-0.1763 2.12722,-1.02643 z m -9.34882,-8.06932 c 2.1771,-0.59445 1.85718,-1.06575 -1.44928,-2.13493 -2.33395,-0.75395 -4.46378,-0.67651 -4.73346,0.17363 -0.61997,1.95437 2.5386,2.95634 6.18274,1.9613 z m -92.81589,-34.5469 c 2.27136,-0.62019 2.16189,-0.9682 -0.58522,-1.86084 -1.8587,-0.60319 -4.0296,-0.53876 -4.82468,0.1447 -1.84053,1.58213 1.74043,2.71809 5.4099,1.71614 z m -8.96125,-12.62477 c 0.46919,-6.53016 -0.14084,-6.94816 -1.92624,-1.3199 -0.854,2.69209 -0.8439,5.11953 0.0224,5.39434 0.93508,0.29663 1.70868,-1.35902 1.90381,-4.07444 z m -7.52213,-19.11227 c 0.9426,-1.18102 2.13705,-3.48155 2.65435,-5.11227 0.5173,-1.63072 1.74529,-2.51829 2.72884,-1.97238 1.07355,0.59589 2.95633,-1.35665 4.71075,-4.88525 2.04248,-4.10793 2.65989,-4.68049 2.05044,-1.90139 -0.48644,2.21802 1.91177,-0.7827 5.42324,-6.78576 3.46243,-5.91922 7.19692,-11.53246 8.29891,-12.47387 1.35485,-1.15746 1.30224,-1.70145 -0.16257,-1.6801 -1.19138,0.0174 -4.51377,2.31157 -7.38308,5.09825 -2.86929,2.78668 -5.70744,5.29863 -6.30698,5.58212 -5.04587,2.38582 -11.95488,11.11113 -14.06472,17.76217 -2.37256,7.47917 -1.35574,10.63676 2.05082,6.36848 z m 147.47823,-0.6118 c 0.25847,-0.90877 -0.9795,-0.62606 -2.75112,0.62821 -1.77163,1.25427 -3.43268,3.024 -3.69119,3.93275 -0.25847,0.90878 0.97949,0.62606 2.75111,-0.62821 1.77165,-1.25426 3.43268,-3.02399 3.6912,-3.93275 z M 486.70273,336.65016 c 0.40452,-1.27519 -0.0964,-2.10931 -1.11324,-1.85357 -1.01679,0.25572 -2.17968,1.50829 -2.58421,2.78348 -0.40452,1.27518 0.0964,2.1093 1.11324,1.85357 1.0168,-0.25573 2.17969,-1.50829 2.58421,-2.78348 z m 20.65439,-5.43431 c 2.66328,-1.72163 2.55807,-1.82873 -1.12851,-1.14876 -4.20471,0.77555 -5.52607,1.86816 -3.16504,2.61712 0.74602,0.23667 2.67812,-0.4241 4.29355,-1.46836 z m 97.93135,12.20566 c 0.17553,-0.64608 -0.94779,-2.89348 -2.49628,-4.99424 -2.70053,-3.66363 -2.82218,-3.68859 -2.98049,-0.61129 -0.0908,1.76455 0.88424,3.87611 2.16673,4.69236 1.28246,0.81624 2.48005,1.61992 2.66131,1.78595 0.18123,0.16609 0.47317,-0.22672 0.64873,-0.87278 z m -1.35352,-17.01634 c 0.67419,-2.12532 0.53026,-4.08486 -0.31987,-4.35454 -1.72679,-0.54778 -3.73476,4.42243 -2.63997,6.53452 1.16336,2.24438 1.67614,1.86672 2.95984,-2.17998 z m -40.13977,-19.71534 c -0.35069,-0.67656 -1.66645,-1.15438 -2.92384,-1.06189 -1.38956,0.10224 -1.1395,0.58472 0.63762,1.23009 1.60812,0.58399 2.63693,0.50828 2.28625,-0.16828 z m 12.21292,-4.86981 c 0.35206,-1.10984 2.58875,-2.12742 4.9704,-2.26126 2.38164,-0.13384 4.52265,-0.84985 4.7578,-1.59112 0.23514,-0.74123 2.23197,-1.60604 4.43739,-1.92178 3.8108,-0.54554 3.85482,-0.62894 0.88637,-1.68001 -1.75382,-0.62103 -8.33804,1.32158 -15.01511,4.42998 -10.67197,4.96815 -11.31651,5.51062 -6.2843,5.28903 3.08403,-0.1358 5.89537,-1.15498 6.24745,-2.26484 z m 40.6865,-14.44613 c 1.28154,-0.66428 2.08255,-1.68528 1.78004,-2.2689 -0.77809,-1.50111 -11.3209,-1.02403 -11.81535,0.53468 -0.58034,1.82942 7.24331,3.18145 10.03531,1.73422 z M 425.05322,539.30467 c 1.16432,-1.03416 2.50999,-2.67773 2.99036,-3.65237 1.08117,-2.19366 20.89801,-21.09305 21.81273,-20.80288 0.36498,0.11581 -3.28549,4.21447 -8.11218,9.10823 -4.8267,4.89372 -9.10201,9.92605 -9.50073,11.18292 -0.3987,1.25687 -2.65592,3.13104 -5.01604,4.16481 -2.6255,1.15 -3.46941,1.14972 -2.17414,-7.1e-4 z m 9.43994,2.49587 c 1.06402,-1.34025 2.20044,-1.92394 2.52537,-1.29707 0.32494,0.62687 -0.54561,1.72343 -1.93457,2.43683 -2.0072,1.03092 -2.12842,0.79708 -0.5908,-1.13976 z m 5.61772,-1.62039 c 1.06401,-1.34026 2.20043,-1.92394 2.52537,-1.29708 0.32493,0.62687 -0.54564,1.72343 -1.93459,2.43684 -2.00719,1.03091 -2.12841,0.79706 -0.59078,-1.13976 z M 322.46894,483.79614 c 4.20493,-4.21513 7.23196,-6.33121 6.69581,-4.68086 -0.27572,0.8482 -2.47497,2.82999 -4.88757,4.40385 -2.91356,1.90065 -3.52076,1.99368 -1.80824,0.27701 z m 130.10271,41.2714 c 0.26967,-0.85013 2.03599,-2.96926 3.92511,-4.70917 1.88915,-1.73992 3.21417,-2.46793 2.94448,-1.6178 -0.26967,0.85013 -2.03599,2.96925 -3.92513,4.70917 -1.88913,1.73991 -3.21415,2.46791 -2.94446,1.6178 z M 330.39666,476.1036 c 2.622,-3.33721 32.24865,-31.45011 32.91934,-31.23735 1.00417,0.31854 -29.23761,30.24125 -31.89792,31.56137 -1.39426,0.69187 -1.73473,0.58387 -1.02142,-0.32402 z m 130.83267,38.85491 c 0.10871,-2.11277 -0.77425,-3.38608 -2.28584,-3.29644 -1.36333,0.0808 -1.82492,-0.40242 -1.03389,-1.08237 2.67577,-2.30011 5.52471,0.0582 5.03616,4.1689 -0.58503,4.92222 -1.96757,5.0913 -1.71643,0.20991 z m 45.39117,-58.75795 c 0.28561,-0.90028 1.07846,-0.98637 1.76192,-0.19127 0.68346,0.79507 1.14534,1.75234 1.02642,2.12722 -0.11886,0.37489 -0.91179,0.46097 -1.76191,0.1913 -0.85012,-0.26968 -1.31202,-1.22694 -1.02643,-2.12725 z"
       style="fill:#2f2f2f" />
  </g>
</svg>
