<?xml version="1.0" encoding="UTF-8" standalone="no"?>
<!-- Created with Inkscape (http://www.inkscape.org/) -->

<svg
   xmlns:dc="http://purl.org/dc/elements/1.1/"
   xmlns:cc="http://creativecommons.org/ns#"
   xmlns:rdf="http://www.w3.org/1999/02/22-rdf-syntax-ns#"
   xmlns:svg="http://www.w3.org/2000/svg"
   xmlns="http://www.w3.org/2000/svg"
   xmlns:sodipodi="http://sodipodi.sourceforge.net/DTD/sodipodi-0.dtd"
   xmlns:inkscape="http://www.inkscape.org/namespaces/inkscape"
   width="141.11111mm"
   height="141.11111mm"
   viewBox="0 0 500.00001 500.00001"
   id="svg3602"
   version="1.1"
   inkscape:version="0.91 r13725"
   sodipodi:docname="hanging.svg">
  <defs
     id="defs3604" />
  <sodipodi:namedview
     id="base"
     pagecolor="#ffffff"
     bordercolor="#666666"
     borderopacity="1.0"
     inkscape:pageopacity="0.0"
     inkscape:pageshadow="2"
     inkscape:zoom="0.43663674"
     inkscape:cx="-32.843797"
     inkscape:cy="250"
     inkscape:document-units="px"
     inkscape:current-layer="layer1"
     showgrid="false"
     fit-margin-top="0"
     fit-margin-left="0"
     fit-margin-right="0"
     fit-margin-bottom="0"
     inkscape:window-width="1855"
     inkscape:window-height="1056"
     inkscape:window-x="1985"
     inkscape:window-y="24"
     inkscape:window-maximized="1" />
  <metadata
     id="metadata3607">
    <rdf:RDF>
      <cc:Work
         rdf:about="">
        <dc:format>image/svg+xml</dc:format>
        <dc:type
           rdf:resource="http://purl.org/dc/dcmitype/StillImage" />
        <dc:title></dc:title>
      </cc:Work>
    </rdf:RDF>
  </metadata>
  <g
     inkscape:label="Layer 1"
     inkscape:groupmode="layer"
     id="layer1"
     transform="translate(-122.04723,-276.18109)">
    <path
       style="fill:#595959"
       d="m 318.035,276.1811 c 0.0527,6.67384 0.85861,7.88806 3.21294,4.43255 2.55329,-3.74748 3.31497,-1.17084 2.98999,10.0716 -0.24004,8.30907 -0.29577,16.99582 -0.12455,19.3039 0.17122,2.30807 0.91124,4.1965 1.64583,4.1965 0.68994,0 1.43222,-16.85626 1.73762,-38.00455 l -9.46179,0 z m 130.56357,0 c -0.12556,2.5824 -1.63781,3.78928 -3.51456,2.62937 -1.95805,-1.21013 12.71009,22.11204 32.60153,51.83332 19.89141,29.72128 37.26894,54.04305 38.61438,54.04305 8.45191,0 3.05723,-11.77756 -24.20202,-52.81033 -16.89215,-25.42734 -33.20478,-48.18025 -36.24725,-50.56781 -3.04249,-2.38756 -4.84501,-4.65367 -4.00634,-5.0358 0.0389,-0.0178 0.044,-0.0697 0.0786,-0.0918 l -3.32443,0 z m 8.02582,9.0946 c 1.22349,0.0412 2.09167,1.37525 2.09167,3.53424 0,5.89701 -2.01365,6.76139 -4.89154,2.10481 -1.06236,-1.71888 -0.40122,-4.07272 1.47535,-5.23251 0.46914,-0.28997 0.91668,-0.42027 1.32452,-0.40654 z M 319.53,291.78027 c -0.41677,0.0449 -0.70549,5.12629 -0.71472,14.01238 -0.0134,12.92523 0.5761,18.62143 1.31797,12.66162 0.74141,-5.95981 0.75295,-16.53498 0.0269,-23.50039 -0.22728,-2.17669 -0.44006,-3.19399 -0.62948,-3.17361 z m 143.80879,3.56703 c 1.22349,0.0412 2.09167,1.37524 2.09167,3.53424 0,5.89701 -2.01365,6.76139 -4.89154,2.1048 -1.06236,-1.71887 -0.40122,-4.07271 1.47535,-5.23251 0.46914,-0.28996 0.91668,-0.42026 1.32452,-0.40653 z m 5.55378,11.72397 c 1.05456,-0.23796 9.82417,11.44485 20.39236,27.24446 11.27274,16.85293 19.81698,31.31474 18.98916,32.14256 -1.92619,1.92619 -39.48644,-54.36423 -39.48644,-59.1772 0,-0.12408 0.0346,-0.19394 0.10475,-0.20982 z m -144.53005,12.27476 c -1.16922,0.0481 -1.56644,3.13332 -0.86552,7.52747 1.14061,7.15059 0.68335,8.04186 -2.11138,4.09814 -2.63231,-3.71453 -3.58153,2.72518 -3.61946,24.55608 -0.0269,16.27791 -1.53643,32.36474 -3.34411,35.74238 -3.67445,6.86578 3.64454,15.80691 9.81588,11.99279 2.06753,-1.27778 2.66145,-0.0393 1.46878,3.06868 -1.86889,4.87023 -5.8984,6.66374 -12.4387,5.5276 -1.52208,-0.26421 -1.89161,0.93421 -0.81962,2.6687 0.15074,0.24407 0.24474,0.5007 0.31457,0.75406 0.003,0.12086 0.0302,0.23501 0.0655,0.34754 0.1964,1.43883 -0.80512,2.8874 -2.64906,3.53423 -2.31959,0.81368 0.0953,1.51087 5.37021,1.54746 6.62858,0.0457 8.18391,-0.82479 5.0358,-2.81954 -0.59789,-0.37883 -0.92716,-0.65143 -1.30485,-0.94421 1.68471,-0.27731 2.01483,-0.88385 0.97701,-1.89497 0.50845,-0.04 0.93512,-0.092 1.65235,-0.0984 4.04875,-0.0356 6.05011,2.81756 6.43901,9.17986 0.39182,6.40977 0.97265,5.27443 1.90155,-3.71128 1.46042,-14.1273 -0.86539,-23.69132 -5.12104,-21.06119 -1.48606,0.91843 -4.52084,0.54571 -6.74062,-0.82618 -3.05371,-1.88731 -2.80648,-4.07886 1.00978,-9.00934 4.20476,-5.43245 4.70223,-5.54042 2.99654,-0.6426 -1.14551,3.28931 -0.40867,5.8751 1.67205,5.8751 2.04403,0 3.69225,-4.90991 3.66539,-10.9109 -0.0389,-8.27959 -0.8352,-9.69647 -3.30476,-5.8751 -2.35377,3.64219 -3.26746,0.62266 -3.30473,-10.9109 -0.0268,-8.77069 1.45827,-15.9467 3.30473,-15.9467 1.84646,0 3.33162,-2.6438 3.30476,-5.8751 -0.044,-5.02085 -0.52355,-5.14289 -3.30476,-0.8393 -2.7812,4.3036 -3.26075,4.18156 -3.30473,-0.8393 -0.0268,-3.23131 1.45827,-5.8751 3.30473,-5.8751 4.08836,0 4.50721,-15.6838 0.48522,-18.16953 -0.19741,-0.12203 -0.38373,-0.17736 -0.55079,-0.17048 z m 1.28517,39.6438 c -0.50882,-0.0772 -0.85659,1.1489 -0.95731,3.59324 -0.1457,3.53903 0.64824,5.52189 1.76384,4.40632 1.11543,-1.11559 1.23206,-4.00896 0.2622,-6.43242 -0.40186,-1.00431 -0.76346,-1.52092 -1.0688,-1.56714 z m -44.22714,2.24905 c -4.909,0.0443 -4.99065,0.50915 -0.63606,3.43589 3.54306,2.38133 0.0601,2.77396 -11.7502,1.33765 -14.15157,-1.72107 -18.61876,-0.79338 -28.4575,5.88164 -6.41866,4.35473 -15.07839,13.16717 -19.24487,19.58587 -4.16649,6.41866 -9.11114,13.49362 -10.9896,15.72374 -1.87842,2.23016 -3.41621,4.82699 -3.41621,5.77019 0,5.23216 9.77462,-3.16601 11.44858,-9.83555 2.83798,-11.30735 22.46863,-30.9982 33.71625,-33.82117 5.59901,-1.40525 12.09626,-0.8204 15.67786,1.41634 4.56901,2.85338 8.22886,2.85325 14.49105,0 8.97738,-4.09038 8.49196,-9.5792 -0.8393,-9.4946 z m 14.03202,7.00946 c -0.76232,-0.26991 -0.48297,1.00283 0.65572,3.99326 1.26073,3.31094 3.1366,5.17113 4.17025,4.13748 1.03365,-1.03365 -5.7e-4,-3.74204 -2.29495,-6.01936 -1.24337,-1.23411 -2.07361,-1.94939 -2.53102,-2.11138 z m 216.77543,3.0097 c 1.95544,0 3.56045,1.51074 3.56045,3.3572 0,1.84646 -0.66762,3.3572 -1.48187,3.3572 -0.81426,0 -2.41275,-1.51074 -3.55393,-3.3572 -1.14118,-1.84646 -0.48008,-3.3572 1.47535,-3.3572 z m -223.1751,1.65893 c -0.8956,-0.0302 -1.81168,0.19706 -2.62935,0.70816 -2.18047,1.36303 -6.04686,2.79457 -8.59628,3.18014 -7.12052,1.07693 -11.51422,6.83392 -8.69461,11.39612 1.78653,2.89068 3.7425,1.85468 6.61603,-3.51455 2.43948,-4.55817 4.9654,-6.18605 6.2882,-4.0457 1.21649,1.96833 0.73161,4.4961 -1.07534,5.61284 -3.69252,2.28212 2.43907,18.57605 6.98979,18.57605 1.50268,0 5.05128,4.4874 7.88811,9.97324 2.83683,5.48579 8.07604,12.69357 11.64528,16.01884 0.55173,0.51399 1.07918,1.08562 1.59336,1.6786 -0.85622,1.31599 -0.54,1.68142 1.00978,1.27204 7.81657,10.27934 10.59579,29.3707 5.13417,39.79463 -3.94401,7.52738 -4.05254,9.86446 -0.57704,12.01247 6.0021,3.7095 -2.80863,14.28891 -9.69784,11.64528 -3.84584,-1.47579 -4.12146,-0.88026 -1.2196,2.61627 2.0637,2.48661 2.65887,5.91874 1.31797,7.63239 -1.34094,1.71361 0.79418,-0.0413 4.74728,-3.90144 10.65572,-10.40513 17.61294,-25.69714 17.26466,-37.94555 -0.20277,-7.12854 -1.26123,-9.33701 -3.09493,-6.44555 -1.88671,2.97498 -2.80427,1.49872 -2.83918,-4.55713 -0.0269,-4.92388 1.33492,-9.45609 3.02933,-10.0716 1.64416,-0.59722 1.96625,-4.09008 1.53434,-7.95368 0.49099,0.39749 0.93099,-0.52607 1.40321,-2.75394 0.7265,-3.42743 -0.14402,-7.69115 -1.93432,-9.48147 -1.74007,-1.74007 -2.29065,-0.37084 -1.74416,3.57357 -0.86391,-1.77502 -1.88087,-2.96377 -2.95722,-2.96377 -1.75565,0 -2.16879,3.23798 -0.91142,7.19961 1.99656,6.29059 1.64956,6.60952 -2.77365,2.5179 -0.92266,-0.85353 -1.62784,-1.8016 -2.21625,-2.75394 4.2159,-2.54362 3.96314,-6.10624 -1.03604,-8.98313 -2.30807,-1.32817 -3.08016,-1.1766 -1.71136,0.33438 0.54454,0.60111 0.76823,1.48633 0.72126,2.49165 -0.21285,0.10306 -0.38675,0.16316 -0.64257,0.32128 -4.33092,2.67666 -15.75936,-14.04471 -15.15987,-22.18246 0.26253,-3.56588 -1.05208,-5.02576 -3.28509,-3.64568 -2.45767,1.51893 -2.9452,0.27428 -1.43597,-3.65885 1.69982,-4.42959 0.98406,-5.45988 -2.78674,-4.01289 -3.16245,1.21356 -5.07515,0.0101 -5.07515,-3.18672 0,-2.08022 0.74704,-3.40833 1.80977,-3.5539 -0.22897,0.71179 -0.39531,1.52165 -0.459,2.45888 -0.23265,3.4226 0.0819,3.52637 1.12124,0.37376 0.35079,-1.06417 0.87361,-1.82263 1.4819,-2.34742 0.14839,-0.0487 0.28066,-0.14268 0.38685,-0.28839 2.90166,-1.89916 7.39544,1.2087 6.95044,6.50458 -0.25313,3.01268 0.87992,4.6515 2.5179,3.63917 1.63801,-1.01233 3.14959,1.65093 3.36378,5.91444 0.29879,5.94674 0.75181,6.34504 1.95399,1.71137 0.86193,-3.32208 -0.92021,-9.8379 -3.96045,-14.47792 -3.55293,-5.42245 -7.78498,-7.69031 -10.62893,-6.66851 -0.089,-0.59265 -0.1645,-1.17556 -0.34754,-1.8753 -1.41126,-5.39673 -0.77014,-6.54586 2.51136,-4.51778 2.93969,1.81681 3.59495,1.41677 1.97366,-1.20651 -0.83507,-1.35117 -2.27104,-2.1151 -3.76376,-2.16382 z m 238.02675,9.08149 c -0.61967,0.0168 -1.49224,0.0923 -2.62278,0.22963 -3.53997,0.42909 -7.05428,3.04639 -7.80945,5.81608 -0.36127,1.32489 -0.4357,2.06404 -0.34096,2.45888 -3.98063,0.7589 -8.40246,3.52157 -10.65518,7.73076 -2.7339,5.10828 -1.93062,5.85606 5.42268,5.04889 5.30012,-0.5818 7.3608,-0.0302 7.44221,2.41953 -0.39155,-0.44979 -0.93065,-0.43318 -1.52776,0.16383 -0.95563,0.9556 -0.48424,3.26656 0.93763,5.59971 0.0994,2.93947 0.93109,6.36727 2.3212,8.83232 4.21987,7.483 5.61912,15.06863 6.05213,32.79172 0.21452,8.77891 1.2717,11.50945 3.24574,8.393 2.15545,-3.40293 2.93896,-2.57632 2.97689,3.13425 0.0269,4.2635 -1.17653,6.99153 -2.67528,6.06525 -4.27939,-2.6448 -3.93857,25.44183 0.43277,35.70304 2.16318,5.07776 5.07606,9.2323 6.47178,9.2323 4.24122,0 2.84237,-5.63929 -2.49823,-10.0716 -5.5515,-4.60735 -7.04579,-15.06731 -1.6786,-11.7502 1.84646,1.14118 3.3572,0.56129 3.3572,-1.28517 0,-1.84646 -1.51074,-4.28805 -3.3572,-5.42923 -1.84646,-1.14118 -3.33158,-4.62806 -3.30472,-7.75039 0.0443,-4.89235 0.50012,-4.98242 3.30472,-0.6426 2.29334,3.54869 3.2685,-1.16052 3.30476,-15.9467 0.0302,-11.78448 -1.41925,-20.9825 -3.30476,-20.9825 -1.84646,0 -3.3572,-2.35383 -3.3572,-5.2325 0,-2.87873 1.51074,-4.30168 3.3572,-3.1605 1.84646,1.14118 3.3572,0.47353 3.3572,-1.4819 0,-1.95543 -1.51074,-3.5539 -3.3572,-3.5539 -1.84646,0 -3.3572,-2.26611 -3.3572,-5.0358 0,-2.76969 1.62979,-4.65811 3.62605,-4.1965 1.99495,0.46162 5.98021,-2.5938 8.85199,-6.78654 4.77088,-6.96528 4.74208,-7.43982 -0.27529,-5.51444 -3.02027,1.15898 -5.48825,3.54672 -5.48825,5.30461 0,1.75787 -1.53306,2.24825 -3.40964,1.08848 -0.84121,-0.5199 -1.35191,-1.38018 -1.59336,-2.34085 5.48929,0.79811 5.78315,0.35899 1.6458,-2.472 -0.56867,-0.38914 -0.81721,-0.65627 -1.19993,-0.97043 0.0497,-0.0957 0.0551,-0.20144 0.11146,-0.2951 1.1527,-1.9219 0.6045,-2.15536 -1.30484,-0.85897 -0.58106,-1.10694 1.14742,-1.55046 5.75051,-1.82941 7.91087,-0.47937 7.95912,-0.58926 0.8393,-1.96057 -2.41658,-0.46544 -4.20254,-1.20513 -5.45545,-2.0589 0.93549,-0.44443 2.10997,-1.04651 3.77685,-1.92123 8.78932,-4.61222 9.45441,-8.04086 2.66216,-13.67793 -5.34604,-4.43681 -11.92356,-2.06052 -11.84198,4.27515 0.0339,2.62879 1.05023,2.41239 2.97689,-0.62947 1.61176,-2.54462 4.7117,-3.52657 6.88488,-2.18349 2.85798,1.76632 2.26356,4.34214 -2.14414,9.31099 -1.55855,1.75696 -2.68536,3.03729 -3.40313,3.9342 -1.74987,-1.93344 -0.85326,-4.25803 3.18672,-5.88819 2.30808,-0.93132 0.70307,-1.81487 -3.56044,-1.96057 -3.55961,-0.12187 -5.82578,0.76474 -5.92103,2.11792 -0.0373,-0.11616 -0.0268,-0.2162 -0.0722,-0.33437 -0.98144,-2.55759 -3.64199,-3.42206 -6.67505,-3.07523 0.25146,-0.24709 0.51325,-0.51449 0.86552,-0.98356 1.52541,-2.03121 5.03973,-4.64855 7.80942,-5.81608 2.65376,-1.11859 3.07872,-1.6227 1.2196,-1.57369 z m -2.99654,12.51735 c 0.0376,0.0819 0.0463,0.15846 0.0984,0.24273 1.14118,1.84646 0.096,3.38278 -2.32117,3.40963 -3.20082,0.0376 -3.03756,0.90705 0.6098,3.21298 3.98822,2.52142 4.1591,4.01749 0.8393,7.33729 -0.0168,0.0168 -0.0269,0.0202 -0.046,0.0393 1.13654,-2.12057 0.61104,-4.56898 -1.5147,-6.69472 -2.99919,-2.99782 -3.0047,-3.94733 -0.0269,-3.94733 1.83948,0 2.72594,-1.55872 2.36055,-3.59983 z m -9.77653,0.24273 c 2.87873,0 4.30164,1.51074 3.16047,3.3572 -1.14118,1.84645 -3.50156,3.35719 -5.23905,3.35719 -1.73748,0 -3.15395,-1.51074 -3.15395,-3.35719 0,-1.84646 2.35386,-3.3572 5.23253,-3.3572 z m -26.0183,10.12403 c -3.12233,-0.0268 -6.60925,1.4583 -7.75043,3.30476 -2.62593,4.24887 1.81836,4.24887 8.393,0 4.33982,-2.8046 4.24978,-3.26044 -0.64257,-3.30476 z m -14.73364,4.57684 c -9.44484,0.26052 -72.03341,16.78388 -107.16157,28.49027 -16.61813,5.538 -33.23627,10.75193 -36.92919,11.5863 -6.52864,1.47498 -6.5225,1.52286 0.20983,1.90151 3.80817,0.21419 20.42631,-4.18343 36.92919,-9.77653 27.01216,-9.15481 74.56531,-22.60134 100.06029,-28.29357 5.29564,-1.18237 8.91638,-2.86664 8.04549,-3.7375 -0.13328,-0.13328 -0.52439,-0.188 -1.15404,-0.17055 z m -271.90692,3.16701 c -0.34674,0.0269 -0.75376,0.17256 -1.20652,0.45245 -4.3988,2.7186 1.29098,17.20105 6.30133,16.03849 2.84207,-0.65949 2.85997,0.91594 0.0655,6.13739 -2.06773,3.86354 -2.93523,9.17724 -1.92777,11.80264 2.07139,5.39801 12.11737,6.57219 12.11737,1.41634 0,-1.84646 -1.51074,-3.3572 -3.3572,-3.3572 -1.84646,0 -3.3572,-2.37683 -3.3572,-5.27843 0,-4.79599 0.47589,-4.79599 5.27188,0 5.12728,5.12735 6.54097,6.13149 6.90455,3.52113 1.08898,2.30126 -0.25548,1.9597 -4.20962,0.55079 -4.42627,-1.57715 -3.79861,-0.25582 2.10479,4.44567 1.52545,1.21483 2.57887,2.0027 3.72441,2.87198 -2.9829,1.38441 -2.54502,2.40016 2.04578,5.7571 3.28267,2.40046 6.72595,3.52982 7.65206,2.50477 0.92612,-1.02502 -0.2115,-2.54221 -2.53102,-3.37033 -0.85975,-0.30685 -1.47704,-0.81083 -1.94741,-1.37041 1.16256,0.46283 1.16733,-0.24138 0.20982,-2.07857 -0.0561,-0.10743 -0.47229,-1.0219 -0.55736,-1.19339 0.50318,-0.88912 0.17222,-1.35382 -0.67537,-1.43597 -1.14944,-2.3769 -3.02396,-6.36364 -5.48167,-11.71744 0.35033,-2.87842 1.12762,-7.01634 2.03265,-10.62238 2.13145,-8.49116 1.65195,-8.88721 -10.35353,-8.49136 -8.6184,0.28402 -12.29665,-0.93669 -11.66496,-3.87518 0.38054,-1.77022 -0.12053,-2.78409 -1.16059,-2.70809 z m 320.15354,3.48179 c 1.41526,1.39109 2.43511,2.05648 2.97689,1.81631 1.3781,4.36926 1.07444,4.4591 -1.76384,0.44587 -0.52429,-0.7413 -0.9283,-1.50386 -1.21305,-2.26218 z m -251.08837,2.15072 c -1.84646,0 -3.3572,1.51074 -3.3572,3.3572 0,1.84646 1.51074,3.3572 3.3572,3.3572 1.84646,0 3.3572,-1.51074 3.3572,-3.3572 0,-1.84646 -1.51074,-3.3572 -3.3572,-3.3572 z m -55.17083,7.20616 c 0.9665,-0.23299 2.42322,1.48523 3.46865,4.20963 0.33237,0.86579 0.56938,1.73053 0.74752,2.57034 -2.12393,-3.80448 -4.01555,-6.17701 -4.91122,-6.03245 0.0846,-0.21285 0.18666,-0.39642 0.31457,-0.52457 0.11549,-0.11548 0.24206,-0.18968 0.38031,-0.22291 z m 37.25047,0.7213 c -0.44966,-0.0269 -1.13903,1.30064 -2.22283,3.82274 -1.58688,3.69292 -2.9672,10.49125 -3.06868,15.1074 -0.14537,6.61492 0.50374,7.32615 3.06868,3.3572 1.78992,-2.76969 3.17023,-9.56802 3.06871,-15.1074 -0.089,-4.86405 -0.26757,-7.14352 -0.84588,-7.17994 z m -12.01904,0.43274 c -0.60191,0.0658 -1.26157,0.23265 -1.95399,0.49834 -2.76969,1.06286 -5.0358,2.5266 -5.0358,3.25229 0,0.72566 2.26611,1.31797 5.0358,1.31797 2.76969,0 5.0358,-1.46377 5.0358,-3.25229 0,-1.34137 -1.27597,-2.01385 -3.08181,-1.81631 z m -26.08386,2.44579 c 0.59241,2.11204 1.94895,5.0218 3.94733,8.07171 0.0201,0.0336 0.0235,0.0457 0.046,0.0786 -0.9329,-0.26052 -2.13326,-1.84817 -3.02937,-4.18337 -0.52476,-1.36759 -0.82899,-2.74408 -0.96388,-3.967 z m 303.79377,3.81619 c -1.27862,0.14503 -4.26864,1.19617 -7.73075,2.77362 -4.61615,2.10329 -8.393,5.12829 -8.393,6.72095 0,1.59262 3.77685,0.42149 8.393,-2.60314 4.61615,-3.02461 8.393,-6.04968 8.393,-6.72095 0,-0.16786 -0.23602,-0.21889 -0.66225,-0.17054 z m -17.80235,8.97658 c -1.84646,0 -5.62331,1.46891 -8.393,3.25884 -2.76969,1.78992 -3.52506,3.25228 -1.6786,3.25228 1.84646,0 5.62331,-1.46236 8.393,-3.25228 2.76969,-1.78993 3.52506,-3.25884 1.6786,-3.25884 z m 29.7558,4.41942 c 0.3055,0.0463 0.66694,0.56283 1.06879,1.56714 0.96993,2.42346 0.8533,5.31683 -0.26219,6.43243 -1.1156,1.11556 -1.90954,-0.8673 -1.76384,-4.40633 0.10071,-2.44434 0.44845,-3.67029 0.9573,-3.59324 z m -46.39754,3.34411 c -6.98821,0.84658 -36.73639,14.42528 -65.47193,30.18199 -0.27429,0.15041 -0.51345,0.27664 -0.78686,0.4262 -0.91316,-0.0772 -1.44313,0.16417 -1.41631,0.76064 -12.2717,6.69268 -23.12163,12.3222 -29.50008,15.35654 -0.28502,-0.38487 -0.5486,-0.75843 -1.04257,-1.25237 -4.75987,-4.75988 -11.11888,-0.95217 -10.77319,6.4521 0.16316,3.49541 0.91793,4.06577 1.96054,1.4819 0.40582,-1.00569 1.2847,-1.898 2.34742,-2.62281 -0.61313,1.3835 -0.95187,3.54221 -0.82617,5.98001 0.29073,5.63613 0.78001,6.06558 1.92119,1.70482 0.78783,-3.01051 15.26736,-11.85444 38.57502,-23.76266 0.98047,0.6516 2.04789,1.07534 2.95723,1.07534 3.75103,0 3.90734,-1.45316 1.08189,-3.14737 3.414,-1.72017 6.96394,-3.48226 10.70765,-5.31119 28.48795,-13.91747 51.80051,-26.01374 51.80051,-26.87727 0,-0.42939 -0.53601,-0.56683 -1.53434,-0.44587 z m -214.80828,2.2097 c -0.81426,0 -2.41276,1.51075 -3.55394,3.35721 -1.14118,1.84646 -0.48008,3.3572 1.47536,3.3572 1.9554,0 3.56044,-1.51074 3.56044,-3.3572 0,-1.84646 -0.66761,-3.35721 -1.48186,-3.35721 z m -19.9137,1.51468 c -0.30484,-0.12892 -0.65294,0.22627 -1.00978,1.11469 -0.95167,2.36897 -0.88211,6.5235 0.15745,9.23229 2.56302,6.67912 10.37862,6.20834 15.79589,-0.95075 3.78206,-4.9981 3.74781,-5.24868 -0.25582,-1.6786 -7.27145,6.48416 -13.41164,4.98054 -13.70418,-3.3572 -0.091,-2.5966 -0.47538,-4.14564 -0.98356,-4.36043 z m -12.37968,11.91412 c -1.95543,0 -2.61653,1.51074 -1.47535,3.3572 1.14118,1.84646 2.73968,3.3572 3.55393,3.3572 0.81426,0 1.48187,-1.51074 1.48187,-3.3572 0,-1.84646 -1.60501,-3.3572 -3.56045,-3.3572 z m 86.76917,0.54424 c 0.47672,0.24575 0.61635,1.71157 0.61635,4.49156 0,3.69292 -1.46236,8.98051 -3.25229,11.7502 -2.69485,4.16998 -3.25883,3.88139 -3.25883,-1.6786 0,-3.69292 1.46891,-8.98051 3.25883,-11.7502 1.34745,-2.08498 2.15922,-3.05887 2.63594,-2.81296 z m -44.60093,2.81296 c -2.76969,0 -5.0358,1.46378 -5.0358,3.25229 0,1.78848 2.26611,2.38079 5.0358,1.31797 2.76969,-1.06286 5.0358,-2.52659 5.0358,-3.25229 0,-0.72566 -2.26611,-1.31797 -5.0358,-1.31797 z m 31.25083,16.786 c -0.92323,0 -4.40837,3.02148 -7.75043,6.7144 -3.34206,3.69292 -5.32298,6.7144 -4.39975,6.7144 0.92323,0 4.41489,-3.02148 7.75695,-6.7144 3.34205,-3.69292 5.31646,-6.7144 4.39323,-6.7144 z m -56.8298,3.3572 c -1.84646,0 -2.4198,1.51074 -1.27862,3.3572 1.14118,1.84646 3.58277,3.3572 5.42923,3.3572 1.84646,0 2.42634,-1.51074 1.28517,-3.3572 -1.14118,-1.84646 -3.58932,-3.3572 -5.43578,-3.3572 z m 6.07183,6.81931 c -2.1991,0.0587 -1.05977,2.32486 2.52445,5.0358 7.18001,5.43071 27.25082,6.68418 30.21479,1.88843 1.06265,-1.71946 -3.7659,-2.27827 -11.12072,-1.29175 -7.76524,1.04153 -13.92251,0.23567 -15.3041,-1.99989 -1.2716,-2.05746 -4.11532,-3.69134 -6.31442,-3.63259 z m 274.1953,1.05567 c -0.50882,-0.0769 -0.85659,1.1489 -0.95731,3.59325 -0.1457,3.53902 0.64824,5.52188 1.76384,4.40632 1.11543,-1.1156 1.23206,-4.00897 0.2622,-6.43243 -0.40186,-1.0043 -0.76346,-1.52091 -1.0688,-1.56714 z m -272.11672,7.06849 c -2.60274,0.40001 -4.39323,2.39062 -4.39323,5.80953 0,2.42994 1.44369,2.36655 4.52436,-0.19002 3.45328,-2.86597 5.96175,-2.16304 10.58961,2.95068 6.5739,7.2641 13.89767,8.41421 21.78245,3.42931 4.26492,-2.69637 4.31706,-3.80821 0.34751,-7.50126 -2.89723,-2.6954 -3.81627,-2.83804 -2.43266,-0.37372 3.58807,6.39073 -3.57092,8.33663 -9.36343,2.54412 -3.54433,-3.54433 -5.30465,-3.93693 -5.30465,-1.18684 0,2.64322 -2.32986,2.00764 -6.50457,-1.77039 -3.22939,-2.92257 -6.64266,-4.11129 -9.24539,-3.71128 z m 121.69847,5.19973 c -0.81425,0 -2.41275,1.51074 -3.55393,3.3572 -1.14118,1.84646 -0.48008,3.3572 1.47536,3.3572 1.95543,0 3.56044,-1.51074 3.56044,-3.3572 0,-1.84646 -0.66761,-3.3572 -1.48187,-3.3572 z m 143.56617,1.01632 c -0.54736,0.0786 -0.45994,1.74836 -0.20983,5.0686 0.28503,3.78346 1.71701,6.13679 3.18018,5.2325 3.71289,-2.29472 3.34538,6.77617 -0.43278,10.6683 -1.7028,1.75414 -4.17145,9.02409 -5.48167,16.14995 -2.20578,11.99638 -1.87348,12.79338 4.49157,10.77321 3.78087,-1.19999 7.84795,-0.61017 9.03556,1.31139 3.32695,5.38314 5.12104,4.17384 5.12104,-3.44898 0,-5.21847 -1.3743,-6.34501 -6.20293,-4.94401 0.32968,-0.35493 0.65946,-0.722 0.95076,-1.19339 0.72794,-1.1778 0.16618,-2.62261 -1.1868,-3.75059 0.0937,0.0168 0.18599,0.046 0.282,0.046 1.53871,0 2.79984,-1.42302 2.79984,-3.1605 0,-1.73749 -1.26113,-3.94058 -2.79984,-4.89154 -1.53874,-0.951 -2.79984,0.47202 -2.79984,3.1605 0,1.7816 0.58238,3.28307 1.40318,4.13748 -0.28939,-0.15678 -0.5294,-0.34562 -0.85897,-0.47212 -1.89988,-0.72905 -3.38346,-0.54169 -4.22927,0.42623 0.0201,-0.17088 0.0302,-0.30047 0.0524,-0.47867 0.62904,-4.69723 2.20726,-9.60357 3.50804,-10.90435 3.74375,-3.74379 2.57266,-12.44558 -2.59659,-19.2711 -2.29277,-3.02739 -3.47866,-4.53726 -4.02602,-4.4588 z m -270.83158,2.34088 c -0.77582,0 -4.01293,3.96263 -7.18649,8.8061 -3.1736,4.8435 -4.10663,7.77765 -2.07858,6.52424 3.87552,-2.39522 11.6936,-15.33034 9.26507,-15.33034 z m 127.44244,11.22563 c -1.20386,-0.20244 -2.05236,0.53987 -2.05236,2.00646 0,1.95544 1.51074,3.5539 3.3572,3.5539 1.84646,0 3.3572,-0.66764 3.3572,-1.4819 0,-0.81425 -1.51074,-2.41272 -3.3572,-3.5539 -0.46161,-0.28536 -0.90356,-0.45708 -1.30484,-0.52456 z m 143.52682,0.007 c -0.50882,-0.0769 -0.85659,1.1489 -0.95731,3.59325 -0.1457,3.53902 0.64824,5.52188 1.76384,4.40632 1.11543,-1.1156 1.23206,-4.00897 0.2622,-6.43243 -0.40186,-1.0043 -0.76346,-1.52091 -1.0688,-1.56714 z m -282.50306,5.59971 c -4.17682,0.0839 -20.87419,33.18894 -20.72023,41.0798 0.10877,5.57355 1.30068,4.31947 4.55058,-4.78008 2.42192,-6.78131 7.59056,-17.73417 11.48794,-24.3397 3.89737,-6.60556 6.00428,-11.98688 4.68171,-11.96002 z m 141.50068,1.11469 c -0.50881,-0.0769 -0.85659,1.1489 -0.9573,3.59324 -0.1457,3.53903 0.64824,5.52189 1.76384,4.40633 1.11543,-1.1156 1.23206,-4.00897 0.2622,-6.43243 -0.40186,-1.00431 -0.76347,-1.52091 -1.0688,-1.56714 z m 4.01293,5.55381 c -0.81425,0 -2.41275,1.51074 -3.55393,3.3572 -1.14118,1.84646 -0.48008,3.3572 1.47536,3.3572 1.95543,0 3.56044,-1.51074 3.56044,-3.3572 0,-1.84646 -0.66761,-3.3572 -1.48187,-3.3572 z m 1.6786,13.4288 c -1.95543,0 -3.55393,1.51074 -3.55393,3.3572 0,1.84646 0.6611,3.3572 1.47536,3.3572 0.81425,0 2.41926,-1.51074 3.56044,-3.3572 1.14118,-1.84646 0.47357,-3.3572 -1.48187,-3.3572 z m 0.43932,4.95711 c -0.7326,0.73261 4.38645,20.29118 11.3699,43.46657 0.95697,3.17587 1.83504,5.95231 2.75394,8.91098 -0.79173,1.06802 -1.33109,2.27366 -1.33109,3.29163 0,3.5209 1.28114,3.87602 2.83921,1.57369 5.10359,16.15491 9.17459,27.61689 9.74374,27.04774 0.58818,-0.58818 -2.77711,-13.88192 -7.7832,-31.24424 0.71982,-2.20411 0.41381,-3.36378 -0.85243,-2.89821 -0.90107,-3.09292 -1.7409,-6.04285 -2.72772,-9.32408 -6.973,-23.18581 -13.27974,-41.55668 -14.01235,-40.82407 z m -153.33615,23.76267 c -0.44506,-0.0403 -0.75641,3.54081 -0.77373,9.88803 -0.0269,9.23246 0.60634,13.40734 1.40321,9.27819 0.79686,-4.12915 0.81758,-11.68285 0.046,-16.786 -0.24105,-1.59473 -0.47306,-2.36182 -0.67537,-2.38022 z m -13.71731,0.80654 c -0.43426,0.23433 -0.74409,2.26218 -0.78683,5.72429 -0.0685,5.53938 0.62783,8.20704 1.54743,5.93412 0.91961,-2.27293 0.97581,-6.80515 0.12456,-10.0716 -0.31927,-1.22494 -0.62464,-1.72735 -0.8852,-1.58681 z m 0,16.78599 c -0.43426,0.23434 -0.74409,2.26218 -0.78683,5.7243 -0.0685,5.53938 0.62783,8.20704 1.54743,5.93411 0.91961,-2.27292 0.97581,-6.80514 0.12456,-10.07159 -0.31927,-1.22494 -0.62464,-1.72735 -0.8852,-1.58682 z m 16.01884,5.44233 c -0.21822,0.045 -0.44459,0.13932 -0.6754,0.282 -1.84646,1.14118 -3.3572,5.09351 -3.3572,8.78639 0,3.69292 1.51074,5.78359 3.3572,4.64241 1.84646,-1.14118 3.3572,-5.10006 3.3572,-8.79298 0,-3.2313 -1.15568,-5.23216 -2.6818,-4.91779 z m -16.37947,10.35356 -0.53769,23.77579 c -0.29846,13.07911 0.46074,24.78734 1.69172,26.01829 3.28821,3.28821 3.30846,2.79652 0.98356,-24.61508 l -2.13759,-25.179 z m 17.50725,5.80954 c -0.5217,-0.4072 -0.89173,3.06606 -0.89173,9.29786 0,8.30907 0.65545,11.70823 1.45564,7.5537 0.80019,-4.15453 0.80019,-10.95286 0,-15.1074 -0.20009,-1.03865 -0.39,-1.60843 -0.56391,-1.74416 z m 4.23585,16.01226 c -0.42636,0 -1.23542,1.11906 -2.68183,3.3572 -1.78989,2.76969 -3.17021,8.05728 -3.06868,11.7502 0.18464,6.71439 0.1833,6.71439 3.06868,0 0.24776,-0.5765 0.47454,-1.23676 0.70817,-1.87533 l 1.40975,28.99518 c -0.94465,3.32867 -1.58631,7.16494 -1.54743,9.80934 0.0698,4.7503 0.56874,4.76883 2.14414,0.17692 1.06262,16.68511 2.74303,32.9155 4.11781,38.43077 0.31658,1.27036 0.68889,2.88279 1.03599,4.32763 -0.63887,1.60263 -1.05567,3.09907 -1.05567,4.06537 0,1.39401 0.84028,1.29944 2.01956,-0.0202 1.11093,4.75115 2.18013,9.46241 2.82609,12.60918 0.17088,0.83218 0.41166,1.62495 0.68191,2.39331 -1.5293,1.87634 -1.92444,4.68195 -0.7737,6.54392 1.24059,2.00734 4.81168,3.47302 7.93401,3.25883 2.03432,-0.13966 3.21727,-0.25246 3.61946,-0.42619 0.2679,0.50932 0.42593,1.07081 0.43278,1.65892 0.0342,2.78923 1.12197,2.50776 3.25228,-0.8393 2.43505,-3.82586 1.4206,-5.47441 -4.21617,-6.85865 -1.15387,-0.28335 -2.1714,-0.65325 -3.10148,-1.19993 -0.12757,-0.43013 -0.40531,-1.01361 -0.88519,-1.7901 -0.82802,-1.33972 -1.71969,-2.08193 -2.66871,-2.2556 -1.65291,-3.17369 -3.04353,-8.48122 -4.52436,-17.14663 1.1215,-2.26684 1.91464,-4.64894 1.91464,-5.99968 0,-1.64637 -1.1869,-1.12993 -2.70805,0.94421 -1.50469,-9.76404 -3.15019,-22.72535 -5.35053,-41.2306 l -0.43275,-3.63917 c 1.91767,-7.92941 1.61062,-12.66665 -0.90486,-7.58647 l -2.96381,-24.9036 c 1.14202,-3.29465 2.02493,-7.01272 2.10483,-9.19295 0.0819,-2.23815 0.0396,-3.3572 -0.38688,-3.3572 z m 172.08927,6.7144 c -1.95544,0 -3.55393,1.51074 -3.55393,3.3572 0,1.84646 0.66109,3.3572 1.47535,3.3572 0.81426,0 2.41927,-1.51074 3.56044,-3.3572 1.14118,-1.84646 0.47357,-3.3572 -1.48186,-3.3572 z m 0.42619,6.11769 c -0.27864,-0.0987 -0.44348,0.19203 -0.46554,0.93112 -0.0551,1.84834 0.59839,5.41563 1.56714,9.24539 -1.26791,3.43079 -1.12271,4.1696 0.68192,2.62281 0.41337,1.44182 0.86081,2.88121 1.33764,4.24897 2.05994,5.90918 4.43251,10.05851 5.27184,9.21917 0.83933,-0.83933 -0.77555,-8.09155 -3.5867,-16.11717 -0.0544,-0.15511 -0.0967,-0.25414 -0.15073,-0.40653 1.17676,-1.7493 1.5531,-3.43679 0.78682,-4.20307 -0.55065,-0.55065 -1.34194,-0.2387 -2.15069,0.63605 -1.4447,-3.60791 -2.66692,-5.95567 -3.29163,-6.17674 z M 228.2889,664.49524 c -0.50885,-0.0769 -0.85662,1.1489 -0.9573,3.59324 -0.1457,3.53902 0.64827,5.52189 1.76384,4.40632 1.11556,-1.11559 1.23206,-4.00896 0.2622,-6.43242 -0.40189,-1.00431 -0.76346,-1.52092 -1.0688,-1.56714 z m 200.21236,8.91101 c -1.84646,0 -3.3572,1.51074 -3.3572,3.3572 0,1.84646 1.51074,3.3572 3.3572,3.3572 1.84646,0 3.3572,-1.51074 3.3572,-3.3572 0,-1.84646 -1.51074,-3.3572 -3.3572,-3.3572 z m -199.98286,0.98356 c -0.13966,0.0134 -0.27159,0.0749 -0.38685,0.19002 -0.92323,0.92323 -0.64404,4.92665 0.61635,8.89788 1.26043,3.97123 3.04377,6.46392 3.967,5.54069 0.92323,-0.92323 0.65063,-4.92665 -0.6098,-8.89789 -1.10284,-3.47483 -2.60898,-5.81772 -3.5867,-5.73084 z m 201.20247,6.89142 c -0.50882,-0.0769 -0.85659,1.1489 -0.95731,3.59325 -0.1457,3.53902 0.64824,5.52188 1.76384,4.40632 1.11543,-1.1156 1.23206,-4.00897 0.2622,-6.43243 -0.40186,-1.0043 -0.76346,-1.52091 -1.0688,-1.56714 z m -198.39605,12.18952 c -1.4348,0.10978 2.00596,28.3022 4.72761,38.09636 0.93662,3.37046 2.3124,5.51668 3.06213,4.76695 1.6546,-1.65456 -5.26026,-40.41849 -7.63235,-42.78461 -0.0567,-0.0564 -0.11113,-0.0823 -0.15746,-0.0786 z m 202.56633,0.0786 c -0.7257,0 -2.18286,2.26611 -3.24571,5.0358 -1.06282,2.76969 -0.47055,5.0358 1.31793,5.0358 1.78852,0 3.25229,-2.26611 3.25229,-5.0358 0,-2.76969 -0.59886,-5.0358 -1.32451,-5.0358 z m -40.85685,15.05493 c -0.13597,0.19438 -0.10273,1.42778 0.10474,3.68506 0.51033,5.54623 -2.36226,7.87307 -13.89434,11.27807 -7.99376,2.36028 -14.53039,5.51535 -14.53039,7.00947 0,1.49412 6.05591,0.3387 13.46159,-2.57034 7.40572,-2.90905 14.11542,-4.6377 14.9107,-3.84242 1.38179,1.38179 6.18856,27.60538 10.05193,52.01692 l 3.22603,0 c -6.88854,-43.10778 -7.51499,-54.09449 -4.53745,-57.68219 2.19587,-2.64588 6.07236,-4.8063 8.61595,-4.8063 2.54361,0 4.62924,-1.54858 4.62924,-3.44244 0,-1.97873 -4.1863,-1.27896 -9.8421,1.6458 -9.03389,4.67158 -9.96424,4.60876 -11.2912,-0.75406 -0.46692,-1.88678 -0.76904,-2.73175 -0.90487,-2.53757 z m -81.16946,19.03501 c -0.54001,-0.11952 -0.72522,0.93192 -0.76719,3.11461 -0.0561,2.92358 0.90661,6.32274 2.1376,7.55369 4.09581,4.09585 5.14276,-0.52412 1.52779,-6.74061 -1.463,-2.51586 -2.35823,-3.80814 -2.8982,-3.92769 z m 40.37163,5.80298 c -2.43256,-0.0463 -4.30799,1.04473 -4.30799,3.64572 0,1.78848 2.12477,2.43481 4.72764,1.43598 5.78929,-2.22156 7.5496,2.98653 10.96334,37.65703 l 3.53426,0 c -1.69895,-16.4257 -3.32434,-30.93397 -4.20308,-34.7916 -1.05638,-4.63746 -6.65995,-7.86981 -10.71417,-7.94713 z m -10.82566,3.75063 c -1.95543,0 -3.55393,1.51074 -3.55393,3.3572 0,1.84646 0.6611,3.3572 1.47535,3.3572 0.81426,0 2.41927,-1.51074 3.56045,-3.3572 1.14118,-1.84646 0.47357,-3.3572 -1.48187,-3.3572 z m -25.83472,4.51779 c -0.50882,-0.0769 -0.85659,1.1489 -0.95731,3.59324 -0.1457,3.53903 0.64824,5.52189 1.76384,4.40632 1.11543,-1.11559 1.23206,-4.00896 0.2622,-6.43242 -0.40186,-1.00431 -0.76346,-1.52091 -1.0688,-1.56714 z m -75.07799,2.19661 c -1.84646,0 -3.3572,1.51074 -3.3572,3.3572 0,1.84646 1.51074,3.3572 3.3572,3.3572 1.84646,0 3.3572,-1.51074 3.3572,-3.3572 0,-1.84646 -1.51074,-3.3572 -3.3572,-3.3572 z m 42.97477,1.63271 c -1.28695,0.27663 -4.29849,2.73796 -7.78316,6.49799 -4.64627,5.01338 -7.41985,10.77984 -6.16362,12.81245 1.46978,2.37814 0.29678,2.93352 -3.29818,1.55402 -0.37302,-0.14302 -0.71868,-0.24709 -1.05571,-0.34096 0.92404,-0.0269 0.96755,-1.27282 0.0393,-3.69161 -1.80875,-4.71354 -2.86688,-4.52856 -8.48478,1.50154 -3.5303,3.78934 -7.87085,6.89146 -9.6454,6.89146 -1.77452,0 -3.22607,1.81027 -3.22607,4.02602 0,0.61175 0.0739,1.02344 0.16383,1.39008 l 2.3212,0 c 0.39118,-0.31692 0.77391,-0.6231 1.27863,-1.12782 2.86533,-2.86533 7.08604,-2.88766 9.94043,-1.04912 -1.83515,0.82718 -4.43402,1.0458 -7.71105,0.55736 -0.73365,-0.10945 -1.07521,0.55451 -1.08193,1.61958 l 13.91405,0 c -0.0554,-0.31961 -0.11381,-0.64005 -0.17692,-0.97043 2.87947,-1.73134 5.70307,-2.66632 7.21928,-2.11138 2.58461,0.94599 3.55014,-1.08978 2.67529,-5.63247 -0.81573,-4.23582 1.28433,-9.38599 5.1866,-12.72721 3.6049,-3.08661 6.55702,-7.00856 6.55702,-8.71429 0,-0.42643 -0.23971,-0.5774 -0.66882,-0.48521 z m 29.08043,2.65558 c -0.63374,0.23903 -0.0984,2.56295 1.52779,7.53402 0.90124,2.75516 2.33222,10.38966 3.90144,20.45139 l 2.83918,0 c -2.50225,-14.34525 -4.72918,-25.16745 -5.8423,-26.28059 -1.24246,-1.24244 -2.04584,-1.84828 -2.42611,-1.70482 z m -10.47158,0.14436 c -3.28639,-0.37218 -12.21778,2.40103 -15.67785,5.5997 -1.52484,1.40963 1.13752,1.81272 5.92099,0.89832 4.78344,-0.9144 9.61982,-3.15294 10.747,-4.97678 0.5709,-0.92373 0.10542,-1.39719 -0.99014,-1.52124 z m -44.7386,1.39666 c 1.40995,2.54257 3.29136,4.24239 5.03579,4.24239 1.86466,0 3.49411,0.88647 4.36044,2.17694 -0.4495,-0.25783 -1.47986,-0.58553 -3.58016,-1.13439 -3.2313,-0.84441 -5.87509,-3.02561 -5.87509,-4.84565 0,-0.16215 0.0336,-0.2998 0.0591,-0.43929 z m -15.97947,8.11757 c -0.54,-0.11951 -0.72525,0.93193 -0.76719,3.11461 -0.0561,2.92358 0.90662,6.32275 2.1376,7.5537 4.09582,4.09585 5.14273,-0.52413 1.5278,-6.74062 -1.46301,-2.51585 -2.3582,-3.80814 -2.89821,-3.92769 z m 43.64359,3.3572 c -0.54,-0.11951 -0.72522,0.93193 -0.76718,3.11461 -0.0561,2.92358 0.90661,6.32275 2.13759,7.5537 4.09582,4.09585 5.14276,-0.52413 1.5278,-6.74062 -1.463,-2.51585 -2.35823,-3.80814 -2.89821,-3.92769 z m -22.91684,3.87522 c 0.37177,-0.13194 0.87411,0.002 1.50812,0.39343 0.45631,0.282 0.79304,0.38567 1.11469,0.47209 -1.58319,-0.35046 -2.71527,-0.1024 -3.37687,0.73438 0.0822,-0.8863 0.32195,-1.44668 0.75406,-1.5999 z m 26.97563,10.58306 c -0.2068,-0.0772 -0.39524,0.11281 -0.55078,0.51144 l 0.97698,0 c -0.14839,-0.26555 -0.29242,-0.46161 -0.4262,-0.51144 z"
       id="path3623"
       inkscape:connector-curvature="0" />
  </g>
</svg>
