<?xml version="1.0" encoding="UTF-8" standalone="no"?>
<!-- Created with Inkscape (http://www.inkscape.org/) -->

<svg
   xmlns:dc="http://purl.org/dc/elements/1.1/"
   xmlns:cc="http://creativecommons.org/ns#"
   xmlns:rdf="http://www.w3.org/1999/02/22-rdf-syntax-ns#"
   xmlns:svg="http://www.w3.org/2000/svg"
   xmlns="http://www.w3.org/2000/svg"
   xmlns:sodipodi="http://sodipodi.sourceforge.net/DTD/sodipodi-0.dtd"
   xmlns:inkscape="http://www.inkscape.org/namespaces/inkscape"
   width="141.1111mm"
   height="141.11119mm"
   viewBox="0 0 499.99996 500.00028"
   id="svg3551"
   version="1.1"
   inkscape:version="0.91 r13725"
   sodipodi:docname="poison_gas.svg">
  <defs
     id="defs3553" />
  <sodipodi:namedview
     id="base"
     pagecolor="#ffffff"
     bordercolor="#666666"
     borderopacity="1.0"
     inkscape:pageopacity="0.0"
     inkscape:pageshadow="2"
     inkscape:zoom="0.35"
     inkscape:cx="-99.904392"
     inkscape:cy="243.81903"
     inkscape:document-units="px"
     inkscape:current-layer="layer1"
     showgrid="false"
     fit-margin-top="0"
     fit-margin-left="0"
     fit-margin-right="0"
     fit-margin-bottom="0"
     inkscape:window-width="1855"
     inkscape:window-height="1056"
     inkscape:window-x="1985"
     inkscape:window-y="24"
     inkscape:window-maximized="1" />
  <metadata
     id="metadata3556">
    <rdf:RDF>
      <cc:Work
         rdf:about="">
        <dc:format>image/svg+xml</dc:format>
        <dc:type
           rdf:resource="http://purl.org/dc/dcmitype/StillImage" />
        <dc:title></dc:title>
      </cc:Work>
    </rdf:RDF>
  </metadata>
  <g
     inkscape:label="Layer 1"
     inkscape:groupmode="layer"
     id="layer1"
     transform="translate(-122.04725,-276.18096)">
    <path
       inkscape:connector-curvature="0"
       id="path3574"
       d="m 275.72538,775.22923 c -13.904,-1.89498 -30.0996,-8.29309 -42.7212,-16.87723 -7.889,-5.36538 -19.4403,-16.91882 -24.8111,-24.81571 -2.291,-3.36847 -5.6465,-9.30739 -7.4566,-13.19762 -1.8102,-3.89022 -3.5268,-7.51856 -3.8147,-8.06296 -1.0374,-1.96148 -2.7333,-1.4254 -5.8472,1.84838 -2.8083,2.95235 -3.5263,3.34377 -7.3282,3.99472 -2.3181,0.39691 -4.4444,0.57972 -4.7251,0.40625 -0.2807,-0.17348 -2.6814,0.72502 -5.3349,1.99667 -3.3012,1.58209 -5.7589,2.31207 -7.7841,2.31207 -2.7653,0 -3.2216,-0.2709 -6.9474,-4.12425 -7.0472,-7.28865 -14.5673,-24.25388 -14.3684,-32.41508 0.1149,-4.71105 0.8946,-5.70838 6.7837,-8.67678 3.3077,-1.66727 4.7658,-2.88114 6.2153,-5.17445 2.7948,-4.42134 6.8824,-7.09379 11.8061,-7.71869 5.9302,-0.75265 9.3226,-1.80479 15.6002,-4.83839 l 5.609,-2.7105 0.5293,-5.93893 c 0.2911,-3.26641 1.0335,-8.75992 1.6497,-12.20779 2.2369,-12.5163 0.8188,-26.53829 -4.1145,-40.68018 -3.1599,-9.05845 -12.513,-28.17671 -16.0138,-32.73312 -4.194,-5.45858 -9.5505,-17.1338 -13.0251,-28.38932 -1.6552,-5.36207 -3.0094,-10.35544 -3.0094,-11.09638 0,-1.82319 -1.1765,-3.89992 -2.2094,-3.89992 -1.5996,0 -4.3318,-3.64898 -5.9318,-7.92213 -3.4381,-9.18216 -4.6129,-15.57016 -4.6715,-25.40185 -0.067,-11.23275 0.8012,-13.58306 6.0054,-16.25736 l 3.1779,-1.63306 0.4405,-6.56199 c 1.1972,-17.83441 6.3659,-31.28632 22.096,-57.50693 8.8784,-14.79938 16.2237,-28.9523 17.9227,-34.53316 2.2383,-7.35273 2.4244,-10.99369 0.7743,-15.15373 -3.0884,-7.78639 -6.5256,-18.29142 -6.9431,-21.22029 -0.6303,-4.42175 0.085,-6.70411 3.22,-10.27175 1.5232,-1.73343 3.6191,-4.41208 4.6577,-5.95254 2.7643,-4.10006 7.2547,-7.98374 11.299,-9.77229 8.9194,-3.94463 24.3953,-6.14376 28.4564,-4.04369 2.564,1.3259 3.7949,4.25082 3.3711,8.01053 -0.3376,2.99529 -1.8511,5.87999 -6.4195,12.23563 -2.8817,4.00906 -4.0466,7.28603 -2.5655,7.21678 0.4931,-0.023 3.3409,-3.36369 6.3287,-7.42365 2.9877,-4.05997 7.5904,-10.24195 10.2281,-13.73774 2.6378,-3.49579 5.9464,-8.20129 7.3526,-10.45666 6.1037,-9.79032 16.0316,-17.69669 27.7979,-22.13778 5.8532,-2.20923 7.4444,-2.52499 14.0825,-2.79446 6.1138,-0.2482 7.9422,-0.0971 9.9881,0.8255 4.3696,1.97041 9.6166,8.52589 20.3397,25.41218 2.9957,4.71743 8.3715,11.07973 8.9186,10.55519 0.191,-0.18307 -0.3976,-2.85559 -1.3078,-5.93893 -2.1774,-7.37534 -1.9229,-16.15593 0.6935,-23.93167 0.9491,-2.82038 1.7255,-5.57646 1.7255,-6.12461 0,-1.21123 1.8349,-2.02387 2.6743,-1.18443 0.3332,0.33325 1.0606,3.2133 1.6163,6.4001 0.5558,3.18681 1.74704,7.24778 2.64732,9.02438 1.92351,3.79587 7.31269,8.51685 13.90973,12.18506 5.63864,3.13531 15.38624,9.62911 17.76994,11.83826 l 1.77815,1.64792 2.67196,-1.36313 c 8.85075,-4.51532 18.22159,-4.77487 26.2057,-0.72585 4.89606,2.48296 6.96549,6.477 7.99211,15.42491 0.76909,6.70339 0.029,19.35052 -1.43973,24.60133 -1.5229,5.44465 -7.10569,8.30051 -16.22629,8.30051 l -4.82934,0 0,1.89542 c 0,2.88627 2.93528,11.25924 6.33327,18.06579 3.01334,6.03609 5.87548,11.05606 15.19728,26.65488 13.36969,22.3724 18.82526,37.15113 19.93714,54.00809 l 0.43475,6.59116 3.11552,1.47699 c 5.58151,2.64606 7.67724,9.26187 6.4351,20.31438 -1.3554,12.06028 -5.49802,25.10686 -8.7915,27.68754 -3.87702,3.03793 -4.38847,3.6545 -4.38847,5.29051 0,3.14255 -6.05014,21.19726 -9.56856,28.55429 -1.95225,4.08216 -4.89704,9.17329 -6.54399,11.31362 -1.64695,2.14033 -4.22259,6.52099 -5.72366,9.73479 -1.50107,3.2138 -3.91011,8.16728 -5.35343,11.00772 -1.44332,2.84045 -2.46006,5.32862 -2.25942,5.52925 0.20064,0.20065 2.59354,0.58302 5.31755,0.84974 2.72403,0.26671 5.6707,0.95534 6.54818,1.53029 1.8577,1.21721 9.09802,1.49558 17.22626,0.6623 l 5.25192,-0.5384 4.34866,-7.91858 c 2.39175,-4.35521 7.43532,-13.56055 11.20791,-20.4563 3.77259,-6.89576 7.54882,-13.65282 8.3916,-15.01569 l 1.53235,-2.47795 61.51062,0.16837 61.51063,0.16837 1.44645,2.63952 c 3.89972,7.11633 10.19975,29.29533 13.06087,45.9803 2.25598,13.15597 2.937,19.90865 3.59247,35.62127 1.63633,39.22535 -3.17971,75.64427 -15.33962,115.99818 -2.05568,6.82198 -3.26294,9.79275 -4.2444,10.44441 -1.08379,0.71961 -5.91543,0.94281 -23.02667,1.0637 -11.9103,0.0842 -23.83733,-0.0994 -26.50452,-0.40782 -3.50768,-0.40565 -5.11148,-0.34336 -5.79646,0.22512 -0.72828,0.60442 -1.28474,0.60647 -2.40924,0.009 -1.0223,-0.54327 -2.69034,-0.6078 -5.5441,-0.21448 -2.44851,0.33746 -4.52372,0.3153 -5.18611,-0.0554 -0.71115,-0.39798 -1.67929,-0.35596 -2.71963,0.11804 -1.1782,0.53683 -1.98267,0.53945 -2.97256,0.01 -0.74644,-0.39948 -2.43692,-0.54972 -3.7566,-0.33384 -2.89721,0.47391 -2.30737,0.46951 -9.93096,0.074 -4.03792,-0.20947 -6.52041,-0.0661 -7.09372,0.40972 -0.65246,0.54149 -1.15081,0.50882 -1.91521,-0.12558 -0.79668,-0.66118 -1.51436,-0.6909 -3.13443,-0.12978 -1.40677,0.48724 -5.36473,0.58037 -11.97617,0.28182 -9.67119,-0.43672 -9.89227,-0.47997 -10.71203,-2.09563 -0.46037,-0.90733 -5.32167,-13.97297 -10.80289,-29.03476 -5.48121,-15.06178 -10.1634,-27.59323 -10.40485,-27.84767 -0.24145,-0.25443 -4.5898,-0.60115 -9.66298,-0.77049 -7.03342,-0.23475 -9.75566,-0.0857 -11.46283,0.6276 -2.86369,1.19652 -13.48431,1.21404 -19.12858,0.0315 -2.97749,-0.62379 -4.24167,-0.66738 -4.38601,-0.15122 -5.59817,20.01857 -12.62751,32.48126 -25.73538,45.62761 -15.1136,15.15795 -35.569,25.54318 -55.7426,28.30055 -9.1379,1.24899 -25.4231,1.23898 -34.6703,-0.0213 z m 31.1021,-2.95831 c 25.9926,-3.61525 49.84283,-18.02681 63.31909,-38.26081 9.55558,-14.34725 13.79929,-27.93102 13.79929,-44.17035 0,-41.58354 -33.04069,-76.55736 -77.97488,-82.53699 -7.3955,-0.98416 -24.5942,-0.41137 -31.2354,1.04028 -42.3466,9.25623 -71.2671,42.32796 -71.2671,81.49671 0,40.61455 31.1245,74.60864 75.2264,82.16204 6.2156,1.06456 21.3712,1.20954 28.1326,0.26912 z m -25.9391,-4.60765 c -11.8688,-1.14939 -27.4987,-7.07027 -36.8372,-13.95456 -15.7864,-11.63755 -25.7487,-26.96886 -29.7103,-45.72223 -1.3722,-6.49584 -1.5468,-19.86113 -0.349,-26.72517 4.0256,-23.06982 18.971,-42.74494 40.6174,-53.4715 9.2865,-4.6018 17.445,-6.91942 27.7262,-7.87632 14.7986,-1.37734 28.8289,1.24 42.2211,7.87632 21.65615,10.7314 36.38111,30.09998 40.65168,53.4715 1.1564,6.3287 0.95663,20.43121 -0.37858,26.72517 -2.41554,11.38637 -6.54433,20.57909 -13.26432,29.53297 -7.44599,9.92121 -16.09318,17.00048 -27.66868,22.6518 -8.6488,4.22248 -17.1741,6.59033 -27.0551,7.5144 -7.9166,0.74036 -8.0795,0.74013 -15.9532,-0.0224 z m 21.0946,-5.18429 c 1.1733,-0.44608 1.7874,-1.16381 1.7874,-2.08907 0,-1.22647 -0.2786,-1.36132 -2.1447,-1.03834 -1.1795,0.20415 -4.8913,0.57245 -8.2485,0.81843 -5.9669,0.4372 -6.1039,0.48458 -6.1039,2.11151 l 0,1.66427 6.4612,-0.39363 c 3.5537,-0.2165 7.2655,-0.69943 8.2485,-1.07317 z m -18.339,-1.00487 c 0,-1.08197 -1.0318,-1.52312 -6.5988,-2.82147 -15.2855,-3.56488 -28.192,-12.98258 -34.1665,-24.9308 -2.593,-5.18559 -3.7754,-10.02513 -4.192,-17.1569 -0.3248,-5.56001 -0.1122,-7.93255 1.3504,-15.07114 0.9548,-4.65978 2.1743,-9.52142 2.71,-10.80365 0.5358,-1.28223 0.9741,-2.8617 0.9741,-3.50993 0,-0.72451 -3.5909,-4.04713 -9.3201,-8.62376 -10.7132,-8.55798 -9.9314,-8.55773 -12.7382,-0.004 -2.525,7.69468 -3.2293,13.19753 -2.83,22.11088 0.4179,9.32885 1.8733,15.09187 6.0157,23.82029 8.9777,18.91694 26.9351,32.57519 49.4186,37.58731 5.7856,1.28975 9.3768,1.06122 9.3768,-0.5967 z m 28.7064,-1.41865 c 17.5953,-5.22523 33.53542,-18.61213 41.57077,-34.91207 4.48437,-9.09667 5.9781,-14.79977 6.41176,-24.48018 0.39929,-8.91335 -0.305,-14.4162 -2.82995,-22.11088 -2.76656,-8.431 -2.2222,-8.48366 -10.86764,1.05127 -4.15875,4.58662 -7.65654,8.60616 -7.77284,8.93231 -0.1163,0.32614 0.7425,4.68748 1.90845,9.69184 4.88202,20.95423 1.95798,34.53172 -9.98845,46.38014 -5.5993,5.55342 -10.0777,8.44915 -17.988,11.63113 -4.0175,1.61608 -5.4486,2.5145 -5.6057,3.519 -0.2563,1.6397 0.4958,1.68304 5.1616,0.29744 z m -23.7573,-4.80316 c 0,-0.93414 -0.6535,-1.33992 -2.6796,-1.6639 -2.9166,-0.46639 -3.9192,-0.15081 -3.9192,1.23358 0,1.14411 1.0338,1.54859 4.1242,1.61365 1.9969,0.042 2.4746,-0.18638 2.4746,-1.18333 z m 9.7791,-0.57925 c 0.1841,-1.29623 -0.081,-1.48473 -2.0906,-1.48473 -3.1741,0 -4.3891,0.57758 -4.3891,2.0864 0,1.12167 0.3991,1.25971 3.1344,1.08419 2.6749,-0.17163 3.1654,-0.41883 3.3453,-1.68586 z m -20.3372,-0.74651 c 0,-0.93146 -0.7826,-1.43644 -3.1344,-2.02246 -10.1405,-2.5268 -21.2202,-11.22982 -25.6135,-20.11907 -3.7694,-7.62675 -4.3124,-15.01721 -1.7882,-24.33595 0.9562,-3.53012 0.9526,-3.92349 -0.045,-4.92083 -1.3658,-1.36576 -1.9584,-0.76368 -3.4237,3.47861 -1.5236,4.41069 -2.0042,12.75966 -1.0013,17.39366 2.9287,13.53217 14.9117,25.573 30.3867,30.53318 4.6037,1.47565 4.6191,1.47562 4.6191,-0.007 z m 29.7398,0.18649 c 1.9713,-0.58022 6.2567,-2.42559 9.5231,-4.10082 16.1437,-8.27952 24.99409,-25.25319 21.397,-41.0359 -1.0127,-4.44346 -5.1854,-12.53775 -6.4633,-12.53772 -1.0683,2e-5 -4.7055,3.98845 -4.7055,5.15988 0,0.33619 0.5895,1.94409 1.3101,3.57309 0.7206,1.62901 1.6413,5.18783 2.0459,7.90849 1.5106,10.15629 -1.5097,19.14035 -9.066,26.96727 -5.0331,5.21336 -8.7894,7.80876 -14.8154,10.23669 -4.9147,1.98012 -5.5251,2.45118 -4.9884,3.84978 0.4976,1.29672 1.2962,1.29384 5.7625,-0.0208 z m -19.1817,-9.09829 c 0,-1.36036 -0.4041,-1.63537 -2.9675,-2.01979 -3.1377,-0.47051 -4.2912,-0.15011 -4.2912,1.19195 0,1.54166 1.5843,2.40261 4.4212,2.40261 2.5507,0 2.8375,-0.15914 2.8375,-1.57477 z m 9.4652,0.24507 c 0.3062,-0.28037 0.4459,-1.06095 0.3103,-1.73464 -0.1941,-0.96467 -0.7329,-1.17909 -2.5364,-1.00934 -2.7012,0.25423 -4.2848,1.56267 -3.7086,3.06421 0.3244,0.84528 0.9377,0.97897 2.8947,0.63101 1.3658,-0.24282 2.7337,-0.67088 3.04,-0.95124 z m -20.0233,-2.02935 c 0,-0.71584 -0.5197,-1.47269 -1.1548,-1.68187 -7.4547,-2.45529 -14.2808,-8.14825 -17.4229,-14.53077 -1.8388,-3.73526 -2.1187,-4.99754 -2.1605,-9.74515 -0.045,-5.12177 -0.8268,-7.63648 -2.3739,-7.63648 -0.9434,0 -1.9633,4.11119 -1.9633,7.91373 0,11.62323 8.4771,22.04484 21.7399,26.72653 2.7091,0.9563 3.3355,0.75987 3.3355,-1.04599 z m 29.2217,-1.00723 c 8.033,-4.02945 13.0518,-9.52747 15.686,-17.18399 1.4348,-4.17009 1.6693,-10.09439 0.534,-13.48991 -1.0715,-3.20499 -1.7067,-3.69852 -3.0419,-2.36338 -0.9093,0.90934 -1.1547,2.3913 -1.2008,7.2516 -0.048,5.08947 -0.3424,6.72998 -1.7628,9.83242 -2.1782,4.75796 -6.1239,9.02539 -11.4619,12.39665 -2.8727,1.81426 -4.2186,3.08208 -4.2186,3.97382 0,1.75614 1.3366,1.65412 5.466,-0.41721 z m -18.6636,-9.82304 0,-3.63124 -4.7841,-4.51527 c -9.2963,-8.77385 -16.0122,-14.5984 -16.8433,-14.60789 -1.0679,-0.0122 -2.2983,3.13519 -1.6369,4.18732 0.2741,0.43615 2.874,2.9736 5.7775,5.63879 9.5254,8.74365 10.2281,9.60534 10.2281,12.5419 0,3.06969 1.0744,3.96747 4.7841,3.99755 l 2.4746,0.0201 0,-3.63123 z m 7.7536,2.55543 c 1.0273,-0.27529 1.4847,-0.89584 1.4847,-2.01401 0,-2.38889 0.9254,-3.78582 7.6996,-11.62287 3.3869,-3.91822 6.1579,-7.67139 6.1579,-8.34037 0,-0.66899 -0.5373,-1.87995 -1.1941,-2.69104 l -1.1942,-1.47471 -6.1536,6.65262 c -3.3846,3.65894 -6.698,7.54763 -7.3632,8.64151 -0.6653,1.09389 -1.8129,2.36572 -2.5504,2.82629 -1.0958,0.68433 -1.3409,1.53209 -1.3409,4.63795 0,3.50406 0.1158,3.79984 1.4847,3.79154 0.8166,-0.005 2.1529,-0.18806 2.9695,-0.40691 z m -18.3117,-2.9056 c 0,-0.82501 -2.1863,-3.43031 -5.6759,-6.76378 -7.9724,-7.61567 -8.9255,-8.02627 -7.1859,-3.0956 1.3774,3.90385 3.8768,7.01324 7.4685,9.29101 3.5866,2.27455 5.3933,2.46494 5.3933,0.56837 z m 27.5571,-1.7141 c 3.5982,-2.74442 7.7993,-10.31279 5.6019,-10.09188 -0.6653,0.0669 -8.6428,9.47829 -9.1462,10.79016 -0.6032,1.57192 0.9758,1.26084 3.5443,-0.69828 z m -13.6562,-6.20557 c 1.9514,-1.04435 1.7167,-4.42362 -0.3733,-5.3759 -2.5182,-1.14734 -4.9491,0.18509 -4.9491,2.71265 0,2.84393 2.5761,4.133 5.3224,2.66325 z m -5.8443,-7.5873 c 1.561,-1.47956 2.3055,-2.69054 2.0552,-3.34277 -0.3809,-0.99269 -1.2721,-0.96658 -5.0162,0.1469 -0.8217,0.2444 -2.634,-1.06759 -6.0495,-4.3794 -4.8028,-4.65697 -7.2946,-5.73292 -7.2946,-3.14973 0,0.92844 12.5063,12.97216 13.5276,13.02723 0.1814,0.01 1.4313,-1.02622 2.7775,-2.30223 z m 13.925,-2.78261 c 6.3112,-6.65471 7.3309,-8.07087 6.4432,-8.94821 -0.8158,-0.80633 -1.3282,-0.34598 -7.1494,6.42297 -2.1742,2.52822 -2.8251,2.66173 -6.3612,1.3048 -0.6434,-0.24689 -1.2113,0.0306 -1.4763,0.7213 -0.4414,1.15023 2.5552,4.22057 4.1672,4.26973 0.428,0.0131 2.3974,-1.68371 4.3765,-3.77059 z m -0.7655,-7.63186 c 1.4948,-1.74868 2.5107,-3.53449 2.3093,-4.05923 -0.5505,-1.4348 -8.6224,-3.65114 -13.2972,-3.65114 -4.5726,0 -12.8677,2.237 -12.8677,3.47014 0,0.42767 1.477,2.27319 3.2823,4.10115 l 3.2822,3.32356 7.3111,-0.0311 7.3112,-0.0311 2.6688,-3.1223 z m -38.517,-2.37368 c -0.3399,-1.78504 -2.8255,-1.63647 -3.6711,0.21942 -0.6177,1.35566 -0.5563,1.85607 0.3374,2.74973 1.0166,1.0167 1.1771,0.98794 2.3128,-0.41461 0.6711,-0.8289 1.1306,-1.97844 1.0209,-2.55454 z m 58.6274,0.8328 c 0.2627,-1.04698 0.01,-2.03687 -0.7276,-2.85217 -2.2511,-2.48739 -4.5612,0.61068 -2.6409,3.54153 1.2651,1.93076 2.7891,1.61887 3.3685,-0.68936 z m -54.5311,-4.51139 c 0.9684,-1.16684 0.4324,-2.97786 -0.8813,-2.97786 -0.5114,0 -1.2994,0.44542 -1.7512,0.98982 -0.6554,0.78969 -0.6554,1.18995 0,1.97964 1.0328,1.24446 1.6052,1.24629 2.6325,0.008 z m -12.6317,-1.7417 c 0.7409,-1.18634 0.7223,-1.55746 -0.12,-2.39982 -1.8843,-1.88427 -4.7739,0.77045 -3.0715,2.82176 1.1308,1.36255 2.1622,1.22619 3.1915,-0.42194 z m 61.4459,0.44245 c 0.8952,-1.07863 0.3974,-2.33849 -0.924,-2.33849 -1.1865,0 -2.5634,1.76263 -2.0394,2.61062 0.6069,0.98193 2.0312,0.85113 2.9634,-0.27213 z m 14.0464,-3.29307 c 2.1641,-2.71214 2.207,-3.10504 0.5073,-4.6432 -1.4764,-1.33618 -2.3536,-0.90068 -4.6328,2.30012 -1.1413,1.6028 -1.1658,1.90222 -0.2617,3.19304 1.3777,1.9669 2.279,1.7923 4.3872,-0.84996 z m -49.9661,-2.73617 c 2.7227,-0.81032 6.0796,-1.16416 10.8682,-1.14558 5.8262,0.0226 7.7163,0.31077 11.8779,1.81091 6.0344,2.17529 7.482,2.35711 7.7632,0.97507 0.4703,-2.31138 -11.4033,-5.84231 -19.7005,-5.85847 -5.5444,-0.0108 -13.4265,1.74921 -17.8689,3.98999 -3.6141,1.82296 -3.5274,1.72481 -2.5575,2.89353 0.7217,0.86957 1.106,0.8396 3.2484,-0.25338 1.3363,-0.68179 4.2025,-1.76721 6.3692,-2.41207 z m -19.8982,-0.42113 c 0.5535,-0.87883 0.4674,-1.39445 -0.373,-2.23484 -1.9768,-1.97681 -4.9261,0.60674 -3.144,2.75408 1.0261,1.2363 2.5535,1.01081 3.517,-0.51924 z m -8.3849,-2.43846 c 5.604,-6.547 16.6427,-12.79865 27.0247,-15.30511 8.1106,-1.9581 20.6592,-1.95891 28.8225,-0.002 10.078,2.41607 18.3626,6.87709 25.7014,13.8394 2.0869,1.9798 3.7944,3.28948 3.7944,2.91039 0,-1.1663 -7.6185,-7.81731 -13.0051,-11.35355 -15.7828,-10.36123 -35.9776,-12.04964 -54.827,-4.58387 -9.6445,3.81993 -17.8092,9.7232 -19.697,14.24144 -1.5846,3.79251 -0.9103,3.87061 2.1861,0.25317 z m 72.4375,-0.009 c 3.1345,-3.27164 0.5841,-5.67189 -2.7242,-2.5639 -2.0711,1.94574 -2.0092,4.50415 0.109,4.50415 0.416,0 1.5929,-0.87312 2.6152,-1.94025 z m -45.2161,-7.07784 c 6.3869,-1.45497 17.8845,-1.45122 23.9595,0.008 2.4426,0.58662 6.4247,1.96603 8.8492,3.06536 4.2196,1.91326 4.4627,1.9494 5.6833,0.84479 2.8463,-2.57587 2.7328,-3.32429 -0.774,-5.10131 -6.8824,-3.48757 -12.7117,-4.63948 -23.4785,-4.63948 -11.448,0 -16.4717,1.11078 -25.458,5.62901 -5.5601,2.79557 -6.8468,4.23804 -4.9911,5.59501 0.9227,0.67473 1.9603,0.38409 6.1591,-1.72523 2.7771,-1.39517 7.2999,-3.04935 10.0505,-3.67596 z m 68.62051,-6.65412 c 4.01995,-4.26448 7.31098,-8.07874 7.31341,-8.47614 0.005,-0.90888 -4.501,-7.79121 -7.02279,-10.72506 l -1.89898,-2.20927 -6.24935,6.36135 c -3.4371,3.49874 -6.4897,6.79098 -6.7836,7.31608 -0.3444,0.61542 0.054,1.82009 1.1203,3.38957 0.9099,1.33915 2.4474,4.60884 3.4165,7.26595 0.9691,2.65712 1.9945,4.83112 2.2788,4.83112 0.2842,0 3.80577,-3.48912 7.82571,-7.7536 z m -96.70321,-0.2491 3.1551,-6.68293 -2.1925,-2.29403 c -1.2059,-1.26172 -4.8363,-4.54902 -8.0676,-7.30511 l -5.875,-5.01107 -1.954,2.27515 c -2.1892,2.54904 -7.0822,9.82076 -7.0822,10.52518 0,0.25123 2.5983,2.54017 5.774,5.08655 3.1757,2.54638 7.2532,5.85815 9.0612,7.35949 1.808,1.50134 3.4535,2.72971 3.6566,2.72971 0.2031,0 1.7891,-3.00732 3.5244,-6.68294 z m 79.972,1.64247 c -6.0596,-5.23813 -18.6026,-10.1134 -29.4013,-11.42781 -12.7668,-1.55395 -29.1295,1.65355 -42.3973,8.31097 -2.501,1.25488 -4.4542,2.6654 -4.4542,3.2165 0,1.34088 0.024,1.33257 4.8578,-1.69839 5.6445,-3.53909 14.9756,-6.81197 23.4711,-8.23253 15.4649,-2.58592 31.3418,0.93406 44.5879,9.88539 5.5337,3.73954 7.6843,3.70465 3.336,-0.0541 z m -3.0036,-8.15253 c -0.9235,-1.72564 -11.7012,-6.83851 -17.1884,-8.15408 -9.2751,-2.22374 -22.7985,-1.96481 -34.6147,0.66278 -4.7577,1.05797 -14.9663,5.41775 -15.784,6.74085 -0.6235,1.00886 -0.525,0.98852 4.6524,-0.96053 10.1242,-3.81128 15.9006,-4.98699 26.3512,-5.36345 13.3018,-0.47917 20.7468,0.95512 31.6319,6.09398 5.528,2.60975 5.8586,2.67521 4.9516,0.98045 z m -66.9556,-5.86231 c 4.8483,-2.92418 12.4843,-5.48173 21.0914,-7.0643 4.5199,-0.83106 8.1463,-1.00582 15.1773,-0.7314 13.2201,0.51598 22.7299,3.12849 30.2687,8.3153 l 2.9211,2.00982 6.336,-6.60113 c 3.4847,-3.63062 6.33589,-6.86757 6.33589,-7.19323 0,-1.05991 -6.99659,-6.60215 -12.54239,-9.93529 -5.8597,-3.52177 -13.2279,-6.58221 -21.0912,-8.76045 -4.234,-1.17287 -6.8249,-1.3766 -17.5072,-1.3766 -13.7154,0 -16.6583,0.50943 -27.829,4.81732 -9.3016,3.58709 -23.7833,13.32398 -22.9204,15.41082 0.1819,0.43987 2.513,2.53737 5.1803,4.66113 2.6673,2.12375 5.9799,5.01898 7.3615,6.43383 1.3816,1.41486 2.6165,2.57247 2.7441,2.57247 0.1277,0 2.141,-1.15123 4.4739,-2.55829 z m -22.3611,-14.67227 c 13.093,-12.15508 27.8039,-18.63284 46.257,-20.3688 26.4299,-2.48635 51.3609,7.93186 67.57725,28.23929 2.12017,2.65505 3.85485,4.53042 3.85485,4.1675 0,-0.36293 -1.76441,-3.29769 -3.92092,-6.52171 -9.24069,-13.81499 -24.35578,-24.22979 -42.15888,-29.04882 -5.7731,-1.56269 -7.5119,-1.72718 -18.2586,-1.72718 -10.7466,0 -12.4855,0.16449 -18.2586,1.72718 -19.1338,5.17925 -35.5379,17.11265 -44.3221,32.24263 -2.7125,4.67199 -2.1121,4.43166 2.0972,-0.8396 2.1202,-2.65505 5.3299,-6.19678 7.1328,-7.87049 z M 482.59805,756.4044 c 3.81081,0.0961 7.67112,0.15122 8.57845,0.1225 11.77808,-0.37278 42.76061,-0.37586 45.53178,-0.005 1.99614,0.26748 3.89555,0.23653 4.22092,-0.0688 1.42078,-1.33315 4.42008,-19.45925 6.49112,-39.22875 1.30743,-12.48019 1.07207,-68.92337 -0.36181,-86.77433 -1.21392,-15.11242 -3.39507,-37.36782 -4.46236,-45.53178 -2.37249,-18.1478 -4.14936,-30.23246 -4.63297,-31.50931 l -0.56235,-1.48474 -36.66043,0 c -30.89589,0 -36.71644,0.14595 -37.0166,0.92817 -0.1959,0.51049 0.53381,5.03892 1.62156,10.06318 3.45615,15.96376 5.82916,33.30537 7.43538,54.33686 1.00328,13.13655 0.994,48.7258 -0.0162,62.35874 -1.68948,22.79894 -5.44174,50.0196 -9.52668,69.11085 -1.07704,5.03363 -1.31156,7.29222 -0.8108,7.80863 0.48642,0.50163 2.64538,0.56744 6.97341,0.21256 3.44788,-0.2827 9.38681,-0.43539 13.19762,-0.33929 z m 66.90481,-9.81485 c 5.75982,-31.32998 6.71584,-76.19256 2.67179,-125.37736 -2.17756,-26.48403 -7.43266,-67.45666 -8.83129,-68.85529 -1.5117,-1.51171 -1.38162,2.2401 0.5621,16.21138 5.68378,40.85445 8.13393,73.53716 8.17626,109.06373 0.0355,29.82056 -1.47051,49.73928 -5.2324,69.20338 -0.90294,4.67189 -1.46454,8.9561 -1.24797,9.52046 0.90768,2.36538 2.32208,-1.17516 3.90151,-9.7663 z m 30.30898,4.61917 c 2.81388,-8.48091 7.49453,-26.24272 9.69024,-36.77192 11.38138,-54.57753 9.05402,-108.98968 -6.55755,-153.31068 -1.463,-4.15345 -3.16761,-7.9229 -3.788,-8.37657 -1.25135,-0.91505 -29.64943,-1.20852 -30.94991,-0.31984 -0.49387,0.33749 -0.0615,4.99663 1.42275,15.33213 5.82149,40.53716 8.40041,74.50094 8.41775,110.85999 0.0142,29.84994 -1.66634,51.37159 -5.50273,70.46861 -0.75024,3.73456 -1.21564,7.03028 -1.03422,7.32382 0.18143,0.29354 6.20479,0.50441 13.38526,0.46858 l 13.0554,-0.0651 1.86101,-5.60898 z M 461.45248,737.40083 c 1.10496,-5.90186 2.00903,-11.5439 2.00903,-12.53788 0,-1.16755 -4.11905,-8.6785 -11.637,-21.2197 -6.40035,-10.67686 -12.04233,-19.84729 -12.53774,-20.37873 -0.76521,-0.82087 -0.90074,0.0794 -0.90074,5.98315 l 0,6.9494 9.56863,26.02108 c 5.26274,14.31159 9.7369,26.46649 9.94259,27.01089 0.69928,1.85088 1.4813,-0.75087 3.55523,-11.82821 z m -254.336,-13.43076 c -0.8988,-2.15108 -2.3282,-3.83936 -2.3282,-2.74979 0,0.68316 2.8446,5.58759 3.0954,5.3368 0.1217,-0.12168 -0.2236,-1.28583 -0.7672,-2.58701 z m -36.5994,-6.49657 c 3.1654,-1.36173 4.1788,-2.90573 2.3643,-3.60205 -0.4909,-0.18836 -2.4211,0.60771 -4.2893,1.76905 -5.3108,3.3014 -4.1214,4.43405 1.925,1.833 z m 33.6113,-0.33709 c 0,-1.64756 -1.6937,-5.52058 -2.4141,-5.52058 -1.1697,0 -1.1214,1.58881 0.1214,3.99205 0.8922,1.7253 2.2927,2.65899 2.2927,1.52853 z m 260.96013,-1.72627 c 0.49091,-2.1928 2.8478,-23.70117 3.30817,-30.18955 0.21889,-3.08494 0.1631,-5.92477 -0.12398,-6.31074 -0.78756,-1.05882 -29.04722,-18.76473 -29.94961,-18.76473 -0.57797,0 -0.69454,1.88392 -0.44384,7.17313 l 0.33999,7.17312 12.72494,21.20175 c 6.99872,11.66097 12.96952,21.20176 13.26844,21.20176 0.29893,0 0.69308,-0.66813 0.87589,-1.48474 z m -299.62643,-1.99049 c 3.1462,-1.79999 4.3134,-3.42655 3.2337,-4.50632 -0.5724,-0.57232 -1.2184,-0.43691 -2.6247,0.55013 -1.0261,0.72011 -2.9791,1.67049 -4.3401,2.11195 -2.6445,0.85777 -2.9342,1.29646 -1.6827,2.54797 1.1424,1.14244 2.4938,0.96679 5.4138,-0.70373 z m 14.2507,-0.0667 c 0,-0.13341 -1.3363,-2.23527 -2.9695,-4.67081 -2.5732,-3.83728 -3.6293,-6.3046 -2.6988,-6.3046 0.149,0 2.2514,2.39404 4.6722,5.32008 2.4208,2.92605 4.8253,5.48274 5.3434,5.68154 0.518,0.19881 1.6876,-0.1271 2.5989,-0.72423 l 1.6569,-1.08568 -1.9564,-2.45125 c -1.076,-1.34818 -3.0553,-4.67834 -4.3984,-7.40034 -2.7621,-5.59798 -10.1669,-27.75609 -10.1669,-30.42355 0,-2.64982 -1.199,-3.26651 -4.2892,-2.20608 -3.2161,1.10359 -4.9475,3.06324 -4.4861,5.07719 0.1874,0.81793 1.2206,4.41045 2.296,7.98337 1.0754,3.57293 1.8215,6.63004 1.658,6.79359 -0.4733,0.47323 -3.4859,-5.04492 -4.8238,-8.83562 -1.4142,-4.0068 -2.5951,-4.61665 -1.9168,-0.98982 1.182,6.31901 6.9603,19.8377 10.9799,25.68798 3.5803,5.21073 8.5006,10.15868 8.5006,8.54823 z m 207.19244,-5.90028 c 0.005,-0.29362 -0.28684,-0.35033 -0.64977,-0.12603 -0.36294,0.22431 -0.65534,0.90997 -0.64978,1.52368 0.009,0.96163 0.0985,0.97905 0.64978,0.12603 0.35182,-0.54441 0.64422,-1.23006 0.64977,-1.52368 z m -224.82304,-0.0238 c 1.1678,-0.48818 2.5433,-1.39392 3.0565,-2.01276 0.8061,-0.97204 0.8,-1.25827 -0.045,-2.10331 -0.8644,-0.86427 -1.3187,-0.8237 -3.9026,0.34857 -1.6085,0.72969 -3.4267,1.33323 -4.0404,1.34121 -1.4043,0.0182 -1.9758,0.90764 -1.4552,2.26452 0.4978,1.29734 3.4887,1.3731 6.3866,0.16177 z m 39.4067,-0.71497 c 0,-1.5959 -1.5205,-3.67648 -2.6867,-3.67648 -0.8213,0 -0.7789,2.41588 0.07,4.00267 0.975,1.82172 2.6164,1.61709 2.6164,-0.32619 z m -12.5622,-4.25793 c -1.5447,-4.23663 -1.391,-6.80593 0.3223,-5.38409 0.5181,0.43005 1.856,2.73494 2.9731,5.12197 1.117,2.38703 2.1927,4.1783 2.3904,3.9806 0.1977,-0.1977 -0.1225,-2.69185 -0.7114,-5.54255 -1.1518,-5.57486 -2.445,-18.24138 -2.2472,-22.01007 0.3263,-6.2171 -0.1244,-16.49702 -0.7231,-16.49702 -0.3731,0 -0.6599,1.88799 -0.6599,4.34422 0,5.2099 -1.2168,5.52927 -2.4426,0.64112 -0.9299,-3.70861 -1.0089,-3.81902 -2.3611,-3.30015 -1.7639,0.67689 -1.8272,2.09613 -0.4705,10.55297 1.5163,9.45185 1.5615,10.19779 0.6185,10.19779 -1.2185,0 -3.8317,-6.73708 -4.8153,-12.41439 -0.5227,-3.01711 -1.0684,-5.60361 -1.2126,-5.74779 -0.1441,-0.14417 -0.9401,-0.0849 -1.7686,0.13183 -3.3502,0.8761 -3.0855,4.495 1.2754,17.43473 4.0315,11.96241 9.8258,23.94259 11.0081,22.76029 0.1536,-0.15365 -0.3753,-2.07491 -1.1755,-4.26946 z m -28.7946,-2.28965 c 1.7845,-0.75136 2.4603,-1.40569 2.304,-2.23052 -0.3107,-1.63742 -3.0001,-1.78553 -6.8004,-0.3745 -3.5591,1.32145 -4.1883,2.19199 -2.6767,3.70353 1.0966,1.09662 2.4528,0.88894 7.1731,-1.09851 z m 228.62717,-0.26333 c 1.0727,-2.84477 1.47101,-6.01641 0.8071,-6.42673 -0.86738,-0.53607 -1.74468,1.4848 -2.21703,5.10697 -0.44893,3.44257 0.33334,4.17482 1.40993,1.31976 z m -188.71337,-1.6497 c -0.1723,-1.78701 -0.5094,-2.17943 -2.0214,-2.35341 -1.5273,-0.17574 -1.8147,0.0385 -1.8147,1.35275 0,1.87579 1.1355,3.14527 2.8133,3.14527 0.9897,0 1.1892,-0.41836 1.0228,-2.14461 z m 213.18834,-0.73287 c 0.93479,-1.12635 -0.23818,-81.32933 -1.29938,-88.84596 -1.59774,-11.3171 -2.26518,-12.04711 -10.94858,-11.97505 -7.11254,0.059 -7.3596,0.27098 -10.53137,9.03477 -2.08035,5.74813 -2.36983,7.28531 -2.31504,12.2931 0.0391,3.57369 0.57002,7.53941 1.41347,10.5581 0.74296,2.65903 1.80599,7.35866 2.36229,10.4436 1.28238,7.11145 2.31564,40.49044 1.54965,50.06066 -0.31139,3.89042 -0.30877,7.25529 0.006,7.56994 1.61475,1.61476 18.52603,2.35138 19.76307,0.86084 z m 9.6265,-1.0525 c 0.52552,-0.85031 -1.46542,-79.74684 -2.2286,-88.31468 -0.33266,-3.73456 -0.96468,-7.22368 -1.40447,-7.7536 -0.4398,-0.52993 -1.68717,-0.96351 -2.77193,-0.96351 -1.87259,0 -1.95169,0.10971 -1.56507,2.17061 1.17654,6.27144 1.69565,17.69613 1.79035,39.40188 0.0578,13.24711 0.28816,31.05109 0.51193,39.56441 l 0.40686,15.47875 1.6497,0.45758 c 2.42014,0.67129 3.1761,0.66261 3.61123,-0.0414 z m 11.89807,-0.0327 c 0.36319,-0.58763 -0.57976,-61.64477 -1.29929,-84.13138 -0.15098,-4.71815 -0.29205,-9.692 -0.31351,-11.05301 l -0.039,-2.47455 -4.28922,0 -4.28923,0 -0.006,9.4033 c -0.007,12.13948 1.97443,87.01111 2.33165,88.0941 0.33097,1.00342 7.29594,1.14579 7.90422,0.16156 z M 156.82318,693.7138 c 2.9478,-0.75727 3.1457,-0.93733 2.7577,-2.50985 -0.6599,-2.67542 -1.277,-2.88429 -5.174,-1.75138 -4.1474,1.20566 -4.6867,1.74966 -4.0905,4.12523 0.3352,1.33551 0.7229,1.60774 1.8768,1.31755 0.7998,-0.20116 2.8833,-0.73286 4.63,-1.18155 z m 42.559,-4.03893 c -0.1905,-2.63237 -0.3346,-2.81719 -2.3475,-3.01128 -1.9283,-0.1859 -2.1446,-0.0317 -2.1446,1.52812 0,2.6472 1.1594,4.28765 3.0305,4.28765 1.5501,0 1.6505,-0.1927 1.4616,-2.80449 z m 190.57384,-0.98982 c 1.01164,-1.33266 1.23638,-7.42366 0.27392,-7.42366 -1.44613,0 -2.57979,2.97429 -2.20076,5.77395 0.42261,3.12158 0.65712,3.32236 1.92684,1.64971 z m -236.14354,-2.43147 c 3.4527,-1.13514 4.1788,-2.1844 2.9032,-4.19512 -0.7049,-1.11105 -5.5929,-0.0844 -7.4047,1.55525 -1.828,1.65432 -1.5664,4.73252 0.3427,4.03319 0.3819,-0.1399 2.2534,-0.76689 4.1588,-1.39332 z m 46.2317,-5.16247 c 0.2127,-2.57058 0.1286,-2.6566 -3.3395,-3.41653 -1.7667,-0.3871 -1.8146,-0.32019 -1.8146,2.52942 0,3.10876 0.5632,3.70526 3.2994,3.49421 1.4029,-0.10821 1.6803,-0.49811 1.8547,-2.6071 z m 190.70141,-7.28115 c -0.26096,-2.61746 -1.20606,-2.8327 -2.80821,-0.63957 -1.24245,1.70074 -1.4987,4.14637 -0.58875,5.61872 0.81912,1.32537 3.6167,-2.77521 3.39696,-4.97915 z m -189.31251,-0.90012 c 0.3664,-1.32695 0.5437,-2.61077 0.394,-2.85293 -0.3636,-0.58835 -5.5483,-2.28212 -5.9022,-1.92819 -0.1531,0.15309 -0.3744,1.44672 -0.4916,2.87473 -0.1818,2.21233 0.031,2.72235 1.4364,3.44797 2.7873,1.43882 3.8385,1.08371 4.5634,-1.54158 z m 268.31004,-14.08439 c 0.458,-15.22463 -0.54639,-43.35991 -1.58496,-44.39849 -0.39791,-0.3979 -27.65615,16.12843 -30.35151,18.40175 -0.36161,0.30497 -0.0735,21.2951 0.30515,22.23562 0.46574,1.15673 30.21832,19.61126 30.74174,19.06809 0.24362,-0.25281 0.64393,-7.14094 0.88958,-15.30697 z m -81.50475,9.56296 c 1.12859,-1.82609 1.33684,-2.87039 0.98622,-4.94565 -0.24445,-1.44691 -0.67013,-2.77022 -0.94594,-2.94068 -0.27582,-0.17047 -1.32976,0.55459 -2.3421,1.61125 -1.62666,1.69787 -1.78901,2.24392 -1.39663,4.69773 0.75219,4.70387 1.55464,5.04611 3.69845,1.57735 z m -184.27719,-4.63132 0.7142,-2.32705 -3.2531,-1.64849 -3.2532,-1.6485 -0.6497,1.70892 c -1.5178,3.9923 -0.1573,6.08792 4.0237,6.19751 1.3904,0.0364 1.8353,-0.38354 2.4181,-2.28239 z m 181.10337,-5.38504 c 1.83799,-1.76091 2.21852,-3.09951 1.45024,-5.10161 -0.6076,-1.58338 -1.27582,-1.28671 -3.53951,1.57144 -1.72432,2.17713 -1.95081,2.84039 -1.352,3.95929 0.92845,1.7348 1.22065,1.69837 3.44127,-0.42912 z m -177.65537,-3.46944 1.2823,-2.51353 -3.3153,-2.06086 c -1.8233,-1.13348 -3.5449,-2.06086 -3.8256,-2.06086 -0.9978,0 -2.3299,5.33201 -1.622,6.4921 0.8107,1.3283 4.8597,3.48394 5.6392,3.00219 0.3075,-0.19003 1.1361,-1.4766 1.8414,-2.85904 z m -10.8975,-3.00591 c 10.9184,-32.87699 40.5843,-57.83629 76.9042,-64.70297 9.6341,-1.82145 30.1948,-1.689 40.073,0.25816 33.69728,6.64227 61.81305,29.23866 73.82928,59.33591 l 2.56663,6.42866 0.21081,-2.96598 c 0.31686,-4.45838 -1.70029,-15.30956 -4.28553,-23.05374 -10.58657,-31.71246 -36.51278,-54.50743 -71.48159,-62.84841 -8.2512,-1.96812 -30.4902,-2.46428 -39.4437,-0.88001 -23.1791,4.10143 -45.8354,16.88691 -59.4475,33.54764 -10.8036,13.22321 -17.9919,29.09122 -20.5269,45.31247 -0.6436,4.11832 -0.9619,15.69036 -0.416,15.12227 0.1453,-0.15122 1.0531,-2.65052 2.0173,-5.554 z m 185.78416,-0.98941 c 1.75506,-2.21595 1.99541,-2.92354 1.49894,-4.41295 -0.83606,-2.50817 -1.5234,-2.42066 -4.05212,0.51592 -2.06869,2.40235 -2.16653,2.7199 -1.40468,4.55917 0.45039,1.08734 1.05486,1.97697 1.34326,1.97697 0.28841,0 1.46498,-1.1876 2.6146,-2.63911 z m -170.58336,-3.71549 1.1371,-1.73542 -3.4043,-3.37865 c -3.3043,-3.27939 -3.4333,-3.33987 -4.3893,-2.05888 -2.0903,2.80081 -1.9476,4.36303 0.613,6.70965 2.8924,2.65064 4.5281,2.77604 6.0435,0.4633 z m 166.51253,-3.81646 c 2.37689,-3.30975 2.51233,-4.11174 1.04755,-6.203 l -1.04395,-1.49045 -2.55833,2.82836 c -1.40708,1.5556 -2.5705,3.20999 -2.58539,3.67642 -0.0324,1.01474 1.90659,4.10104 2.57649,4.10104 0.25967,0 1.4133,-1.31056 2.56363,-2.91237 z m -161.21243,-3.97951 1.7335,-2.27273 -3.6981,-3.75765 c -2.0339,-2.0667 -3.7858,-3.64226 -3.8932,-3.50123 -1.9026,2.49975 -3.0671,4.68335 -3.0671,5.75088 0,1.39364 4.8911,6.05345 6.354,6.05345 0.4606,0 1.6175,-1.02272 2.5709,-2.27272 z m 156.53895,-2.84136 c 1.05839,-1.361 2.135,-2.83735 2.39245,-3.28076 0.45448,-0.78274 -1.28598,-4.1429 -2.14588,-4.1429 -0.23524,0 -1.66967,1.5902 -3.18762,3.53377 -2.57908,3.30224 -2.69496,3.62649 -1.76856,4.94911 1.41066,2.014 2.51238,1.76622 4.70961,-1.05922 z m -149.33695,-5.40296 2.5374,-2.59848 -3.9427,-3.94261 c -2.1684,-2.16844 -4.2198,-3.74588 -4.5586,-3.50542 -1.3582,0.96393 -4.2241,4.88644 -4.2241,5.7816 0,1.37108 5.2406,6.86338 6.5489,6.86338 0.606,0 2.2436,-1.16932 3.6391,-2.59847 z m 144.47366,-1.5315 c 1.31447,-1.90855 2.38995,-3.78694 2.38995,-4.1742 0,-0.80314 -3.16265,-3.94408 -3.54564,-3.5213 -0.13828,0.15266 -0.86011,1.4852 -1.60407,2.96122 -0.74395,1.47602 -1.81976,3.07135 -2.39069,3.54517 -1.32378,1.09864 -1.31054,1.94461 0.054,3.45245 1.68173,1.85829 2.51155,1.48976 5.09641,-2.26334 z m 83.37586,-9.82876 c 7.53885,-4.77381 14.26991,-9.20529 14.95794,-9.84772 1.17784,-1.0998 1.20499,-1.58556 0.46461,-8.31226 -0.86183,-7.83006 -2.5372,-20.14392 -3.05941,-22.48644 -0.18205,-0.8166 -0.5804,-1.48473 -0.88522,-1.48473 -0.30482,0 -6.38656,7.70274 -13.51498,17.1172 l -12.96077,17.11718 0,7.84831 c 0,6.85211 0.23328,8.72814 1.08535,8.72814 0.11303,0 6.37365,-3.90585 13.91248,-8.67968 z m -88.7968,3.05628 2.1757,-4.19637 -1.58666,-1.68892 c -2.11799,-2.25451 -3.08883,-2.12848 -3.961,0.5142 -0.3999,1.21171 -1.46236,3.19972 -2.36102,4.4178 l -1.63394,2.21467 1.72574,1.80129 c 0.94915,0.9907 2.11717,1.65107 2.5956,1.46749 0.47842,-0.1836 1.84893,-2.22217 3.04558,-4.53016 z m -130.45232,0.74677 2.6213,-2.21747 -1.7966,-2.59248 c -0.9881,-1.42587 -2.7616,-3.52679 -3.9411,-4.66872 l -2.1444,-2.07623 -2.8045,2.33156 c -1.694,1.40828 -2.8045,2.88887 -2.8045,3.73891 0,1.63086 5.7178,7.72639 7.2338,7.71172 0.558,-0.005 2.1942,-1.00768 3.636,-2.22729 z m 122.92143,-4.96031 c 3.12949,-4.09167 3.40955,-5.87743 1.21746,-7.76299 -0.98253,-0.84514 -2.02176,-1.53661 -2.3094,-1.53661 -0.28764,0 -0.99247,1.11355 -1.56628,2.47455 -0.57381,1.361 -1.72809,3.60832 -2.56506,4.99404 l -1.52177,2.51948 1.64011,1.2592 c 2.09277,1.60674 2.50735,1.44857 5.10494,-1.94767 z m -114.88893,-0.78029 2.231,-1.37891 -1.893,-2.41541 c -1.0411,-1.32847 -2.6887,-3.68806 -3.6611,-5.24351 l -1.7681,-2.82811 -2.0301,1.1784 c -1.1165,0.64813 -2.1732,1.53925 -2.3482,1.98029 -0.2868,0.72307 6.1297,10.08615 6.912,10.08615 0.1795,0 1.3303,-0.62051 2.5575,-1.3789 z m -39.2579,-5.70771 c 11.8339,-22.42834 32.3895,-39.57037 57.1076,-47.62417 12.384,-4.035 18.331,-4.90723 33.5252,-4.91706 10.974,-0.007 14.446,0.23754 20.6066,1.4519 29.12023,5.74005 54.36472,23.49617 68.39363,48.10575 1.4978,2.62742 2.87173,4.77859 3.05319,4.78037 0.18147,0.002 0.88162,-2.2964 1.55588,-5.10707 1.77709,-7.40773 3.55913,-11.7735 5.66561,-13.87998 1.43256,-1.43256 9.93542,-17.14537 9.93542,-18.3601 0,-0.65629 -1.62266,-0.12948 -3.31674,1.07682 -1.02893,0.73266 -3.89576,2.09881 -6.37074,3.0359 -3.78065,1.43144 -5.29375,1.65924 -9.4658,1.42512 -9.61641,-0.53965 -15.22788,-5.03863 -27.33016,-21.91187 -10.4763,-14.60628 -20.43869,-25.02888 -28.48499,-29.80094 -3.7442,-2.22062 -11.4853,-2.87745 -33.9119,-2.87745 -22.4266,0 -30.1677,0.65683 -33.9119,2.87745 -8.0463,4.77206 -18.0087,15.19466 -28.485,29.80094 -11.977,16.69852 -17.6764,21.31417 -27.0627,21.91655 -5.3521,0.34347 -11.3365,-1.24879 -15.6114,-4.15364 -2.2816,-1.55041 -3.8093,-2.07219 -3.8093,-1.30104 0,0.18872 1.3396,3.01057 2.977,6.27078 5.4046,10.76112 9.4421,22.83363 10.6291,31.78216 0.2355,1.77511 0.6564,3.14175 0.9354,3.03698 0.279,-0.10477 1.7982,-2.6371 3.376,-5.6274 z m 147.17408,1.63466 c 0.97228,-1.53811 2.07493,-3.60579 2.45033,-4.59486 0.62005,-1.63367 0.46834,-1.96167 -1.65724,-3.58293 -1.93151,-1.47323 -2.44396,-1.62001 -2.9368,-0.84123 -0.32837,0.51888 -0.60158,1.40493 -0.60713,1.96901 -0.005,0.56408 -0.90095,2.43031 -1.98975,4.14717 -1.0888,1.71687 -1.97964,3.39873 -1.97964,3.73746 0,0.80487 3.37585,2.56693 4.26453,2.22591 0.37834,-0.14518 1.48341,-1.52242 2.4557,-3.06053 z m -97.12388,-2.72917 c 0,-0.49259 -0.4793,-1.29335 -1.065,-1.77947 -0.5858,-0.48613 -1.9503,-2.45263 -3.0325,-4.37001 -1.082,-1.91738 -2.2258,-3.64586 -2.5417,-3.84106 -0.6459,-0.39918 -5.5903,1.96178 -6.2107,2.96559 -0.6179,0.99978 1.3742,4.35591 4.5578,7.67846 l 2.8783,3.00398 2.7069,-1.38094 c 1.4888,-0.75952 2.7069,-1.78397 2.7069,-2.27655 z m 90.50943,-2.70691 c 1.3823,-2.54055 2.51788,-4.83118 2.52351,-5.09029 0.006,-0.25912 -1.0842,-1.21481 -2.42184,-2.12376 -2.553,-1.73482 -4.1493,-1.4062 -4.1824,0.861 -0.01,0.5907 -0.7537,2.85568 -1.6557,5.03328 l -1.64,3.95929 1.4331,1.18251 c 0.7882,0.65037 1.8824,1.09579 2.4316,0.98982 0.5491,-0.10598 2.12943,-2.27131 3.51173,-4.81185 z m -82.05913,0.26936 c 2.2481,-0.75919 4.0874,-1.62411 4.0874,-1.92205 0,-0.29794 -1.0378,-2.1175 -2.3062,-4.04347 -1.2684,-1.92596 -2.6357,-4.50032 -3.0385,-5.72078 -0.6036,-1.82886 -0.9877,-2.15493 -2.1848,-1.85449 -2.8971,0.72714 -7.7346,3.16156 -8.0821,4.06731 -0.549,1.43051 5.5459,10.85382 7.0201,10.85382 0.2291,0 2.256,-0.62116 4.5041,-1.38034 z m 72.3608,-0.13969 c 0.9616,-1.46767 3.6536,-8.6793 3.6536,-9.78784 0,-0.74988 -5.1966,-3.33831 -5.8685,-2.92308 -0.2993,0.18499 -0.7402,2.00347 -0.9796,4.04107 -0.2395,2.03761 -0.8753,4.55525 -1.4128,5.59478 -1.3475,2.60573 -1.2466,3.06703 0.8373,3.82813 2.5868,0.94481 2.6682,0.92856 3.77,-0.75306 z m -7.2338,-5.08057 c 0.582,-1.7523 1.1169,-4.46094 1.1887,-6.01919 0.139,-3.0184 -0.668,-3.81885 -4.9113,-4.87153 l -1.7424,-0.43225 -0.3465,5.16747 c -0.1906,2.84211 -0.5451,5.93393 -0.7878,6.87073 -0.3903,1.50641 -0.187,1.77934 1.7589,2.36158 3.0646,0.91696 3.6341,0.55496 4.8404,-3.07681 z m -53.2483,1.89171 c 1.7032,-0.41228 3.3667,-0.99398 3.6965,-1.29267 0.6969,-0.63093 -3.2954,-11.4264 -4.6375,-12.54021 -0.6578,-0.54594 -2.0609,-0.37417 -5.516,0.67528 -2.5485,0.7741 -4.6337,1.70572 -4.6337,2.07028 0,1.03967 3.2772,7.32136 5.0565,9.69231 1.8177,2.42206 1.8043,2.41894 6.0342,1.39501 z m 179.2142,-17.63516 c 8.51502,-11.2975 11.60463,-15.88053 11.56618,-17.1569 -0.0911,-3.02446 -2.88614,-14.16874 -3.61313,-14.40613 -0.60665,-0.1981 -18.40861,31.24568 -21.59448,38.14255 -0.9352,2.02455 -1.0836,3.42887 -0.72857,6.89425 0.42689,4.1667 0.4949,4.30056 1.59861,3.14668 0.63401,-0.66284 6.38114,-8.14204 12.77139,-16.62045 z m -135.8633,14.42548 c 1.0782,-3.16995 1.7264,-9.3856 1.0856,-10.41057 -0.2896,-0.46326 -2.0632,-1.02428 -3.9412,-1.24671 l -3.4147,-0.40441 0,4.95854 c 0,2.72719 -0.1806,5.86163 -0.4014,6.9654 -0.3464,1.73218 -0.1883,2.04916 1.1548,2.3158 3.4961,0.69403 4.7019,0.21799 5.5169,-2.17805 z m -24.5536,0.54586 c 1.0189,-0.53623 1.1248,-1.19017 0.7622,-4.70854 -0.2315,-2.24721 -0.7012,-5.19938 -1.0437,-6.56039 l -0.6226,-2.47455 -4.1717,0 c -5.915,0 -10.3559,0.71102 -10.7431,1.72007 -0.2988,0.77885 3.3263,10.8178 4.5106,12.491 0.5791,0.81806 9.5721,0.44621 11.3083,-0.46759 z m 14.6057,-0.39378 c 0.6025,-1.89835 0.7283,-11.6289 0.1619,-12.52485 -0.3545,-0.56068 -2.4336,-0.82485 -6.4921,-0.82485 -5.4234,0 -5.9279,0.10582 -5.5057,1.15479 0.2557,0.63513 0.6279,3.63024 0.8271,6.6558 0.4184,6.35537 0.6667,6.59556 6.8883,6.66496 3.0303,0.0338 3.821,-0.18225 4.1205,-1.12585 z m -95.4836,-26.12665 c 5.0915,-2.58001 7.7995,-5.58942 18.9474,-21.05561 11.0329,-15.30644 24.0584,-27.64922 31.4449,-29.79653 10.4565,-3.03978 53.171,-3.10992 64.4315,-0.1058 2.3979,0.63973 5.1232,2.22554 8.9084,5.18371 8.50643,6.64783 15.64328,14.89026 29.35522,33.90274 8.49626,11.78062 16.9393,16.08322 25.79093,13.14318 3.89251,-1.29288 13.46141,-6.89402 16.19771,-9.48129 8.12684,-7.68422 16.47419,-27.20643 20.25902,-47.38036 1.47983,-7.88786 2.88481,-33.77258 2.2348,-41.17331 -1.01015,-11.50125 -2.8867,-19.35749 -6.69885,-28.04493 -6.74163,-15.3634 -19.06748,-31.18998 -27.47711,-35.28103 -10.36256,-5.0411 -18.66993,-5.2877 -35.78404,-1.06222 -6.50391,1.60581 -16.87338,3.6102 -23.04328,4.45419 -10.4047,1.42329 -13.4423,1.53454 -41.9024,1.53454 -28.4601,0 -31.4977,-0.11125 -41.9024,-1.53454 -6.1699,-0.84399 -16.5394,-2.84838 -23.0433,-4.45419 -17.0983,-4.22158 -25.4233,-3.9777 -35.7539,1.0474 -9.3746,4.56005 -22.2255,21.76604 -28.9153,38.71454 -4.2859,10.85828 -5.2305,17.78077 -5.092,37.31522 0.103,14.51313 0.348,18.29756 1.6877,26.06529 3.587,20.79817 10.8357,39.01612 19.2137,48.28959 2.7782,3.07519 10.4209,8.04104 16.0029,10.39793 4.8874,2.06361 10.1967,1.82563 15.1384,-0.67852 z m -16.6479,-11.30449 c -3.5838,-1.25955 -10.4959,-8.64158 -13.9297,-14.8767 -4.3027,-7.81285 -8.6653,-20.25884 -10.6073,-30.26166 -2.0915,-10.77206 -2.7953,-29.03737 -1.5364,-39.86655 1.1914,-10.24725 4.2854,-21.59548 7.9897,-29.30435 2.6583,-5.5319 4.1036,-7.60807 8.039,-11.54791 13.0437,-13.05835 23.5912,-14.49891 59.2059,-8.08627 16.4721,2.9659 28.4356,4.27176 42.8868,4.68123 20.0999,0.56953 36.6698,-0.83201 59.39467,-5.02379 19.51403,-3.59952 30.87049,-4.25241 39.56599,-2.27466 10.74638,2.44422 20.75169,11.37692 26.39564,23.56594 2.82623,6.10371 6.26122,19.10062 7.27297,27.51863 1.28024,10.65194 0.8535,26.40063 -1.00226,36.98731 -1.8314,10.44776 -2.36058,12.4463 -5.7668,21.77946 -3.42496,9.38453 -7.39007,16.11523 -12.68525,21.53301 -5.07816,5.19574 -7.18388,6.15183 -13.56296,6.15824 -7.46126,0.008 -13.00761,-4.36863 -26.68977,-21.05843 -11.29741,-13.78083 -14.98205,-17.91145 -19.53403,-21.89838 -5.1256,-4.48926 -6.8993,-5.4376 -13.193,-7.05391 -4.4909,-1.15329 -7.2619,-1.24311 -34.2509,-1.11026 -31.3215,0.15419 -32.3213,0.24798 -39.0214,3.66041 -2.8182,1.43534 -13.6455,11.87909 -17.8004,17.1698 -19.3211,24.60289 -25.8546,30.32843 -34.5363,30.26549 -2.197,-0.0159 -5.1824,-0.44643 -6.6342,-0.95665 z m 12.5378,-4.66543 c 3.6993,-1.75777 8.9542,-7.23467 20.8535,-21.73478 15.2357,-18.56561 18.8939,-21.63585 30.6615,-25.73358 l 6.3774,-2.22069 28.8736,-0.003 28.8736,-0.003 6.3856,2.22358 c 3.5121,1.22297 7.7817,3.03372 9.488,4.02389 4.38037,2.54187 12.26907,10.70021 22.59092,23.36303 4.88134,5.98842 10.66152,12.67736 12.84485,14.86433 6.49848,6.50928 12.08948,8.28571 17.84691,5.67049 7.40348,-3.36289 16.25456,-19.07488 20.6754,-36.7019 3.05518,-12.18181 3.53918,-17.03521 3.05998,-30.68445 -0.50124,-14.27691 -1.41312,-20.7571 -4.36015,-30.98476 -2.75244,-9.55232 -5.87569,-15.22178 -11.49626,-20.86845 -5.1332,-5.15705 -10.35178,-8.11888 -17.46399,-9.91178 -5.89899,-1.48707 -12.65924,-0.84843 -35.97605,3.3986 -25.75861,4.69179 -45.70301,6.21178 -65.47421,4.98984 -12.9044,-0.79753 -22.8669,-2.11981 -47.0354,-6.24277 -18.3602,-3.13208 -23.0663,-3.48694 -28.4029,-2.14172 -7.0968,1.7889 -12.3186,4.754 -17.4486,9.90783 -5.6206,5.64667 -8.7438,11.31613 -11.4962,20.86845 -2.9561,10.25893 -3.8704,16.73367 -4.3756,30.98476 -0.4051,11.42605 -0.3025,13.71785 0.9154,20.4563 4.2072,23.27776 13.6355,42.65942 22.8506,46.9738 3.1994,1.49739 7.4313,1.31117 11.2321,-0.49474 z m -51.7901,-51.18612 c -0.3928,-3.76274 -0.6698,-12.72104 -0.6157,-19.90734 0.054,-7.1863 -0.075,-13.23969 -0.2875,-13.45197 -0.6902,-0.6902 -3.6714,1.73136 -4.7868,3.88813 -1.6478,3.18667 -0.9326,15.93078 1.3812,24.60948 1.845,6.92037 4.067,12.65898 4.6686,12.05739 0.1949,-0.19489 0.033,-3.43296 -0.3598,-7.19569 z m 278.44593,4.5416 c 4.18248,-9.51817 6.66285,-28.29609 4.43856,-33.60259 -0.92823,-2.2145 -4.05476,-5.09609 -4.76196,-4.38889 -0.16247,0.16247 -0.42188,8.14601 -0.57647,17.7412 -0.15458,9.59518 -0.4969,18.70781 -0.7607,20.25028 -0.26381,1.54247 -0.27538,2.80449 -0.0257,2.80449 0.24967,0 1.00849,-1.26202 1.68629,-2.80449 z M 169.10668,434.13593 c 5.8528,-9.46118 14.4272,-18.68248 20.0291,-21.54037 4.8275,-2.4628 9.9116,-3.93117 15.7705,-4.55475 7.0274,-0.74797 12.9066,-0.069 22.8762,2.64172 7.6436,2.07833 12.9111,3.05044 27.1567,5.01167 12.044,1.65815 63.1823,1.65815 75.2264,0 14.24552,-1.96123 19.5131,-2.93334 27.15671,-5.01167 9.96963,-2.71076 15.84883,-3.38969 22.87622,-2.64172 9.6416,1.0262 16.23838,3.85689 22.50146,9.6554 6.68333,6.18758 12.33982,13.97783 18.6448,25.67806 1.36904,2.54054 2.49697,4.07762 2.50652,3.41575 0.0561,-3.8887 -7.27193,-19.92301 -14.83058,-32.45051 -9.95152,-16.49335 -20.12574,-35.51658 -20.12574,-37.63005 0,-0.44626 -0.41468,-1.15554 -0.92151,-1.57617 -1.34612,-1.11719 -15.7157,-3.7692 -27.12343,-5.00582 -11.50673,-1.24736 -13.12507,-1.69371 -8.57845,-2.36597 6.38728,-0.94443 16.39753,-0.62349 24.93561,0.79945 4.64122,0.7735 8.56611,1.27883 8.72198,1.12296 0.35006,-0.35007 -1.03638,-5.22941 -1.7655,-6.2134 -0.29264,-0.39493 -1.71264,-1.07176 -3.15556,-1.50407 -2.97163,-0.89032 -4.65088,-2.85514 -4.65088,-5.4418 0,-2.03874 0.0905,-2.00604 -10.75241,-3.88646 -27.45184,-4.76081 -72.18864,-7.8772 -95.81834,-6.67476 -14.0088,0.71287 -33.0087,3.00035 -34.4229,4.14434 -0.5347,0.43255 -0.5849,1.26346 -0.1649,2.72789 0.3322,1.15823 0.604,2.87352 0.604,3.81176 0,2.56974 -3.7268,7.67915 -7.0003,9.5976 -1.5939,0.93407 -2.8979,1.96703 -2.8979,2.29548 0,0.32845 2.6972,0.59718 5.9938,0.59718 7.3457,0 7.7672,1.20464 0.8848,2.52878 -9.8044,1.88632 -29.8587,6.70522 -33.9338,8.15406 -4.1729,1.48362 -4.3491,1.64123 -6.4987,5.81418 -2.75,5.33841 -10.3296,18.75272 -15.2872,27.05512 -8.7266,14.61462 -15.8688,30.01937 -15.8099,34.10021 0.01,0.66187 1.1374,-0.87521 2.5065,-3.41575 1.369,-2.54055 3.775,-6.69779 5.3467,-9.23834 z m 31.8042,-59.42847 c 1.5882,-0.56596 5.1146,-1.48932 7.8366,-2.05191 7.0383,-1.45471 7.4846,-1.95219 2.2374,-2.49404 -3.1807,-0.32845 -5.608,-1.06153 -8.078,-2.43967 -1.9421,-1.08358 -3.5991,-1.87643 -3.6824,-1.76189 -0.083,0.11454 -0.5364,1.98993 -1.0072,4.16754 -0.4708,2.17761 -0.9984,4.33047 -1.1724,4.78414 -0.4151,1.08215 0.3735,1.0405 3.866,-0.20417 z m 21.2679,-9.97738 c 2.8456,-0.79843 4.7483,-1.87351 6.807,-3.84617 3.31,-3.1715 3.4914,-4.38228 1.631,-10.88488 -1.3215,-4.61883 -6.0448,-16.04227 -6.4611,-15.62604 -0.1393,0.13933 0.791,3.84702 2.0675,8.23932 2.7955,9.61957 2.898,11.88057 0.6594,14.54099 -3.0147,3.58271 -11.353,7.3652 -16.2362,7.3652 -1.0015,0 -2.0045,0.29695 -2.2288,0.65988 -0.678,1.09691 9.4273,0.7677 13.7612,-0.4483 z m -4.5248,-6.393 c 4.643,-2.12762 6.9307,-4.08663 6.9307,-5.93505 0,-2.4712 -5.3724,-19.19246 -7.9183,-24.64546 -2.9459,-6.30954 -3.8827,-6.81915 -10.1539,-5.52384 -7.5873,1.56712 -14.5437,6.22908 -15.2788,10.23937 -0.449,2.44958 3.4156,15.63802 6.619,22.58826 2.4979,5.41933 2.6013,5.47064 10.5649,5.24181 4.1395,-0.11895 6.1333,-0.54314 9.2364,-1.96509 z m 185.42843,0.23334 c 1.93602,-0.8577 1.87189,-0.88892 -2.9111,-1.4165 -5.76823,-0.63626 -9.90651,-2.45446 -11.36687,-4.99417 -0.73179,-1.27266 -1.17259,-4.34544 -1.44969,-10.10587 -0.261,-5.42572 -0.85393,-9.74494 -1.72116,-12.53774 -2.13779,-6.88457 -5.88772,-11.26975 -7.04909,-8.24325 -0.20397,0.53151 0.22663,1.80547 0.95687,2.83101 2.01732,2.83306 3.9429,9.21459 4.44185,14.72065 0.4968,5.48248 -0.40446,11.22215 -2.42293,15.43019 -1.47395,3.07288 -1.17403,3.52108 3.17026,4.73744 3.90918,1.09453 15.53223,0.82742 18.35186,-0.42176 z m 4.3419,-7.3022 c 1.30458,-1.30459 1.36159,-1.94894 1.15322,-13.03265 -0.19468,-10.35581 -0.38225,-12.01374 -1.67665,-14.82037 -2.11623,-4.58862 -5.58851,-6.07702 -14.1786,-6.07768 -7.71343,-6e-4 -8.52453,0.50318 -6.23709,3.87392 3.12372,4.60305 4.46631,9.94526 4.8651,19.35827 0.47951,11.31871 0.91983,11.83409 10.24739,11.99439 3.69444,0.0635 4.68828,-0.15754 5.82663,-1.29588 z m -28.41122,-2.29987 c 1.45893,-3.83728 0.83687,-6.22113 -2.49204,-9.55004 -3.59293,-3.59293 -5.41649,-4.23228 -15.01114,-5.26296 -13.97221,-1.50092 -17.87666,-3.58293 -28.66943,-15.28767 -7.6156,-8.25905 -9.3991,-10.6421 -16.5324,-22.0903 -3.7361,-5.99598 -10.2899,-13.7996 -12.7787,-15.21551 -1.5548,-0.88455 -8.9974,-1.15568 -8.9974,-0.32778 0,0.28625 1.5937,1.48631 3.5415,2.66681 4.6061,2.79159 12.6467,11.09481 16.4033,16.9391 1.633,2.54054 5.1374,8.47947 7.7875,13.19762 10.1836,18.13061 16.6982,26.03141 25.00746,30.32828 1.23811,0.64025 8.18736,2.16759 15.44277,3.39409 7.25542,1.2265 13.34265,2.38098 13.52718,2.56551 0.84252,0.84253 2.18504,0.18509 2.7714,-1.35715 z m -130.46211,-5.5775 c 5.7414,-0.71956 12.2742,-1.31481 14.5174,-1.32279 5.1094,-0.0181 7.9024,-1.2608 14.3067,-6.36545 5.4084,-4.31078 10.2325,-9.35091 14.9606,-15.63055 4.214,-5.59684 12.5768,-14.06823 15.5589,-15.76091 1.361,-0.77253 2.4746,-1.58916 2.4746,-1.81476 0,-0.63361 -2.6331,-4.0263 -6.2689,-8.07739 -3.6397,-4.05539 -13.0301,-10.70679 -16.0533,-11.3708 -4.4244,-0.97176 -16.1688,4.78037 -23.367,11.44456 -2.1242,1.96674 -5.8462,6.57501 -8.271,10.24061 -3.8148,5.76683 -12.2912,16.88858 -22.3624,29.34145 -3.1184,3.85586 -3.3315,4.74832 -1.9315,8.09212 1.2487,2.98255 1.4935,3.15917 3.9115,2.82257 1.147,-0.15969 6.7831,-0.87909 12.5244,-1.59866 z m 89.5332,0.7948 c 0,-0.29503 -0.9216,-1.40858 -2.048,-2.47455 -4.5167,-4.27428 -10.669,-13.25201 -18.0601,-26.35372 -2.4569,-4.35521 -4.5658,-8.02847 -4.6865,-8.16279 -1.4444,-1.60753 -10.4602,6.17429 -16.591,14.32017 -4.853,6.44813 -11.3873,13.35925 -15.4517,16.34281 -1.7665,1.29676 -3.2119,2.6294 -3.2119,2.96143 0,0.33601 4.0638,0.60367 9.1651,0.60367 12.6452,0 33.5872,1.34123 50.0592,3.20603 0.4537,0.0513 0.8249,-0.14801 0.8249,-0.44305 z m 39.63131,-14.85511 c -2.45489,-7.37694 -8.01604,-12.39004 -24.54769,-22.12853 -7.36671,-4.3396 -12.39571,-8.96076 -14.39362,-13.22628 -0.8665,-1.85014 -1.8217,-3.36389 -2.1226,-3.36389 -0.3009,0 -0.5471,2.91557 -0.5471,6.47905 0,10.88399 2.5406,17.06429 10.39342,25.2838 2.77828,2.90798 5.55333,5.55586 6.16678,5.88417 0.61346,0.32831 5.08169,1.05127 9.92941,1.60657 7.04895,0.80745 9.54084,1.37949 12.44338,2.8565 1.99614,1.01578 3.72806,1.60812 3.84871,1.31631 0.12065,-0.29181 -0.40616,-2.41028 -1.17069,-4.7077 z m -148.47961,-6.50379 c 2.9717,-3.75955 5.247,-7.84547 5.247,-9.42272 0,-2.3678 -8.8188,-0.0467 -12.4284,3.27111 l -2.4189,2.22342 2.0654,2.1887 c 1.136,1.20378 2.4084,2.85682 2.8277,3.67342 0.4193,0.81661 1.0419,1.48473 1.3836,1.48473 0.3417,0 1.8374,-1.5384 3.3236,-3.41866 z m -19.198,-4.89485 c 6.1048,-0.22767 6.2748,-0.27771 7.8712,-2.31754 0.8973,-1.14665 2.9892,-2.96895 4.6485,-4.04955 l 3.0169,-1.96471 -4.0255,0.38365 c -5.4716,0.52146 -13.8504,3.2573 -17.6172,5.75232 -3.285,2.17593 -4.1594,3.75185 -1.6181,2.91656 0.8166,-0.26842 4.2925,-0.59275 7.7242,-0.72073 z"
       style="fill:#5d5d5d" />
  </g>
</svg>
