<?xml version="1.0" encoding="UTF-8" standalone="no"?>
<!-- Created with Inkscape (http://www.inkscape.org/) -->

<svg
   xmlns:dc="http://purl.org/dc/elements/1.1/"
   xmlns:cc="http://creativecommons.org/ns#"
   xmlns:rdf="http://www.w3.org/1999/02/22-rdf-syntax-ns#"
   xmlns:svg="http://www.w3.org/2000/svg"
   xmlns="http://www.w3.org/2000/svg"
   xmlns:sodipodi="http://sodipodi.sourceforge.net/DTD/sodipodi-0.dtd"
   xmlns:inkscape="http://www.inkscape.org/namespaces/inkscape"
   width="141.1111mm"
   height="141.11111mm"
   viewBox="0 0 499.99996 500.00001"
   id="svg3492"
   version="1.1"
   inkscape:version="0.91 r13725"
   sodipodi:docname="poison.svg">
  <defs
     id="defs3494" />
  <sodipodi:namedview
     id="base"
     pagecolor="#ffffff"
     bordercolor="#666666"
     borderopacity="1.0"
     inkscape:pageopacity="0.0"
     inkscape:pageshadow="2"
     inkscape:zoom="0.35"
     inkscape:cx="-99.904394"
     inkscape:cy="243.81891"
     inkscape:document-units="px"
     inkscape:current-layer="layer1"
     showgrid="false"
     fit-margin-top="0"
     fit-margin-left="0"
     fit-margin-right="0"
     fit-margin-bottom="0"
     inkscape:window-width="1855"
     inkscape:window-height="1056"
     inkscape:window-x="1985"
     inkscape:window-y="24"
     inkscape:window-maximized="1" />
  <metadata
     id="metadata3497">
    <rdf:RDF>
      <cc:Work
         rdf:about="">
        <dc:format>image/svg+xml</dc:format>
        <dc:type
           rdf:resource="http://purl.org/dc/dcmitype/StillImage" />
        <dc:title></dc:title>
      </cc:Work>
    </rdf:RDF>
  </metadata>
  <g
     inkscape:label="Layer 1"
     inkscape:groupmode="layer"
     id="layer1"
     transform="translate(-122.04725,-276.1811)">
    <path
       inkscape:connector-curvature="0"
       id="path3524"
       d="m 354.33038,775.439 c -21.81288,-2.69028 -43.89764,-9.87902 -56.54374,-18.40535 -19.72086,-13.29633 -48.61181,-51.4981 -60.59394,-80.12186 -5.46846,-13.0634 -7.04315,-22.69231 -6.1861,-37.8266 1.28406,-22.67473 6.91317,-34.45452 33.35223,-69.7948 34.33533,-45.89498 42.993,-59.86638 52.76477,-85.14969 6.19288,-16.02337 8.45993,-24.21799 9.62223,-34.7812 l 0.82446,-7.49272 -3.51317,0.77163 c -5.04005,1.10697 -6.66095,-1.36421 -6.01375,-9.16844 0.28724,-3.46376 1.74584,-8.63141 3.24135,-11.48365 7.48207,-14.2699 8.83714,-25.81619 4.85644,-41.3806 -2.45279,-9.59029 -8.79533,-23.20085 -13.3781,-28.70823 -6.82785,-8.20545 -7.54027,-15.16112 -2.10909,-20.59229 1.89385,-1.89386 4.24357,-3.44337 5.22159,-3.44337 2.96664,0 3.38529,-4.27601 0.8963,-9.1548 -1.2842,-2.51724 -3.25119,-8.37312 -4.37111,-13.01306 -1.68956,-7.00011 -1.79624,-9.23717 -0.62666,-13.14089 1.85687,-6.19771 4.73912,-7.70592 11.48175,-6.00811 5.52222,1.39052 8.41952,0.50664 16.1398,-4.92376 2.69879,-1.8983 4.41338,-2.19372 9.11358,-1.57022 4.18592,0.55529 6.77836,0.25658 9.36011,-1.0785 2.96422,-1.53286 4.35839,-1.6105 8.20802,-0.45713 3.81298,1.1424 5.86463,1.04499 11.54187,-0.54796 9.29071,-2.60684 11.83396,-2.45777 18.62481,1.09165 4.54516,2.37566 8.08187,3.15811 16.39707,3.62767 8.26165,0.46653 11.13877,1.09808 13.03386,2.861 1.33755,1.24427 3.54979,2.2623 4.9161,2.2623 6.97744,0 12.72683,10.66021 9.35342,17.3426 -0.90857,1.79976 -1.95676,5.65774 -2.32931,8.57328 -0.45072,3.52718 -1.49047,5.84177 -3.10728,6.91714 -3.71474,2.47078 -3.0784,7.39764 1.6931,13.10876 4.60884,5.51643 5.21757,9.70619 2.30268,15.84887 -1.00115,2.10979 -3.10631,4.52424 -4.67813,5.36545 -1.92498,1.03022 -3.89476,4.24305 -6.03448,9.84261 -4.88295,12.77857 -6.23617,20.87775 -7.01382,41.97873 -0.60804,16.49814 -0.25524,23.44729 2.33334,45.96142 3.305,28.74507 5.29417,37.81987 12.28078,56.02633 7.31142,19.05286 17.23279,32.84139 44.06537,61.24112 18.77886,19.87561 28.53144,36.02874 32.19837,53.32988 3.44205,16.24013 1.74026,29.37488 -7.33516,56.61409 -6.59514,19.79485 -9.48404,25.99679 -18.10789,38.87436 -20.6954,30.9034 -39.52852,44.96578 -71.21496,53.17504 -12.31205,3.18978 -16.56779,3.71758 -32.98384,4.09064 -10.36636,0.23557 -22.82365,-0.062 -27.68287,-0.66134 z m 42.99679,-2.42316 c 19.55324,-2.39618 39.77681,-9.71176 54.5141,-19.71966 11.2796,-7.65984 30.3607,-30.04158 39.41635,-46.23462 5.10294,-9.1249 16.8088,-43.31301 18.51447,-54.07327 4.52599,-28.55244 -5.68578,-53.80303 -33.90417,-83.83457 -11.05358,-11.76382 -24.13544,-27.32922 -31.02072,-36.90986 -5.06695,-7.05047 -8.94098,-14.69267 -13.28673,-26.21037 -1.77233,-4.69726 -3.50029,-8.54046 -3.83992,-8.54046 -0.33964,0 -5.7268,1.91899 -11.97146,4.26441 -31.75902,11.92832 -58.70171,11.69448 -87.85823,-0.76255 -6.19607,-2.64725 -11.80678,-4.47869 -12.46826,-4.06987 -0.66148,0.40881 -3.10868,4.54707 -5.43822,9.19611 -5.72541,11.42615 -13.46652,23.1422 -32.82666,49.68262 -27.83206,38.15443 -28.99885,39.84358 -32.99038,47.75951 -7.43281,14.74065 -9.40729,23.41781 -9.37017,41.17907 0.0386,18.49814 1.47517,24.54436 9.55814,40.22961 9.72136,18.86458 30.81602,48.03937 44.58791,61.66691 4.58331,4.53528 11.49614,9.91555 15.36183,11.95618 22.02516,11.62663 63.43646,18.04644 93.02212,14.42081 z m -55.36574,-64.69172 c -24.3672,-1.30676 -32.50665,-3.7178 -36.97865,-10.95367 -1.35042,-2.18501 -4.35189,-9.75175 -6.66996,-16.81498 -5.70731,-17.3904 -6.68377,-34.26924 -2.98954,-51.67685 2.63334,-12.40857 5.19586,-18.40417 10.99624,-25.72812 2.43497,-3.07456 4.15234,-4.25428 5.46103,-3.75133 5.28619,2.03156 19.23886,4.13169 35.33883,5.31913 30.69444,2.26384 61.78748,-1.17749 85.47803,-9.46059 12.11279,-4.23509 14.25575,-3.82874 17.71355,3.35882 6.79227,14.11876 10.17436,31.49682 10.12485,52.0241 -0.0484,20.07815 -2.44642,32.71436 -7.742,40.79643 -2.03334,3.10328 -11.61859,6.40395 -30.03976,10.34417 -27.76732,5.93935 -53.31673,8.011 -80.69262,6.54289 z m 40.34631,-2.97944 c 23.68128,-1.69479 59.59202,-9.20685 66.89864,-13.99433 4.03115,-2.64132 8.33057,-17.30721 9.34677,-31.88309 0.83493,-11.97576 -0.20967,-23.53199 -3.67362,-40.64081 -1.97679,-9.76357 -7.69467,-22.93524 -10.40835,-23.97658 -0.95847,-0.3678 -7.18711,1.11899 -13.8414,3.30398 -21.02423,6.90351 -31.73895,8.24097 -66.28645,8.2742 -25.73679,0.0247 -32.48524,-0.33861 -42.25874,-2.27546 l -11.63088,-2.30491 -2.33424,2.88267 c -9.29295,11.4763 -14.05152,34.63563 -11.50276,55.98238 1.92683,16.13796 9.70142,36.97326 14.98129,40.14876 3.71652,2.23523 15.44505,4.21267 30.36343,5.11928 13.74936,0.83556 21.48746,0.71357 40.34631,-0.63609 z M 323.2935,693.0401 c -2.21375,-1.94369 -4.59897,-3.53398 -5.30052,-3.53398 -2.22382,0 -3.92088,-4.48109 -2.6186,-6.91442 1.82439,-3.40889 8.4744,-6.06283 13.24991,-5.28787 3.78182,0.61371 4.8709,0.0488 12.27753,-6.36823 4.47017,-3.87291 9.42142,-8.44452 11.00278,-10.15912 l 2.8752,-3.11745 -2.54616,-5.24079 c -4.11104,-8.46174 -18.41754,-15.91677 -30.56318,-15.92628 -6.69406,-0.005 -13.28187,-3.50017 -13.28187,-7.04624 0,-1.30532 1.11321,-3.38049 2.47379,-4.61149 2.92218,-2.64388 3.87893,-3.61071 7.61696,-7.69728 2.74674,-3.00285 2.92012,-3.03322 7.25806,-1.2712 2.44424,0.99283 7.35963,4.93807 10.92306,8.7672 9.3523,10.04965 10.62413,10.45501 15.14648,4.82758 5.12274,-6.37458 17.42095,-12.32701 25.3841,-12.28611 7.19639,0.037 12.76702,2.72664 15.60798,7.53597 1.15012,1.94702 2.67281,3.54002 3.38375,3.54002 1.69385,0 6.58912,-5.37452 9.81017,-10.77058 3.78876,-6.34715 10.47853,-11.09241 14.90545,-10.57289 2.13361,0.25038 13.53561,11.56085 13.53561,13.42693 0,3.0937 -6.84579,7.91654 -11.23714,7.91654 -8.00574,0 -27.63495,10.25713 -27.63761,14.44188 -5.1e-4,0.80357 -1.52938,4.69187 -3.39749,8.64066 l -3.39656,7.17962 10.27739,4.40187 c 9.5737,4.10048 10.61956,4.30974 15.27487,3.0562 7.47257,-2.01216 10.13801,0.15184 11.04808,8.96965 0.84253,8.16332 -0.23409,9.85385 -6.2755,9.85385 -3.80077,0 -5.27329,-0.85536 -10.04638,-5.83583 -3.8843,-4.05305 -7.88147,-6.75203 -13.08454,-8.83496 -10.90124,-4.36407 -11.00089,-4.32225 -11.00089,4.6164 0,8.90154 -0.66704,9.53388 -11.97858,11.35556 -9.78652,1.57607 -12.18094,-0.0229 -13.28661,-8.87228 -0.44857,-3.59022 -1.25864,-6.80152 -1.80016,-7.1362 -1.57158,-0.97128 -19.50647,14.85405 -22.33989,19.71221 -2.23209,3.82711 -5.54291,6.77505 -7.60905,6.77505 -0.344,0 -2.4367,-1.5903 -4.65044,-3.53399 z m 10.28407,-4.43984 c 1.56573,-3.0898 4.6798,-6.93301 6.92018,-8.54045 6.12693,-4.396 17.36661,-14.95397 17.36661,-16.31328 0,-3.08098 -2.80539,-2.1956 -7.93709,2.50492 -3.08542,2.82616 -8.09544,7.13157 -11.13339,9.56756 -5.05216,4.0511 -5.95851,4.36386 -10.62021,3.66479 -4.16966,-0.62528 -5.68255,-0.30343 -8.31789,1.76953 -4.58617,3.60749 -4.18716,5.8968 1.02779,5.8968 3.44006,0 4.10901,0.36484 3.51366,1.9163 -0.92776,2.41769 1.27021,5.15167 4.14166,5.15167 1.43285,0 3.17775,-1.94547 5.03868,-5.61784 z m 31.79027,-7.6346 c 0.39067,-1.45777 0.71755,-3.84321 0.7264,-5.30098 0.009,-1.45776 0.54618,-2.65048 1.19407,-2.65048 0.6479,0 1.178,2.42961 1.178,5.39913 0,7.05903 2.69384,6.474 3.58534,-0.77863 l 0.64036,-5.2095 1.14573,5.20917 c 1.65513,7.52514 4.64097,8.1219 3.52878,0.70528 -0.58065,-3.87203 -0.44836,-5.33726 0.4327,-4.79273 0.69797,0.43137 1.26904,1.78194 1.26904,3.00126 0,3.29161 1.9807,3.90833 2.79498,0.87024 0.38875,-1.45047 0.71647,-5.02267 0.72824,-7.93821 0.0153,-3.80342 1.51594,-8.46247 5.31174,-16.49192 5.93659,-12.558 6.55508,-17.73923 3.0412,-25.47732 -2.98572,-6.57503 -10.0954,-9.55773 -17.88459,-7.50306 -6.871,1.81246 -14.2351,6.17207 -18.0163,10.66576 -4.43444,5.27003 -4.04265,10.72353 1.74778,24.32819 3.61363,8.49022 4.98032,13.47782 5.47101,19.96584 0.65857,8.7079 1.79242,10.89779 3.10552,5.99796 z m 1.92047,-18.63085 c 0,-2.97342 2.03724,-6.99053 3.54518,-6.99053 1.54725,0 4.95033,6.88916 4.09041,8.28056 -0.38867,0.62887 -2.26567,1.1434 -4.17113,1.1434 -2.71588,0 -3.46446,-0.5258 -3.46446,-2.43343 z m 5.30098,-1.10056 c -0.40042,-0.64789 -1.25813,-1.17799 -1.90603,-1.17799 -0.6479,0 -0.85038,0.5301 -0.44996,1.17799 0.40042,0.6479 1.25813,1.178 1.90603,1.178 0.6479,0 0.85038,-0.5301 0.44996,-1.178 z m -12.36894,-12.95794 c -4.82787,-4.82786 -1.55601,-11.77994 5.54399,-11.77994 1.97531,0 4.25249,0.79647 5.06038,1.76991 1.61489,1.94583 0.84796,8.15499 -1.33165,10.78126 -1.92546,2.32004 -6.56754,1.93396 -9.27272,-0.77123 z m 15.35537,0.0774 c -2.64711,-4.94612 -0.48598,-14.21333 3.31457,-14.21333 2.6783,0 6.06794,4.00874 6.06794,7.17621 0,7.30879 -6.59135,12.2525 -9.38251,7.03717 z m 47.47128,32.40353 c 0.35475,-0.92447 -0.08,-2.28254 -0.96606,-3.01793 -1.06449,-0.88345 -1.38809,-2.71113 -0.95385,-5.38711 0.74062,-4.56385 1.05327,-4.43093 -9.66398,-4.10814 -5.67239,0.17085 -8.63289,-0.50019 -14.99356,-3.39849 -9.07483,-4.13497 -9.15533,-4.15283 -9.15533,-2.03044 0,0.86949 3.78604,3.0663 8.41344,4.88179 5.88579,2.30921 10.16848,5.0194 14.25525,9.02107 6.01399,5.88875 11.6819,7.64121 13.06409,4.03929 z m -74.81919,-42.27376 c 0.25867,-1.33365 -1.15063,-2.55164 -4.50574,-3.89409 -3.21865,-1.28785 -5.86186,-3.50542 -7.7575,-6.50831 -2.99247,-4.74038 -11.4202,-11.61062 -14.24275,-11.61062 -3.37073,0 -3.19461,3.85498 0.30989,6.78287 l 3.4378,2.87218 -5.04608,-0.7248 c -5.33386,-0.76613 -9.67885,0.7142 -9.67885,3.29757 0,3.40666 4.25689,5.40588 12.44205,5.84336 5.41762,0.28955 10.55561,1.46969 15.24082,3.50062 7.68103,3.32955 9.22665,3.39913 9.80036,0.44122 z m 72.33733,-12.11413 c 4.06616,-0.47789 7.63674,-1.66752 9.10191,-3.03253 3.0093,-2.80359 3.00969,-3.60338 0.004,-6.3243 -2.06922,-1.87261 -3.07297,-2.00157 -7.13683,-0.91686 l -4.72897,1.26223 2.42486,-2.58112 c 5.53802,-5.89496 0.961,-8.38982 -5.70541,-3.10993 -2.55324,2.0222 -5.78659,6.0406 -7.1852,8.92975 -1.69306,3.49741 -4.08624,6.12039 -7.16068,7.84833 -4.78438,2.68897 -5.07377,3.1364 -3.93984,6.09137 0.55158,1.43738 2.258,0.9143 9.15701,-2.80698 5.59354,-3.01712 10.75611,-4.84118 15.17004,-5.35996 z M 392.2208,506.44038 c 11.72608,-2.24357 29.16804,-8.33657 32.01542,-11.18396 2.31565,-2.31566 2.31208,-2.43716 -0.82381,-28.02193 -4.99547,-40.7565 -5.60615,-49.34429 -4.77128,-67.09752 0.73135,-15.55181 0.63594,-16.74095 -1.43021,-17.82522 -4.6374,-2.43361 -7.37982,0.32055 -13.76632,13.82525 -4.93505,10.43551 -6.60183,12.94257 -8.62368,12.97109 -3.30039,0.0465 -4.15258,-1.23019 -7.99271,-11.97447 -1.78192,-4.98568 -3.98496,-9.68322 -4.89561,-10.439 -2.63978,-2.19082 -6.45598,-0.4683 -14.4249,6.51096 -4.09065,3.58265 -8.21238,6.51391 -9.15939,6.51391 -0.947,0 -3.7737,-3.31311 -6.28156,-7.36247 -7.40938,-11.96371 -9.23641,-13.84364 -13.4344,-13.82339 -7.21769,0.0349 -7.12697,-0.31487 -7.38515,28.46717 -0.32902,36.67942 -2.1551,49.64601 -10.42238,74.00736 -1.64772,4.85535 -2.99954,9.73565 -3.00406,10.84512 -0.013,3.17175 19.73116,11.93562 34.74262,15.42133 5.41345,1.25703 31.60731,0.70601 39.65742,-0.83423 z m -65.12112,-70.48851 c 1.81528,-5.66427 3.0531,-22.09645 1.66452,-22.09645 -1.66814,0 -7.01345,10.29249 -8.57902,16.51902 -1.77335,7.05292 -0.0332,12.47507 3.41186,10.6313 1.25003,-0.66899 2.82622,-2.94324 3.50264,-5.05387 z m 73.2194,-38.10698 c 5.8308,-13.37315 9.65862,-18.15131 14.54116,-18.15131 4.84433,0 5.43358,-0.72393 9.34873,-11.48544 2.1209,-5.82968 2.64765,-8.53166 1.65958,-8.51273 -0.79612,0.0153 -5.42324,1.11978 -10.28246,2.45453 -11.36926,3.12293 -36.28714,4.21666 -53.72747,2.35827 -11.36662,-1.21119 -36.34506,-6.52366 -42.00491,-8.93371 -1.64382,-0.69996 -1.19569,0.93855 2.12996,7.78783 6.8203,14.04656 7.16043,14.58566 8.89519,14.09824 0.91224,-0.25632 3.54097,-1.0003 5.84163,-1.65328 5.8593,-1.66301 9.30589,0.91148 14.53043,10.85381 6.70329,12.75636 6.84025,12.783 17.16856,3.33936 7.88917,-7.21344 11.34283,-8.16166 14.85496,-4.07856 1.44343,1.67809 3.55435,5.86661 4.69092,9.30783 2.44919,7.41543 4.95163,11.55773 6.98224,11.55773 0.80985,0 3.22701,-4.02416 5.37148,-8.94257 z m 14.61387,-37.57725 c 18.3441,-5.16428 27.63131,-14.77254 21.17484,-21.90685 -1.76168,-1.94663 -2.08219,-1.90485 -6.05157,0.78885 -2.30527,1.56439 -6.12583,3.36524 -8.49015,4.00189 -16.54479,4.45504 -63.19185,4.50945 -81.09968,0.0946 -9.74563,-2.40263 -16.80926,-5.40266 -23.01165,-9.77343 -3.15925,-2.22632 -3.40241,-2.2373 -5.59547,-0.2526 -3.03542,2.74702 -3.03549,9.87161 -1.3e-4,13.73044 4.68397,5.9547 22.48448,11.66496 46.68903,14.97747 12.69235,1.737 48.01127,0.69698 56.38478,-1.66036 z m -4.64784,-17.21918 c 10.17195,-1.24597 16.6913,-3.43424 18.53538,-6.22154 0.476,-0.71947 0.87358,-4.5949 0.88349,-8.61206 0.0134,-5.44693 0.49567,-7.57121 1.89662,-8.35524 1.03323,-0.57822 2.59138,-3.91767 3.46256,-7.421 0.87119,-3.50333 1.9413,-7.55596 2.37804,-9.00586 1.46744,-4.87163 -2.52176,-4.50383 -9.49423,0.87539 l -6.4572,4.9817 -7.56208,-0.80982 c -5.74683,-0.61544 -8.40221,-0.37538 -11.06201,1.00006 -3.19662,1.65303 -4.03265,1.62228 -9.64673,-0.35478 -4.69659,-1.65396 -7.16045,-1.91099 -10.44324,-1.08939 -9.43035,2.36016 -12.91875,2.43207 -18.29935,0.3772 -5.34441,-2.04105 -6.91191,-2.02732 -22.05563,0.19325 -2.9661,0.43493 -5.71387,-0.12186 -9.08253,-1.84043 -6.99159,-3.56684 -13.73954,-3.30922 -16.31597,0.62291 -1.9572,2.98708 -1.91709,3.28844 1.24027,9.31892 1.79458,3.42761 3.1427,7.73705 2.99581,9.57654 -0.54871,6.87165 -0.0937,7.53279 7.57972,11.01205 6.60328,2.99408 14.19415,4.81965 26.08134,6.27247 8.3519,1.02076 45.6459,0.67023 55.36574,-0.52037 z m -42.1133,-4.97553 c -0.48592,-1.1868 -0.8835,-3.24463 -0.8835,-4.57292 0,-1.32831 -1.03665,-4.09245 -2.30367,-6.14253 -2.73124,-4.41924 -4.70725,-14.46341 -2.58771,-13.15346 0.74658,0.4614 1.3574,1.93407 1.3574,3.27258 0,1.33852 1.36704,5.47981 3.03786,9.2029 1.68558,3.75599 2.86541,8.27871 2.65049,10.16025 -0.3177,2.78108 -0.54628,3.0029 -1.27087,1.23318 z m 15.58256,-3.9571 c -0.0143,-2.46786 -1.07443,-6.79781 -2.35599,-9.62212 -2.51461,-5.5417 -3.01656,-9.58982 -1.18909,-9.58982 0.62755,0 0.84105,0.78169 0.47444,1.7371 -0.36663,0.95538 0.44587,3.53707 1.80553,5.73706 2.94383,4.76322 4.54321,14.21479 2.6078,15.41093 -0.88099,0.54448 -1.32539,-0.67124 -1.34269,-3.67315 z M 350.51,334.9298 c -0.47268,-1.61975 -0.86668,-3.97034 -0.87552,-5.22356 -0.009,-1.25321 -1.12883,-4.57718 -2.48885,-7.3866 -1.41867,-2.93059 -2.13226,-5.97651 -1.67398,-7.14539 0.61811,-1.57661 1.19552,-0.97175 2.55324,2.67463 2.69523,7.23853 4.09935,13.68813 3.70354,17.01156 l -0.359,3.01434 -0.85943,-2.94498 z m -16.20553,-2.8683 c 0,-4.04662 -1.94054,-8.66681 -5.3341,-12.69983 -2.93207,-3.48457 -4.02941,-10.34775 -1.65448,-10.34775 0.72515,0 0.93792,1.0065 0.50267,2.37785 -0.51883,1.63472 0.24844,3.5675 2.45512,6.18447 5.29534,6.27991 8.61917,17.35356 5.20879,17.35356 -0.6479,0 -1.178,-1.29074 -1.178,-2.8683 z m 63.61263,0.31546 c -5.1e-4,-1.0801 1.05926,-4.43715 2.35506,-7.46012 1.29579,-3.02297 2.35599,-6.80887 2.35599,-8.41314 0,-1.6446 0.5138,-2.59929 1.17799,-2.18881 1.99261,1.2315 1.32893,4.77038 -2.35506,12.55767 -1.94318,4.10753 -3.53347,6.58452 -3.53398,5.5044 z m 16.95396,-2.84449 c 0.39327,-1.02483 0.72314,-4.33794 0.73306,-7.36246 0.0183,-5.57462 1.53217,-9.64257 3.03077,-8.14397 0.4515,0.45151 0.18372,1.58869 -0.59508,2.52708 -0.88102,1.06156 -1.12469,3.25891 -0.64497,5.81603 0.85764,4.57163 -0.13644,9.02666 -2.01417,9.02666 -0.67356,0 -0.90288,-0.83849 -0.50961,-1.86334 z m -33.93257,-23.61952 c 7.19826,-1.80815 7.93163,-1.79842 12.28123,0.16298 4.04058,1.82205 5.29985,1.89724 9.95356,0.59429 2.93025,-0.82043 7.99149,-1.23572 11.2472,-0.92289 5.46069,0.5247 6.53415,0.16507 13.85,-4.63999 4.43357,-2.91199 7.93051,-6.05843 7.93051,-7.13567 0,-1.23823 -2.04357,-2.65801 -5.71809,-3.97267 -3.14495,-1.12517 -6.63233,-2.87314 -7.74972,-3.88437 -1.49357,-1.35165 -4.59133,-1.83859 -11.69648,-1.83859 -7.97408,0 -10.68156,-0.5152 -15.47652,-2.94499 -6.6646,-3.3772 -11.25023,-3.69013 -17.26261,-1.17799 -4.83283,2.01928 -9.57638,2.25345 -13.72172,0.6774 -2.0347,-0.77359 -3.84483,-0.58168 -6.24151,0.66174 -2.37949,1.23449 -5.03739,1.52277 -9.00653,0.97688 -4.95168,-0.68103 -6.30386,-0.3498 -11.2106,2.74612 -7.3559,4.64126 -9.95627,5.3168 -15.0511,3.91005 -2.33823,-0.64561 -4.95838,-0.90252 -5.82258,-0.57089 -2.13305,0.81852 -4.42486,6.65125 -3.94504,10.04027 0.36138,2.55254 1.06208,2.80841 9.22604,3.36917 5.27407,0.36226 10.44071,1.47514 12.81904,2.76121 4.13353,2.23516 5.9512,2.17633 17.38502,-0.56277 5.48217,-1.31331 6.59693,-1.21176 11.77994,1.07313 6.95843,3.06756 6.92146,3.06604 16.42996,0.67758 z m -3.80502,-6.05148 c 1.59666,-2.58346 8.65439,-4.01278 13.36086,-2.70583 2.46227,0.68375 6.76106,1.24615 9.55286,1.24976 3.42075,0.005 4.81224,0.43333 4.26716,1.31527 -0.54103,0.87542 -3.19667,1.04447 -8.02097,0.51059 -10.06119,-1.11339 -13.83881,-1.12072 -17.11483,-0.0332 -1.93771,0.64326 -2.58483,0.53676 -2.04508,-0.3366 z m -29.87106,-3.87357 c -2.41232,-1.94271 -4.01033,-2.24443 -8.83496,-1.66815 -6.96255,0.83164 -6.08648,-1.43608 0.99898,-2.58589 3.26019,-0.52906 5.63554,-0.009 9.61678,2.10224 2.90794,1.54265 5.28717,3.20332 5.28717,3.69035 0,1.71195 -4.15475,0.80755 -7.06797,-1.53855 z m 67.14568,1.39332 c 0,-1.23426 5.92364,-2.53431 11.0437,-2.42373 3.16018,0.0682 2.84755,0.311 -2.20874,1.71501 -7.00009,1.94375 -8.83496,2.09094 -8.83496,0.70872 z m -42.49637,-7.30378 c -1.99067,-1.99067 -3.30304,-2.29954 -7.06797,-1.66346 -6.01703,1.01657 -5.9609,-0.153 0.0855,-1.78112 4.19703,-1.13014 5.15671,-0.96367 8.82871,1.53151 2.26589,1.53972 3.76923,3.15007 3.34074,3.57856 -1.31125,1.31125 -2.63538,0.88608 -5.18695,-1.66549 z m 28.36044,1.79736 c -0.97185,-0.20566 -3.8239,-0.71123 -6.33791,-1.12352 -2.514,-0.41227 -4.10429,-1.1901 -3.53398,-1.72849 0.57032,-0.5384 4.74761,-0.35076 9.28289,0.41697 5.58308,0.94512 7.54913,1.66818 6.08812,2.23906 -1.1868,0.46375 -2.51205,0.78169 -2.94498,0.70653 -0.43293,-0.0752 -1.5823,-0.30491 -2.55414,-0.51055 z"
       style="fill:#2a2a2a" />
  </g>
</svg>
